<svg xmlns="http://www.w3.org/2000/svg" xmlns:xlink="http://www.w3.org/1999/xlink" width="1080" zoomAndPan="magnify" viewBox="0 0 810 809.999993" height="1080" preserveAspectRatio="xMidYMid meet" version="1.0"><defs><clipPath id="749678b833"><path d="M 8.949219 96.074219 L 795 96.074219 L 795 729 L 8.949219 729 Z M 8.949219 96.074219 " clip-rule="nonzero"/></clipPath><clipPath id="bc111452ed"><path d="M 47.199219 96.074219 L 756.335938 96.074219 C 766.480469 96.074219 776.207031 100.105469 783.382812 107.277344 C 790.554688 114.453125 794.585938 124.179688 794.585938 134.324219 L 794.585938 690.75 C 794.585938 700.894531 790.554688 710.625 783.382812 717.796875 C 776.207031 724.96875 766.480469 729 756.335938 729 L 47.199219 729 C 37.054688 729 27.328125 724.96875 20.152344 717.796875 C 12.980469 710.625 8.949219 700.894531 8.949219 690.75 L 8.949219 134.324219 C 8.949219 124.179688 12.980469 114.453125 20.152344 107.277344 C 27.328125 100.105469 37.054688 96.074219 47.199219 96.074219 Z M 47.199219 96.074219 " clip-rule="nonzero"/></clipPath><clipPath id="7f59d249d5"><path d="M 339.40625 103.859375 L 521.949219 103.859375 L 521.949219 286.328125 L 339.40625 286.328125 Z M 339.40625 103.859375 " clip-rule="nonzero"/></clipPath><clipPath id="5979ad1aef"><path d="M 430.679688 103.859375 L 439.53125 111.34375 L 449.757812 105.851562 L 456.855469 115.003906 L 468.003906 111.75 L 473.03125 122.164062 L 484.621094 121.285156 L 487.359375 132.511719 L 498.878906 134.042969 L 499.207031 145.59375 L 510.15625 149.476562 L 508.058594 160.839844 L 517.960938 166.898438 L 513.53125 177.585938 L 521.949219 185.554688 L 515.382812 195.09375 L 521.949219 204.628906 L 513.53125 212.601562 L 517.960938 223.285156 L 508.058594 229.34375 L 510.15625 240.710938 L 499.207031 244.589844 L 498.878906 256.140625 L 487.359375 257.671875 L 484.621094 268.902344 L 473.03125 268.019531 L 468.003906 278.441406 L 456.855469 275.183594 L 449.757812 284.332031 L 439.53125 278.839844 L 430.679688 286.328125 L 421.820312 278.839844 L 411.597656 284.332031 L 404.5 275.183594 L 393.347656 278.441406 L 388.324219 268.019531 L 376.734375 268.902344 L 373.996094 257.671875 L 362.476562 256.140625 L 362.148438 244.589844 L 351.199219 240.710938 L 353.292969 229.34375 L 343.394531 223.285156 L 347.820312 212.601562 L 339.40625 204.628906 L 345.96875 195.09375 L 339.40625 185.554688 L 347.820312 177.585938 L 343.394531 166.898438 L 353.292969 160.839844 L 351.199219 149.476562 L 362.148438 145.59375 L 362.476562 134.042969 L 373.996094 132.511719 L 376.734375 121.285156 L 388.324219 122.164062 L 393.347656 111.75 L 404.5 115.003906 L 411.597656 105.851562 L 421.820312 111.34375 Z M 430.679688 103.859375 " clip-rule="nonzero"/></clipPath><clipPath id="22bdcf8f45"><path d="M 272.25 541.8125 L 454.792969 541.8125 L 454.792969 724.277344 L 272.25 724.277344 Z M 272.25 541.8125 " clip-rule="nonzero"/></clipPath><clipPath id="4e6eddc553"><path d="M 363.523438 541.8125 L 372.375 549.296875 L 382.601562 543.804688 L 389.695312 552.957031 L 400.851562 549.695312 L 405.875 560.117188 L 417.464844 559.234375 L 420.203125 570.464844 L 431.722656 571.996094 L 432.050781 583.546875 L 443.003906 587.425781 L 440.90625 598.792969 L 450.804688 604.851562 L 446.378906 615.535156 L 454.792969 623.507812 L 448.230469 633.042969 L 454.792969 642.582031 L 446.378906 650.550781 L 450.804688 661.238281 L 440.90625 667.296875 L 443.003906 678.664062 L 432.050781 682.542969 L 431.722656 694.09375 L 420.203125 695.625 L 417.464844 706.855469 L 405.875 705.972656 L 400.851562 716.390625 L 389.695312 713.132812 L 382.601562 722.285156 L 372.375 716.792969 L 363.523438 724.277344 L 354.667969 716.792969 L 344.441406 722.285156 L 337.347656 713.132812 L 326.195312 716.390625 L 321.171875 705.972656 L 309.578125 706.855469 L 306.84375 695.625 L 295.320312 694.09375 L 294.992188 682.542969 L 284.042969 678.664062 L 286.136719 667.296875 L 276.242188 661.238281 L 280.667969 650.550781 L 272.25 642.582031 L 278.816406 633.042969 L 272.25 623.507812 L 280.667969 615.535156 L 276.242188 604.851562 L 286.136719 598.792969 L 284.042969 587.425781 L 294.992188 583.546875 L 295.320312 571.996094 L 306.84375 570.464844 L 309.578125 559.234375 L 321.171875 560.117188 L 326.195312 549.695312 L 337.347656 552.957031 L 344.441406 543.804688 L 354.667969 549.296875 Z M 363.523438 541.8125 " clip-rule="nonzero"/></clipPath><clipPath id="827953db05"><path d="M 611.613281 286.328125 L 794.15625 286.328125 L 794.15625 468.796875 L 611.613281 468.796875 Z M 611.613281 286.328125 " clip-rule="nonzero"/></clipPath><clipPath id="c2a1d52b2e"><path d="M 702.886719 286.328125 L 711.738281 293.816406 L 721.964844 288.324219 L 729.058594 297.476562 L 740.210938 294.214844 L 745.238281 304.636719 L 756.828125 303.753906 L 759.5625 314.984375 L 771.085938 316.515625 L 771.414062 328.066406 L 782.363281 331.945312 L 780.269531 343.3125 L 790.167969 349.371094 L 785.742188 360.054688 L 794.15625 368.027344 L 787.589844 377.5625 L 794.15625 387.101562 L 785.742188 395.070312 L 790.167969 405.757812 L 780.269531 411.816406 L 782.363281 423.179688 L 771.414062 427.0625 L 771.085938 438.613281 L 759.5625 440.144531 L 756.828125 451.375 L 745.238281 450.492188 L 740.210938 460.910156 L 729.058594 457.652344 L 721.964844 466.804688 L 711.738281 461.3125 L 702.886719 468.796875 L 694.03125 461.3125 L 683.804688 466.804688 L 676.710938 457.652344 L 665.558594 460.910156 L 660.53125 450.492188 L 648.941406 451.375 L 646.207031 440.144531 L 634.683594 438.613281 L 634.355469 427.0625 L 623.410156 423.179688 L 625.5 411.816406 L 615.605469 405.757812 L 620.027344 395.070312 L 611.613281 387.101562 L 618.179688 377.5625 L 611.613281 368.027344 L 620.027344 360.054688 L 615.605469 349.371094 L 625.5 343.3125 L 623.410156 331.945312 L 634.355469 328.066406 L 634.683594 316.515625 L 646.207031 314.984375 L 648.941406 303.753906 L 660.53125 304.636719 L 665.558594 294.214844 L 676.710938 297.476562 L 683.804688 288.324219 L 694.03125 293.816406 Z M 702.886719 286.328125 " clip-rule="nonzero"/></clipPath><clipPath id="5d59d01779"><path d="M 15.914062 359.339844 L 198.457031 359.339844 L 198.457031 541.8125 L 15.914062 541.8125 Z M 15.914062 359.339844 " clip-rule="nonzero"/></clipPath><clipPath id="8dd508af50"><path d="M 107.1875 359.339844 L 116.039062 366.828125 L 126.265625 361.332031 L 133.359375 370.484375 L 144.511719 367.230469 L 149.535156 377.648438 L 161.128906 376.765625 L 163.863281 387.996094 L 175.386719 389.527344 L 175.714844 401.078125 L 186.664062 404.957031 L 184.570312 416.324219 L 194.46875 422.382812 L 190.039062 433.066406 L 198.457031 441.039062 L 191.890625 450.578125 L 198.457031 460.113281 L 190.039062 468.085938 L 194.46875 478.769531 L 184.570312 484.828125 L 186.664062 496.191406 L 175.714844 500.074219 L 175.386719 511.625 L 163.863281 513.15625 L 161.128906 524.382812 L 149.535156 523.5 L 144.511719 533.921875 L 133.359375 530.664062 L 126.265625 539.816406 L 116.039062 534.324219 L 107.1875 541.8125 L 98.332031 534.324219 L 88.105469 539.816406 L 81.011719 530.664062 L 69.855469 533.921875 L 64.832031 523.5 L 53.242188 524.382812 L 50.507812 513.15625 L 38.984375 511.625 L 38.65625 500.074219 L 27.707031 496.191406 L 29.800781 484.828125 L 19.90625 478.769531 L 24.328125 468.085938 L 15.914062 460.113281 L 22.480469 450.578125 L 15.914062 441.039062 L 24.328125 433.066406 L 19.90625 422.382812 L 29.800781 416.324219 L 27.707031 404.957031 L 38.65625 401.078125 L 38.984375 389.527344 L 50.507812 387.996094 L 53.242188 376.765625 L 64.832031 377.648438 L 69.855469 367.230469 L 81.011719 370.484375 L 88.105469 361.332031 L 98.332031 366.828125 Z M 107.1875 359.339844 " clip-rule="nonzero"/></clipPath><clipPath id="ff123015f2"><path d="M 420 440.210938 L 652 440.210938 L 652 579 L 420 579 Z M 420 440.210938 " clip-rule="nonzero"/></clipPath><clipPath id="7363b4d8d2"><path d="M 416.011719 563.742188 L 644.230469 436.769531 L 658.316406 462.070312 L 430.097656 589.039062 Z M 416.011719 563.742188 " clip-rule="nonzero"/></clipPath><clipPath id="75201c90d5"><path d="M 421.65625 560.679688 C 644.066406 440.515625 646.691406 442.628906 648.765625 445.050781 C 650.558594 447.625 651.757812 451.726562 651.664062 454.164062 C 651.296875 456.75 647.953125 459.203125 645.789062 459.21875 C 643.648438 458.621094 640.238281 455.753906 638.972656 453.476562 C 637.449219 450.75 636.253906 446.648438 636.875 444.515625 C 637.246094 441.925781 641.117188 439.773438 643.511719 440.824219 C 645.402344 440.964844 648.789062 444.441406 649.777344 446.871094 C 651.273438 450.210938 651.664062 454.164062 650.441406 457.820312 C 646.59375 466.515625 629.0625 472.097656 611.066406 482.707031 C 573.425781 504.839844 456.828125 582.21875 431.785156 578.875 C 426.671875 578.144531 422.460938 575.125 420.6875 571.941406 C 419.441406 569.058594 421.65625 560.679688 421.65625 560.679688 " clip-rule="nonzero"/></clipPath><clipPath id="ae07fefb36"><path d="M 194 368.046875 L 619 368.046875 L 619 456 L 194 456 Z M 194 368.046875 " clip-rule="nonzero"/></clipPath><clipPath id="595803798b"><path d="M 192.691406 435.851562 L 616.726562 365.453125 L 621.46875 394.015625 L 197.441406 464.414062 Z M 192.691406 435.851562 " clip-rule="nonzero"/></clipPath><clipPath id="6578231dff"><path d="M 203.050781 434.203125 C 614.027344 369.136719 616.597656 371.878906 618.136719 374.789062 C 619.160156 377.785156 618.300781 382.148438 616.589844 384.542969 C 614.359375 387.023438 607.769531 388.644531 604.515625 388.128906 C 601.691406 387.015625 598.4375 383.335938 598.011719 380.765625 C 597.5 377.6875 598.359375 373.320312 600.671875 371.355469 C 602.898438 368.875 610.09375 367.679688 613 369.308594 C 615.738281 369.910156 618.5625 374.1875 618.476562 376.84375 C 618.558594 380.523438 616.589844 384.542969 612.394531 387.878906 C 601 395.574219 571.121094 396.839844 537.300781 402.984375 C 466.578125 415.78125 241.8125 464.179688 206.460938 454.742188 C 199.269531 452.769531 194.90625 448.746094 194.308594 445.152344 C 194.308594 441.988281 203.050781 434.203125 203.050781 434.203125 " clip-rule="nonzero"/></clipPath><clipPath id="362cf59005"><path d="M 143.289062 232.414062 L 369 232.414062 L 369 382.828125 L 143.289062 382.828125 Z M 143.289062 232.414062 " clip-rule="nonzero"/></clipPath><clipPath id="d6cbf18adb"><path d="M 139.242188 367.867188 L 360.421875 229.011719 L 375.824219 253.527344 L 154.648438 392.386719 Z M 139.242188 367.867188 " clip-rule="nonzero"/></clipPath><clipPath id="a4c9076e46"><path d="M 144.71875 364.511719 C 360.457031 232.757812 363.191406 234.730469 365.386719 237.039062 C 367.316406 239.515625 368.730469 243.546875 368.769531 245.980469 C 368.53125 248.585938 365.328125 251.214844 363.167969 251.339844 C 360.996094 250.863281 357.441406 248.175781 356.058594 245.972656 C 354.394531 243.328125 352.980469 239.296875 353.492188 237.132812 C 353.722656 234.527344 357.472656 232.171875 359.921875 233.09375 C 361.816406 233.132812 365.378906 236.429688 366.496094 238.800781 C 368.167969 242.054688 368.769531 245.980469 367.742188 249.703125 C 364.359375 258.585938 347.144531 265.089844 329.738281 276.632812 C 293.316406 300.726562 180.976562 384.164062 155.796875 382.144531 C 150.652344 381.6875 146.285156 378.894531 144.34375 375.8125 C 142.953125 373 144.71875 364.511719 144.71875 364.511719 " clip-rule="nonzero"/></clipPath><clipPath id="68f871e52b"><path d="M 286.46875 555.039062 L 440.578125 555.039062 L 440.578125 711 L 286.46875 711 Z M 286.46875 555.039062 " clip-rule="nonzero"/></clipPath><clipPath id="23f1eb1118"><path d="M 363.523438 555.039062 C 320.964844 555.039062 286.46875 589.964844 286.46875 633.042969 C 286.46875 676.125 320.964844 711.054688 363.523438 711.054688 C 406.082031 711.054688 440.578125 676.125 440.578125 633.042969 C 440.578125 589.964844 406.082031 555.039062 363.523438 555.039062 Z M 363.523438 555.039062 " clip-rule="nonzero"/></clipPath><clipPath id="a974c0f3ee"><path d="M 30.128906 372.566406 L 184.238281 372.566406 L 184.238281 528.894531 L 30.128906 528.894531 Z M 30.128906 372.566406 " clip-rule="nonzero"/></clipPath><clipPath id="f23ecc9a52"><path d="M 107.1875 372.566406 C 64.628906 372.566406 30.128906 407.492188 30.128906 450.578125 C 30.128906 493.660156 64.628906 528.582031 107.1875 528.582031 C 149.742188 528.582031 184.238281 493.660156 184.238281 450.578125 C 184.238281 407.492188 149.742188 372.566406 107.1875 372.566406 Z M 107.1875 372.566406 " clip-rule="nonzero"/></clipPath><clipPath id="bcb4245697"><path d="M 353.621094 117.085938 L 507.734375 117.085938 L 507.734375 273 L 353.621094 273 Z M 353.621094 117.085938 " clip-rule="nonzero"/></clipPath><clipPath id="306c1615b4"><path d="M 430.679688 117.085938 C 388.121094 117.085938 353.621094 152.011719 353.621094 195.09375 C 353.621094 238.175781 388.121094 273.101562 430.679688 273.101562 C 473.234375 273.101562 507.734375 238.175781 507.734375 195.09375 C 507.734375 152.011719 473.234375 117.085938 430.679688 117.085938 Z M 430.679688 117.085938 " clip-rule="nonzero"/></clipPath><clipPath id="6100734aad"><path d="M 625.828125 299.554688 L 779.941406 299.554688 L 779.941406 455.863281 L 625.828125 455.863281 Z M 625.828125 299.554688 " clip-rule="nonzero"/></clipPath><clipPath id="842943680b"><path d="M 702.886719 299.554688 C 660.328125 299.554688 625.828125 334.480469 625.828125 377.5625 C 625.828125 420.644531 660.328125 455.570312 702.886719 455.570312 C 745.445312 455.570312 779.941406 420.644531 779.941406 377.5625 C 779.941406 334.480469 745.445312 299.554688 702.886719 299.554688 Z M 702.886719 299.554688 " clip-rule="nonzero"/></clipPath><clipPath id="21450939ac"><path d="M 334.640625 575.035156 L 407 575.035156 L 407 699.972656 L 334.640625 699.972656 Z M 334.640625 575.035156 " clip-rule="nonzero"/></clipPath><clipPath id="bd208a1ac7"><path d="M 373.074219 153.945312 L 487.640625 153.945312 L 487.640625 237.238281 L 373.074219 237.238281 Z M 373.074219 153.945312 " clip-rule="nonzero"/></clipPath><clipPath id="8a2c95f8ed"><path d="M 709.519531 314.234375 L 713.871094 314.234375 L 713.871094 318 L 709.519531 318 Z M 709.519531 314.234375 " clip-rule="nonzero"/></clipPath><clipPath id="2ce3826c71"><path d="M 688.644531 435 L 692.996094 435 L 692.996094 439.167969 L 688.644531 439.167969 Z M 688.644531 435 " clip-rule="nonzero"/></clipPath><clipPath id="321fa5d921"><path d="M 54.707031 397.609375 L 158.859375 397.609375 L 158.859375 501.648438 L 54.707031 501.648438 Z M 54.707031 397.609375 " clip-rule="nonzero"/></clipPath></defs><g clip-path="url(#749678b833)"><g clip-path="url(#bc111452ed)"><path fill="#082449" d="M 8.949219 96.074219 L 795.160156 96.074219 L 795.160156 729 L 8.949219 729 Z M 8.949219 96.074219 " fill-opacity="1" fill-rule="nonzero"/></g></g><g clip-path="url(#7f59d249d5)"><g clip-path="url(#5979ad1aef)"><path fill="#004aad" d="M 339.40625 103.859375 L 521.949219 103.859375 L 521.949219 286.328125 L 339.40625 286.328125 Z M 339.40625 103.859375 " fill-opacity="1" fill-rule="nonzero"/></g></g><g clip-path="url(#22bdcf8f45)"><g clip-path="url(#4e6eddc553)"><path fill="#004aad" d="M 272.25 541.8125 L 454.792969 541.8125 L 454.792969 724.277344 L 272.25 724.277344 Z M 272.25 541.8125 " fill-opacity="1" fill-rule="nonzero"/></g></g><g clip-path="url(#827953db05)"><g clip-path="url(#c2a1d52b2e)"><path fill="#004aad" d="M 611.613281 286.328125 L 794.15625 286.328125 L 794.15625 468.796875 L 611.613281 468.796875 Z M 611.613281 286.328125 " fill-opacity="1" fill-rule="nonzero"/></g></g><g clip-path="url(#5d59d01779)"><g clip-path="url(#8dd508af50)"><path fill="#004aad" d="M 15.914062 359.339844 L 198.457031 359.339844 L 198.457031 541.8125 L 15.914062 541.8125 Z M 15.914062 359.339844 " fill-opacity="1" fill-rule="nonzero"/></g></g><g clip-path="url(#ff123015f2)"><g clip-path="url(#7363b4d8d2)"><g clip-path="url(#75201c90d5)"><path fill="#5ce1e6" d="M 394.9375 551.714844 L 645.105469 412.53125 L 677.015625 469.84375 L 426.851562 609.027344 Z M 394.9375 551.714844 " fill-opacity="1" fill-rule="nonzero"/></g></g></g><g clip-path="url(#ae07fefb36)"><g clip-path="url(#595803798b)"><g clip-path="url(#6578231dff)"><path fill="#5ce1e6" d="M 168.8125 418.78125 L 633.804688 341.582031 L 644.554688 406.285156 L 179.5625 483.484375 Z M 168.8125 418.78125 " fill-opacity="1" fill-rule="nonzero"/></g></g></g><g clip-path="url(#362cf59005)"><g clip-path="url(#d6cbf18adb)"><g clip-path="url(#a4c9076e46)"><path fill="#5ce1e6" d="M 117.566406 356.972656 L 360.015625 204.757812 L 394.914062 260.304688 L 152.460938 412.515625 Z M 117.566406 356.972656 " fill-opacity="1" fill-rule="nonzero"/></g></g></g><g clip-path="url(#68f871e52b)"><g clip-path="url(#23f1eb1118)"><path fill="#5ce1e6" d="M 286.46875 555.039062 L 440.578125 555.039062 L 440.578125 710.894531 L 286.46875 710.894531 Z M 286.46875 555.039062 " fill-opacity="1" fill-rule="nonzero"/></g></g><g clip-path="url(#a974c0f3ee)"><g clip-path="url(#f23ecc9a52)"><path fill="#5ce1e6" d="M 30.128906 372.566406 L 184.238281 372.566406 L 184.238281 528.425781 L 30.128906 528.425781 Z M 30.128906 372.566406 " fill-opacity="1" fill-rule="nonzero"/></g></g><g clip-path="url(#bcb4245697)"><g clip-path="url(#306c1615b4)"><path fill="#5ce1e6" d="M 353.621094 117.085938 L 507.734375 117.085938 L 507.734375 272.945312 L 353.621094 272.945312 Z M 353.621094 117.085938 " fill-opacity="1" fill-rule="nonzero"/></g></g><g clip-path="url(#6100734aad)"><g clip-path="url(#842943680b)"><path fill="#5ce1e6" d="M 625.828125 299.554688 L 779.941406 299.554688 L 779.941406 455.414062 L 625.828125 455.414062 Z M 625.828125 299.554688 " fill-opacity="1" fill-rule="nonzero"/></g></g><g clip-path="url(#21450939ac)"><path fill="#000000" d="M 342.226562 699.917969 C 341.1875 699.914062 340.257812 699.59375 339.4375 698.964844 C 339 698.640625 338.632812 698.253906 338.339844 697.796875 C 338.039062 697.34375 337.835938 696.851562 337.71875 696.320312 C 337.609375 695.789062 337.589844 695.261719 337.667969 694.722656 C 337.75 694.1875 337.925781 693.683594 338.191406 693.214844 L 338.214844 693.175781 L 365.550781 645.230469 L 339.488281 645.230469 C 339.039062 645.226562 338.597656 645.164062 338.167969 645.035156 C 337.738281 644.90625 337.335938 644.71875 336.960938 644.472656 C 336.589844 644.226562 336.257812 643.933594 335.972656 643.589844 C 335.683594 643.246094 335.453125 642.871094 335.28125 642.460938 C 335.109375 642.050781 334.996094 641.628906 334.949219 641.183594 C 334.898438 640.742188 334.917969 640.300781 335 639.863281 C 335.082031 639.425781 335.226562 639.011719 335.433594 638.617188 C 335.640625 638.21875 335.898438 637.863281 336.210938 637.542969 L 391.742188 576.929688 L 391.820312 576.84375 C 392.199219 576.46875 392.625 576.171875 393.109375 575.945312 C 393.589844 575.722656 394.097656 575.585938 394.625 575.539062 C 395.160156 575.492188 395.683594 575.53125 396.195312 575.664062 C 396.714844 575.796875 397.191406 576.011719 397.628906 576.308594 C 398.070312 576.609375 398.445312 576.972656 398.757812 577.398438 C 399.070312 577.828125 399.296875 578.292969 399.449219 578.804688 C 399.59375 579.308594 399.648438 579.824219 399.613281 580.351562 C 399.578125 580.878906 399.453125 581.382812 399.238281 581.867188 L 399.207031 581.9375 L 377.613281 626.667969 L 400.550781 626.667969 C 401.179688 626.667969 401.800781 626.757812 402.402344 626.9375 C 403.007812 627.117188 403.574219 627.382812 404.097656 627.730469 C 404.625 628.074219 405.089844 628.488281 405.496094 628.96875 C 405.898438 629.453125 406.226562 629.980469 406.472656 630.554688 C 406.71875 631.132812 406.875 631.734375 406.941406 632.355469 C 407.015625 632.976562 406.992188 633.59375 406.875 634.210938 C 406.757812 634.828125 406.554688 635.410156 406.265625 635.96875 C 405.976562 636.527344 405.609375 637.027344 405.171875 637.476562 L 345.433594 698.5625 L 345.363281 698.628906 C 344.496094 699.476562 343.449219 699.90625 342.226562 699.917969 Z M 342.101562 695.277344 Z M 339.800781 640.5625 L 365.789062 640.5625 C 365.984375 640.5625 366.179688 640.570312 366.375 640.597656 C 366.570312 640.621094 366.761719 640.660156 366.953125 640.710938 C 367.144531 640.761719 367.332031 640.820312 367.515625 640.898438 C 367.695312 640.96875 367.875 641.054688 368.042969 641.152344 C 368.214844 641.246094 368.378906 641.355469 368.535156 641.472656 C 368.691406 641.589844 368.84375 641.714844 368.984375 641.851562 C 369.125 641.992188 369.257812 642.132812 369.378906 642.285156 C 369.5 642.441406 369.609375 642.601562 369.710938 642.769531 C 369.8125 642.9375 369.902344 643.109375 369.980469 643.289062 C 370.058594 643.46875 370.125 643.652344 370.179688 643.839844 C 370.234375 644.027344 370.277344 644.21875 370.308594 644.410156 C 370.332031 644.601562 370.351562 644.796875 370.359375 644.992188 C 370.359375 645.1875 370.351562 645.382812 370.332031 645.578125 C 370.308594 645.769531 370.277344 645.960938 370.230469 646.152344 C 370.183594 646.339844 370.125 646.527344 370.054688 646.707031 C 369.984375 646.890625 369.902344 647.066406 369.808594 647.242188 L 369.785156 647.277344 L 342.867188 694.496094 L 401.785156 634.234375 C 402.027344 633.988281 402.179688 633.695312 402.246094 633.355469 C 402.304688 633.019531 402.269531 632.691406 402.136719 632.375 C 402 632.058594 401.789062 631.804688 401.496094 631.613281 C 401.207031 631.425781 400.886719 631.332031 400.542969 631.332031 L 377.394531 631.332031 C 377.203125 631.332031 377.015625 631.320312 376.828125 631.296875 C 376.640625 631.273438 376.457031 631.238281 376.273438 631.195312 C 376.089844 631.144531 375.910156 631.089844 375.734375 631.019531 C 375.554688 630.953125 375.382812 630.875 375.214844 630.785156 C 375.050781 630.699219 374.890625 630.597656 374.738281 630.488281 C 374.585938 630.378906 374.433594 630.261719 374.296875 630.132812 C 374.15625 630.007812 374.027344 629.871094 373.90625 629.730469 C 373.78125 629.585938 373.671875 629.4375 373.566406 629.277344 C 373.464844 629.121094 373.367188 628.960938 373.285156 628.792969 C 373.203125 628.621094 373.128906 628.449219 373.070312 628.273438 C 373.007812 628.097656 372.957031 627.917969 372.917969 627.734375 C 372.878906 627.550781 372.851562 627.363281 372.839844 627.175781 C 372.820312 626.988281 372.816406 626.800781 372.824219 626.617188 C 372.832031 626.429688 372.851562 626.242188 372.882812 626.058594 C 372.914062 625.871094 372.957031 625.6875 373.011719 625.507812 C 373.066406 625.332031 373.128906 625.15625 373.203125 624.980469 L 373.238281 624.914062 L 394.519531 580.835938 Z M 397.082031 580.929688 Z M 397.082031 580.929688 " fill-opacity="1" fill-rule="nonzero"/></g><g clip-path="url(#bd208a1ac7)"><path fill="#000000" d="M 481.0625 153.945312 C 480.335938 153.945312 479.609375 153.945312 478.878906 153.945312 L 380.285156 153.945312 C 377.101562 153.945312 374.101562 155.796875 373.375 159.128906 C 373.191406 160.519531 373.101562 161.90625 373.191406 163.296875 L 373.191406 227.980469 C 373.101562 229.558594 373.191406 231.128906 373.554688 232.609375 C 374.558594 235.664062 377.378906 237.238281 380.378906 237.238281 L 481.0625 237.238281 C 481.246094 237.238281 481.425781 237.144531 481.609375 237.054688 C 485.246094 236.683594 487.613281 233.628906 487.613281 229.832031 L 487.613281 161.167969 C 487.613281 157.277344 484.972656 154.042969 481.0625 153.945312 Z M 375.46875 160.609375 C 375.554688 157.742188 377.742188 156.167969 380.378906 156.167969 L 471.601562 156.167969 C 474.695312 156.167969 477.878906 156.078125 480.96875 156.167969 C 483.703125 156.261719 485.429688 158.390625 485.429688 161.074219 L 485.429688 169.125 L 388.109375 169.125 C 383.832031 169.125 379.648438 168.941406 375.46875 169.125 C 375.375 166.351562 375.375 163.480469 375.46875 160.609375 Z M 485.335938 230.390625 C 485.335938 232.792969 483.425781 234.742188 480.96875 234.832031 C 480.882812 234.832031 480.789062 234.832031 480.789062 234.832031 L 380.832031 234.832031 C 378.921875 234.832031 377.011719 234.554688 376.011719 232.609375 C 375.285156 231.222656 375.46875 229.648438 375.46875 228.078125 L 375.46875 172.457031 C 375.46875 172.179688 375.46875 171.808594 375.46875 171.53125 L 472.695312 171.53125 C 476.972656 171.53125 481.152344 171.714844 485.335938 171.53125 L 485.335938 229.464844 C 485.335938 229.742188 485.335938 230.113281 485.335938 230.390625 Z M 485.335938 230.390625 " fill-opacity="1" fill-rule="nonzero"/></g><path fill="#000000" d="M 383.105469 163.757812 C 383.105469 163.667969 383.015625 163.667969 383.105469 163.757812 Z M 383.105469 163.757812 " fill-opacity="1" fill-rule="nonzero"/><path fill="#000000" d="M 387.5625 165.886719 C 388.199219 165.148438 388.472656 164.3125 388.472656 163.296875 C 388.472656 163.109375 388.472656 163.019531 388.472656 162.832031 C 388.289062 161.351562 387.292969 160.148438 385.925781 159.59375 C 384.472656 159.039062 382.742188 159.5 381.742188 160.707031 C 380.378906 162.371094 380.5625 164.777344 382.105469 166.257812 C 383.746094 167.644531 386.109375 167.460938 387.5625 165.886719 Z M 386.199219 163.019531 C 386.199219 163.019531 386.199219 163.109375 386.199219 163.019531 C 386.199219 163.109375 386.199219 163.109375 386.199219 163.109375 C 386.199219 163.109375 386.199219 163.109375 386.199219 163.019531 Z M 383.015625 163.019531 C 383.015625 162.925781 383.015625 162.925781 383.015625 162.832031 C 383.015625 162.738281 383.105469 162.648438 383.105469 162.460938 L 383.195312 162.277344 L 383.289062 162.089844 C 383.378906 162 383.46875 161.90625 383.5625 161.816406 L 383.652344 161.816406 C 383.5625 161.90625 383.652344 161.816406 383.746094 161.816406 C 383.832031 161.722656 384.015625 161.722656 384.109375 161.628906 C 384.109375 161.628906 383.832031 161.722656 384.015625 161.628906 L 384.195312 161.539062 L 384.378906 161.539062 C 384.378906 161.539062 384.378906 161.539062 384.472656 161.539062 C 384.472656 161.539062 384.5625 161.539062 384.5625 161.539062 L 384.835938 161.539062 L 385.289062 161.628906 C 385.46875 161.722656 385.46875 161.722656 385.46875 161.722656 L 385.652344 161.90625 C 385.5625 161.816406 385.46875 161.816406 385.5625 161.90625 L 385.832031 162.1875 C 385.832031 162.277344 385.925781 162.277344 385.925781 162.371094 L 386.015625 162.554688 C 386.015625 162.648438 386.015625 162.738281 386.109375 162.738281 C 386.109375 162.832031 386.015625 162.925781 386.015625 163.019531 C 386.015625 163.109375 386.015625 163.109375 386.015625 163.203125 C 386.015625 163.296875 385.925781 163.480469 385.925781 163.570312 C 385.925781 163.570312 385.925781 163.667969 385.925781 163.667969 C 385.925781 163.667969 385.925781 163.667969 385.925781 163.757812 C 385.832031 163.851562 385.746094 164.039062 385.746094 164.128906 C 385.746094 164.128906 385.652344 164.21875 385.652344 164.21875 C 385.652344 164.21875 385.5625 164.3125 385.5625 164.3125 L 385.46875 164.3125 C 385.378906 164.40625 385.378906 164.40625 385.46875 164.3125 C 385.378906 164.40625 385.289062 164.40625 385.289062 164.5 L 385.199219 164.589844 L 384.742188 164.777344 C 384.652344 164.777344 384.652344 164.777344 384.5625 164.777344 L 384.195312 164.777344 C 384.109375 164.777344 384.015625 164.777344 384.015625 164.683594 L 383.832031 164.589844 C 383.652344 164.5 383.925781 164.589844 383.925781 164.589844 C 383.925781 164.589844 383.652344 164.40625 383.652344 164.40625 L 383.46875 164.3125 C 383.46875 164.3125 383.195312 164.039062 383.195312 164.039062 L 383.105469 163.941406 L 383.105469 163.757812 C 383.105469 163.757812 383.105469 163.851562 383.105469 163.851562 C 383.105469 163.851562 383.015625 163.570312 383.015625 163.480469 Z M 383.015625 163.019531 " fill-opacity="1" fill-rule="nonzero"/><path fill="#000000" d="M 396.660156 165.703125 C 397.207031 165.054688 397.476562 164.21875 397.570312 163.386719 C 397.570312 163.296875 397.570312 163.296875 397.570312 163.203125 C 397.570312 163.203125 397.570312 163.109375 397.570312 163.109375 C 397.570312 161.445312 396.566406 159.964844 395.019531 159.40625 C 393.566406 158.855469 391.835938 159.316406 390.839844 160.519531 C 389.472656 162.1875 389.65625 164.589844 391.203125 166.070312 C 392.839844 167.550781 395.203125 167.367188 396.660156 165.703125 Z M 392.199219 163.019531 C 392.199219 162.925781 392.199219 162.925781 392.199219 162.832031 C 392.199219 162.738281 392.292969 162.648438 392.292969 162.460938 L 392.382812 162.277344 L 392.472656 162.089844 C 392.566406 162 392.65625 161.90625 392.746094 161.816406 L 392.839844 161.816406 C 392.839844 161.816406 392.839844 161.816406 392.929688 161.816406 C 393.019531 161.722656 393.203125 161.722656 393.292969 161.628906 C 393.292969 161.628906 393.019531 161.722656 393.203125 161.628906 L 393.382812 161.539062 L 393.566406 161.539062 C 393.566406 161.539062 393.566406 161.539062 393.65625 161.539062 C 393.65625 161.539062 393.746094 161.539062 393.746094 161.539062 L 393.929688 161.539062 L 394.386719 161.628906 C 394.566406 161.722656 394.566406 161.722656 394.566406 161.722656 C 394.566406 161.722656 394.65625 161.722656 394.65625 161.816406 C 394.65625 161.816406 394.65625 161.816406 394.75 161.90625 L 395.019531 162.1875 C 395.019531 162.277344 395.113281 162.277344 395.113281 162.371094 L 395.203125 162.554688 C 395.292969 162.738281 395.292969 162.832031 395.292969 162.925781 C 395.292969 162.925781 395.292969 162.925781 395.292969 163.019531 C 395.292969 163.019531 395.292969 163.019531 395.292969 163.109375 C 395.292969 163.203125 395.292969 163.203125 395.292969 163.296875 C 395.292969 163.386719 395.203125 163.570312 395.203125 163.667969 C 395.203125 163.667969 395.203125 163.757812 395.203125 163.757812 C 395.203125 163.757812 395.203125 163.757812 395.203125 163.851562 L 395.019531 164.21875 C 395.019531 164.21875 394.929688 164.3125 394.929688 164.3125 L 394.839844 164.40625 C 394.75 164.5 394.75 164.5 394.839844 164.40625 C 394.75 164.5 394.65625 164.5 394.65625 164.589844 L 394.566406 164.683594 L 394.023438 164.777344 C 393.929688 164.777344 393.929688 164.777344 393.839844 164.777344 L 393.203125 164.777344 L 393.019531 164.683594 C 392.839844 164.589844 393.113281 164.683594 393.113281 164.683594 C 393.113281 164.683594 392.839844 164.5 392.839844 164.5 C 392.839844 164.5 392.746094 164.40625 392.65625 164.40625 C 392.65625 164.40625 392.382812 164.128906 392.382812 164.128906 L 392.292969 164.039062 L 392.382812 163.941406 L 392.382812 163.851562 C 392.382812 163.757812 392.292969 163.757812 392.382812 163.851562 C 392.382812 163.757812 392.292969 163.667969 392.292969 163.570312 C 392.292969 163.570312 392.292969 163.480469 392.292969 163.386719 C 392.199219 163.296875 392.199219 163.109375 392.199219 163.019531 Z M 392.199219 163.019531 " fill-opacity="1" fill-rule="nonzero"/><path fill="#000000" d="M 392.199219 163.019531 C 392.292969 162.738281 392.199219 162.925781 392.199219 163.019531 Z M 392.199219 163.019531 " fill-opacity="1" fill-rule="nonzero"/><path fill="#000000" d="M 406.027344 165.886719 C 406.664062 165.148438 406.9375 164.3125 406.9375 163.296875 C 406.9375 163.109375 406.9375 163.019531 406.9375 162.832031 C 406.664062 161.351562 405.753906 160.148438 404.386719 159.59375 C 402.933594 159.039062 401.203125 159.5 400.207031 160.707031 C 398.839844 162.371094 399.023438 164.777344 400.570312 166.257812 C 402.113281 167.738281 404.570312 167.460938 406.027344 165.886719 Z M 404.664062 163.019531 C 404.664062 163.019531 404.664062 163.109375 404.664062 163.019531 C 404.664062 163.109375 404.664062 163.109375 404.664062 163.109375 C 404.664062 163.109375 404.664062 163.109375 404.664062 163.019531 Z M 401.480469 163.019531 C 401.480469 163.019531 401.480469 162.925781 401.480469 162.832031 C 401.480469 162.738281 401.566406 162.554688 401.566406 162.460938 L 401.660156 162.277344 L 401.75 162.089844 C 401.84375 162 401.933594 161.90625 402.023438 161.816406 L 402.113281 161.816406 C 402.023438 161.90625 402.113281 161.816406 402.207031 161.816406 C 402.296875 161.722656 402.480469 161.722656 402.570312 161.628906 C 402.570312 161.628906 402.296875 161.722656 402.480469 161.628906 L 402.664062 161.539062 L 402.84375 161.539062 C 402.84375 161.539062 402.84375 161.539062 402.933594 161.539062 C 402.933594 161.539062 403.027344 161.539062 403.027344 161.539062 L 403.390625 161.539062 L 403.84375 161.628906 C 404.023438 161.722656 404.023438 161.722656 404.023438 161.722656 L 404.117188 161.816406 C 404.117188 161.816406 404.117188 161.816406 404.207031 161.90625 L 404.480469 162.1875 C 404.480469 162.277344 404.570312 162.277344 404.570312 162.371094 C 404.570312 162.460938 404.664062 162.460938 404.664062 162.554688 C 404.664062 162.648438 404.75 162.738281 404.75 162.832031 C 404.75 162.925781 404.664062 163.019531 404.664062 163.109375 C 404.664062 163.203125 404.664062 163.203125 404.664062 163.296875 C 404.664062 163.386719 404.570312 163.570312 404.570312 163.667969 C 404.570312 163.667969 404.570312 163.667969 404.570312 163.757812 C 404.480469 163.851562 404.386719 164.039062 404.386719 164.128906 C 404.386719 164.128906 404.300781 164.21875 404.300781 164.21875 C 404.300781 164.21875 404.207031 164.3125 404.207031 164.3125 C 404.117188 164.40625 404.117188 164.40625 404.207031 164.3125 C 404.117188 164.40625 404.023438 164.40625 404.023438 164.5 L 403.933594 164.589844 L 403.207031 164.777344 C 403.117188 164.777344 403.117188 164.777344 403.027344 164.777344 L 402.664062 164.777344 L 402.296875 164.589844 C 402.113281 164.589844 402.386719 164.589844 402.386719 164.589844 C 402.386719 164.589844 402.113281 164.40625 402.113281 164.40625 L 401.933594 164.3125 C 401.933594 164.3125 401.75 164.128906 401.660156 164.039062 L 401.566406 163.851562 L 401.660156 163.757812 C 401.660156 163.667969 401.566406 163.480469 401.566406 163.386719 L 401.566406 163.203125 C 401.480469 163.203125 401.480469 163.109375 401.480469 163.019531 Z M 401.480469 163.019531 " fill-opacity="1" fill-rule="nonzero"/><path fill="#000000" d="M 403.207031 164.777344 C 403.207031 164.683594 403.027344 164.777344 403.207031 164.777344 Z M 403.207031 164.777344 " fill-opacity="1" fill-rule="nonzero"/><path fill="#000000" d="M 401.480469 163.019531 C 401.566406 162.738281 401.480469 162.925781 401.480469 163.019531 Z M 401.480469 163.019531 " fill-opacity="1" fill-rule="nonzero"/><path fill="#000000" d="M 443.773438 191.246094 C 442.863281 190.132812 441.226562 191.796875 442.136719 192.910156 L 450.957031 203.183594 L 442.136719 213.453125 C 441.132812 214.5625 442.769531 216.230469 443.773438 215.121094 L 453.320312 204.015625 C 453.777344 203.554688 453.777344 202.8125 453.320312 202.351562 Z M 443.773438 191.246094 " fill-opacity="1" fill-rule="nonzero"/><path fill="#000000" d="M 417.03125 191.246094 L 407.570312 202.351562 C 407.117188 202.8125 407.117188 203.554688 407.570312 204.015625 L 417.03125 215.121094 C 418.03125 216.230469 419.578125 214.5625 418.667969 213.453125 L 409.847656 203.183594 L 418.667969 192.910156 C 419.671875 191.796875 418.03125 190.132812 417.03125 191.246094 Z M 417.03125 191.246094 " fill-opacity="1" fill-rule="nonzero"/><path fill="#000000" d="M 434.859375 191.429688 L 425.398438 210.863281 L 424.035156 213.640625 C 423.398438 214.933594 425.308594 216.140625 426.039062 214.84375 L 435.585938 195.410156 L 436.949219 192.628906 C 437.40625 191.335938 435.496094 190.132812 434.859375 191.429688 Z M 434.859375 191.429688 " fill-opacity="1" fill-rule="nonzero"/><path fill="#333333" d="M 674.46875 362.378906 L 738.324219 362.378906 L 738.324219 393.792969 L 674.46875 393.792969 Z M 674.46875 362.378906 " fill-opacity="1" fill-rule="nonzero"/><path fill="#000000" d="M 730.597656 396.960938 L 726.734375 396.960938 L 726.734375 390.59375 L 730.597656 390.59375 Z M 722.871094 396.960938 L 719.003906 396.960938 L 719.003906 390.59375 L 722.871094 390.59375 Z M 715.140625 396.960938 L 711.277344 396.960938 L 711.277344 390.59375 L 715.140625 390.59375 Z M 707.414062 396.960938 L 703.546875 396.960938 L 703.546875 390.59375 L 707.414062 390.59375 Z M 699.71875 396.960938 L 695.851562 396.960938 L 695.851562 390.59375 L 699.71875 390.59375 Z M 691.988281 396.960938 L 688.125 396.960938 L 688.125 390.59375 L 691.988281 390.59375 Z M 684.261719 396.960938 L 680.394531 396.960938 L 680.394531 390.59375 L 684.261719 390.59375 Z M 677.664062 388.21875 L 671.238281 388.21875 L 671.238281 384.390625 L 677.664062 384.390625 Z M 741.523438 384.191406 L 735.09375 384.191406 L 735.09375 380.363281 L 741.523438 380.363281 Z M 677.664062 380.558594 L 671.238281 380.558594 L 671.238281 376.730469 L 677.664062 376.730469 Z M 741.523438 376.535156 L 735.09375 376.535156 L 735.09375 372.707031 L 741.523438 372.707031 Z M 677.664062 372.902344 L 671.238281 372.902344 L 671.238281 369.078125 L 677.664062 369.078125 Z M 729.464844 365.546875 L 725.601562 365.546875 L 725.601562 359.175781 L 729.464844 359.175781 Z M 721.734375 365.546875 L 717.871094 365.546875 L 717.871094 359.175781 L 721.734375 359.175781 Z M 714.007812 365.546875 L 710.144531 365.546875 L 710.144531 359.175781 L 714.007812 359.175781 Z M 706.28125 365.546875 L 702.417969 365.546875 L 702.417969 359.175781 L 706.28125 359.175781 Z M 698.582031 365.546875 L 694.71875 365.546875 L 694.71875 359.175781 L 698.582031 359.175781 Z M 690.859375 365.546875 L 686.996094 365.546875 L 686.996094 359.175781 L 690.859375 359.175781 Z M 683.128906 365.546875 L 679.265625 365.546875 L 679.265625 359.175781 L 683.128906 359.175781 Z M 683.128906 365.546875 " fill-opacity="1" fill-rule="nonzero"/><path fill="#000000" d="M 728.132812 340.136719 L 729.132812 340.136719 L 729.132812 359.277344 L 728.132812 359.277344 Z M 728.132812 340.136719 " fill-opacity="1" fill-rule="nonzero"/><path fill="#000000" d="M 728.132812 340.136719 L 748.449219 340.136719 L 748.449219 341.457031 L 728.132812 341.457031 Z M 728.132812 340.136719 " fill-opacity="1" fill-rule="nonzero"/><path fill="#000000" d="M 748.652344 342.878906 C 750.984375 342.878906 750.984375 339.3125 748.652344 339.3125 C 746.320312 339.3125 746.320312 342.878906 748.652344 342.878906 Z M 748.652344 342.878906 " fill-opacity="1" fill-rule="nonzero"/><path fill="#000000" d="M 719.472656 327.269531 L 720.804688 327.269531 L 720.804688 359.277344 L 719.472656 359.277344 Z M 719.472656 327.269531 " fill-opacity="1" fill-rule="nonzero"/><path fill="#000000" d="M 719.472656 327.269531 L 735.128906 327.269531 L 735.128906 328.257812 L 719.472656 328.257812 Z M 719.472656 327.269531 " fill-opacity="1" fill-rule="nonzero"/><path fill="#000000" d="M 734.128906 317.699219 L 735.128906 317.699219 L 735.128906 328.257812 L 734.128906 328.257812 Z M 734.128906 317.699219 " fill-opacity="1" fill-rule="nonzero"/><path fill="#000000" d="M 734.492188 319.546875 C 736.828125 319.546875 736.828125 315.984375 734.492188 315.984375 C 732.164062 315.984375 732.164062 319.546875 734.492188 319.546875 Z M 734.492188 319.546875 " fill-opacity="1" fill-rule="nonzero"/><path fill="#000000" d="M 711.144531 316.378906 L 712.476562 316.378906 L 712.476562 359.277344 L 711.144531 359.277344 Z M 711.144531 316.378906 " fill-opacity="1" fill-rule="nonzero"/><path fill="#000000" d="M 704.148438 335.519531 L 705.148438 335.519531 L 705.148438 359.277344 L 704.148438 359.277344 Z M 704.148438 335.519531 " fill-opacity="1" fill-rule="nonzero"/><path fill="#000000" d="M 695.820312 345.089844 L 696.820312 345.089844 L 696.820312 359.277344 L 695.820312 359.277344 Z M 695.820312 345.089844 " fill-opacity="1" fill-rule="nonzero"/><path fill="#000000" d="M 686.160156 345.089844 L 695.820312 345.089844 L 695.820312 346.078125 L 686.160156 346.078125 Z M 686.160156 345.089844 " fill-opacity="1" fill-rule="nonzero"/><path fill="#000000" d="M 684.828125 328.257812 L 686.160156 328.257812 L 686.160156 346.078125 L 684.828125 346.078125 Z M 684.828125 328.257812 " fill-opacity="1" fill-rule="nonzero"/><path fill="#000000" d="M 688.492188 351.027344 L 689.824219 351.027344 L 689.824219 359.277344 L 688.492188 359.277344 Z M 688.492188 351.027344 " fill-opacity="1" fill-rule="nonzero"/><path fill="#000000" d="M 676.5 351.027344 L 688.492188 351.027344 L 688.492188 352.015625 L 676.5 352.015625 Z M 676.5 351.027344 " fill-opacity="1" fill-rule="nonzero"/><path fill="#000000" d="M 681.164062 355.648438 L 682.496094 355.648438 L 682.496094 359.277344 L 681.164062 359.277344 Z M 681.164062 355.648438 " fill-opacity="1" fill-rule="nonzero"/><path fill="#000000" d="M 659.84375 355.648438 L 681.164062 355.648438 L 681.164062 356.964844 L 659.84375 356.964844 Z M 659.84375 355.648438 " fill-opacity="1" fill-rule="nonzero"/><path fill="#000000" d="M 659.644531 358.714844 C 661.976562 358.714844 661.976562 355.152344 659.644531 355.152344 C 657.347656 355.152344 657.347656 358.714844 659.644531 358.714844 Z M 659.644531 358.714844 " fill-opacity="1" fill-rule="nonzero"/><path fill="#000000" d="M 675.832031 353.765625 C 678.164062 353.765625 678.164062 350.203125 675.832031 350.203125 C 673.503906 350.203125 673.503906 353.765625 675.832031 353.765625 Z M 675.832031 353.765625 " fill-opacity="1" fill-rule="nonzero"/><path fill="#000000" d="M 684.992188 330.632812 C 687.328125 330.632812 687.328125 327.070312 684.992188 327.070312 C 682.664062 327.070312 682.695312 330.632812 684.992188 330.632812 Z M 684.992188 330.632812 " fill-opacity="1" fill-rule="nonzero"/><path fill="#000000" d="M 703.949219 337.5625 C 706.28125 337.5625 706.28125 334 703.949219 334 C 701.648438 334 701.648438 337.5625 703.949219 337.5625 Z M 703.949219 337.5625 " fill-opacity="1" fill-rule="nonzero"/><g clip-path="url(#8a2c95f8ed)"><path fill="#000000" d="M 711.339844 317.796875 C 713.675781 317.796875 713.675781 314.234375 711.339844 314.234375 C 709.011719 314.234375 709.011719 317.796875 711.339844 317.796875 Z M 711.339844 317.796875 " fill-opacity="1" fill-rule="nonzero"/></g><path fill="#000000" d="M 741.125 373.46875 L 759.113281 373.46875 L 759.113281 374.785156 L 741.125 374.785156 Z M 741.125 373.46875 " fill-opacity="1" fill-rule="nonzero"/><path fill="#000000" d="M 741.125 381.71875 L 755.445312 381.71875 L 755.445312 383.035156 L 741.125 383.035156 Z M 741.125 381.71875 " fill-opacity="1" fill-rule="nonzero"/><path fill="#000000" d="M 754.445312 383.035156 L 755.445312 383.035156 L 755.445312 399.535156 L 754.445312 399.535156 Z M 754.445312 383.035156 " fill-opacity="1" fill-rule="nonzero"/><path fill="#000000" d="M 759.042969 376.105469 C 761.378906 376.105469 761.378906 372.539062 759.042969 372.539062 C 756.714844 372.539062 756.714844 376.105469 759.042969 376.105469 Z M 759.042969 376.105469 " fill-opacity="1" fill-rule="nonzero"/><path fill="#000000" d="M 755.046875 401.613281 C 757.378906 401.613281 757.378906 398.050781 755.046875 398.050781 C 752.714844 398.050781 752.714844 401.613281 755.046875 401.613281 Z M 755.046875 401.613281 " fill-opacity="1" fill-rule="nonzero"/><path fill="#000000" d="M 728.132812 397.226562 L 729.132812 397.226562 L 729.132812 417.355469 L 728.132812 417.355469 Z M 728.132812 397.226562 " fill-opacity="1" fill-rule="nonzero"/><path fill="#000000" d="M 728.132812 417.355469 L 748.449219 417.355469 L 748.449219 418.34375 L 728.132812 418.34375 Z M 728.132812 417.355469 " fill-opacity="1" fill-rule="nonzero"/><path fill="#000000" d="M 720.804688 397.226562 L 722.136719 397.226562 L 722.136719 425.605469 L 720.804688 425.605469 Z M 720.804688 397.226562 " fill-opacity="1" fill-rule="nonzero"/><path fill="#000000" d="M 720.804688 425.605469 L 740.121094 425.605469 L 740.121094 426.925781 L 720.804688 426.925781 Z M 720.804688 425.605469 " fill-opacity="1" fill-rule="nonzero"/><path fill="#000000" d="M 712.476562 397.226562 L 713.476562 397.226562 L 713.476562 425.605469 L 712.476562 425.605469 Z M 712.476562 397.226562 " fill-opacity="1" fill-rule="nonzero"/><path fill="#000000" d="M 705.214844 437.484375 L 690.824219 437.484375 L 690.824219 436.164062 L 704.714844 436.164062 L 705.148438 435.933594 L 705.148438 395.90625 L 706.480469 395.90625 L 706.480469 436.429688 Z M 705.214844 437.484375 " fill-opacity="1" fill-rule="nonzero"/><path fill="#000000" d="M 696.820312 395.90625 L 698.152344 395.90625 L 698.152344 427.914062 L 696.820312 427.914062 Z M 696.820312 395.90625 " fill-opacity="1" fill-rule="nonzero"/><path fill="#000000" d="M 688.425781 433.855469 L 676.5 433.855469 L 676.5 432.867188 L 687.925781 432.867188 L 688.492188 432.402344 L 688.492188 394.914062 L 689.824219 394.914062 L 689.824219 432.867188 Z M 688.425781 433.855469 " fill-opacity="1" fill-rule="nonzero"/><path fill="#000000" d="M 681.261719 413.722656 L 666.839844 413.722656 L 666.839844 412.734375 L 680.761719 412.734375 L 681.164062 412.238281 L 681.164062 394.914062 L 682.496094 394.914062 L 682.496094 412.703125 Z M 681.261719 413.722656 " fill-opacity="1" fill-rule="nonzero"/><path fill="#000000" d="M 748.253906 419.796875 C 750.585938 419.796875 750.585938 416.234375 748.253906 416.234375 C 745.917969 416.234375 745.917969 419.796875 748.253906 419.796875 Z M 748.253906 419.796875 " fill-opacity="1" fill-rule="nonzero"/><path fill="#000000" d="M 739.65625 428.277344 C 741.988281 428.277344 741.988281 424.714844 739.65625 424.714844 C 737.328125 424.714844 737.359375 428.277344 739.65625 428.277344 Z M 739.65625 428.277344 " fill-opacity="1" fill-rule="nonzero"/><path fill="#000000" d="M 712.542969 427.683594 C 714.875 427.683594 714.875 424.121094 712.542969 424.121094 C 710.210938 424.121094 710.210938 427.683594 712.542969 427.683594 Z M 712.542969 427.683594 " fill-opacity="1" fill-rule="nonzero"/><path fill="#000000" d="M 696.953125 430.257812 C 699.285156 430.257812 699.285156 426.695312 696.953125 426.695312 C 694.65625 426.695312 694.65625 430.257812 696.953125 430.257812 Z M 696.953125 430.257812 " fill-opacity="1" fill-rule="nonzero"/><g clip-path="url(#2ce3826c71)"><path fill="#000000" d="M 690.589844 439.164062 C 692.921875 439.164062 692.921875 435.601562 690.589844 435.601562 C 688.257812 435.601562 688.257812 439.164062 690.589844 439.164062 Z M 690.589844 439.164062 " fill-opacity="1" fill-rule="nonzero"/></g><path fill="#000000" d="M 676 435.207031 C 678.332031 435.207031 678.332031 431.644531 676 431.644531 C 673.703125 431.644531 673.703125 435.207031 676 435.207031 Z M 676 435.207031 " fill-opacity="1" fill-rule="nonzero"/><path fill="#000000" d="M 666.238281 415.242188 C 668.574219 415.242188 668.574219 411.679688 666.238281 411.679688 C 663.90625 411.679688 663.90625 415.242188 666.238281 415.242188 Z M 666.238281 415.242188 " fill-opacity="1" fill-rule="nonzero"/><path fill="#000000" d="M 648.851562 369.835938 L 672.835938 369.835938 L 672.835938 371.15625 L 648.851562 371.15625 Z M 648.851562 369.835938 " fill-opacity="1" fill-rule="nonzero"/><path fill="#000000" d="M 639.523438 378.085938 L 674.167969 378.085938 L 674.167969 379.40625 L 639.523438 379.40625 Z M 639.523438 378.085938 " fill-opacity="1" fill-rule="nonzero"/><path fill="#000000" d="M 638.191406 357.957031 L 639.523438 357.957031 L 639.523438 379.40625 L 638.191406 379.40625 Z M 638.191406 357.957031 " fill-opacity="1" fill-rule="nonzero"/><path fill="#000000" d="M 651.515625 401.84375 L 650.183594 401.84375 L 650.183594 386.140625 L 650.816406 385.34375 L 674.167969 385.34375 L 674.167969 386.335938 L 651.316406 386.335938 L 651.515625 386.632812 Z M 651.515625 401.84375 " fill-opacity="1" fill-rule="nonzero"/><path fill="#000000" d="M 638.691406 360.101562 C 641.023438 360.101562 641.023438 356.539062 638.691406 356.539062 C 636.394531 356.539062 636.394531 360.101562 638.691406 360.101562 Z M 638.691406 360.101562 " fill-opacity="1" fill-rule="nonzero"/><path fill="#000000" d="M 649.082031 372.34375 C 651.417969 372.34375 651.417969 368.78125 649.082031 368.78125 C 646.753906 368.78125 646.753906 372.34375 649.082031 372.34375 Z M 649.082031 372.34375 " fill-opacity="1" fill-rule="nonzero"/><path fill="#000000" d="M 650.285156 404.15625 C 652.613281 404.15625 652.613281 400.589844 650.285156 400.589844 C 647.953125 400.625 647.953125 404.15625 650.285156 404.15625 Z M 650.285156 404.15625 " fill-opacity="1" fill-rule="nonzero"/><path fill="#000000" d="M 148.226562 410.539062 L 148.226562 407.894531 L 145.402344 407.894531 L 145.402344 410.539062 Z M 150.753906 406.574219 L 150.753906 411.859375 C 150.753906 412.597656 150.15625 413.179688 149.414062 413.179688 L 144.210938 413.179688 C 143.46875 413.179688 143.023438 412.597656 143.023438 411.859375 L 143.023438 406.574219 C 143.023438 405.988281 143.46875 405.398438 144.210938 405.398438 L 149.414062 405.398438 C 150.160156 405.253906 150.753906 405.988281 150.753906 406.574219 Z M 150.753906 406.574219 " fill-opacity="1" fill-rule="nonzero"/><path fill="#000000" d="M 133.957031 405.253906 L 139.160156 405.253906 C 139.90625 405.253906 140.5 405.839844 140.5 406.429688 L 140.5 411.714844 C 140.5 412.445312 139.90625 413.035156 139.160156 413.035156 L 133.957031 413.035156 C 133.363281 413.035156 132.769531 412.445312 132.769531 411.714844 L 132.769531 406.429688 C 132.769531 405.988281 133.363281 405.253906 133.957031 405.253906 Z M 138.121094 407.894531 L 135.445312 407.894531 L 135.445312 410.539062 L 138.121094 410.539062 Z M 138.121094 407.894531 " fill-opacity="1" fill-rule="nonzero"/><path fill="#000000" d="M 135.742188 484.6875 C 136.042969 484.6875 136.335938 484.539062 136.636719 484.394531 C 136.933594 484.101562 137.082031 483.804688 137.230469 483.21875 C 137.378906 482.484375 137.527344 481.308594 137.527344 479.402344 C 137.527344 477.785156 137.378906 476.609375 137.230469 475.730469 C 137.082031 475.140625 136.933594 474.699219 136.636719 474.554688 C 136.335938 474.261719 136.042969 474.113281 135.742188 474.113281 C 135.445312 474.113281 135.148438 474.261719 134.851562 474.554688 C 134.554688 474.699219 134.402344 475.140625 134.257812 475.582031 C 133.957031 476.316406 133.957031 477.636719 133.957031 479.402344 C 133.957031 481.164062 133.957031 482.335938 134.109375 483.074219 C 134.402344 483.804688 134.554688 484.101562 134.851562 484.394531 C 135.148438 484.539062 135.296875 484.6875 135.742188 484.6875 Z M 135.742188 471.914062 C 137.082031 471.914062 138.269531 472.355469 139.015625 473.378906 C 140.054688 474.558594 140.5 476.609375 140.5 479.402344 C 140.5 482.1875 140.050781 484.242188 139.015625 485.570312 C 138.269531 486.449219 137.082031 487.035156 135.742188 487.035156 C 134.257812 487.035156 133.070312 486.449219 132.324219 485.417969 C 131.433594 484.242188 130.988281 482.335938 130.988281 479.402344 C 130.988281 476.464844 131.433594 474.558594 132.324219 473.378906 C 133.070312 472.355469 134.257812 471.914062 135.742188 471.914062 Z M 135.742188 471.914062 " fill-opacity="1" fill-rule="nonzero"/><path fill="#000000" d="M 135.742188 441.960938 C 136.042969 441.960938 136.335938 441.960938 136.636719 441.664062 C 136.933594 441.519531 137.082031 441.078125 137.230469 440.492188 C 137.378906 439.757812 137.527344 438.585938 137.527344 436.671875 C 137.527344 435.058594 137.378906 433.882812 137.230469 433 C 137.082031 432.417969 136.933594 431.976562 136.636719 431.824219 C 136.335938 431.535156 136.042969 431.386719 135.742188 431.386719 C 135.445312 431.386719 135.148438 431.535156 134.851562 431.824219 C 134.554688 431.976562 134.402344 432.417969 134.257812 433 C 133.957031 433.59375 133.957031 434.914062 133.957031 436.671875 C 133.957031 438.433594 133.957031 439.609375 134.109375 440.34375 C 134.402344 441.078125 134.554688 441.519531 134.851562 441.664062 C 135.148438 441.960938 135.296875 441.960938 135.742188 441.960938 Z M 135.742188 429.1875 C 137.082031 429.1875 138.269531 429.625 139.015625 430.65625 C 140.054688 431.828125 140.5 434.03125 140.5 436.675781 C 140.5 439.464844 140.050781 441.664062 139.015625 442.839844 C 138.269531 443.871094 137.082031 444.3125 135.742188 444.3125 C 134.257812 444.3125 133.070312 443.722656 132.324219 442.695312 C 131.433594 441.519531 130.988281 439.609375 130.988281 436.675781 C 130.988281 434.03125 131.433594 431.828125 132.324219 430.65625 C 133.070312 429.625 134.257812 429.1875 135.742188 429.1875 Z M 135.742188 429.1875 " fill-opacity="1" fill-rule="nonzero"/><path fill="#000000" d="M 135.742188 450.625 C 137.082031 450.625 138.269531 451.0625 139.015625 452.089844 C 140.054688 453.265625 140.5 455.472656 140.5 458.113281 C 140.5 460.902344 140.050781 463.101562 139.015625 464.28125 C 138.269531 465.304688 137.082031 465.746094 135.742188 465.746094 C 134.257812 465.746094 133.070312 465.160156 132.324219 464.136719 C 131.433594 462.960938 130.988281 460.902344 130.988281 458.113281 C 130.988281 455.320312 131.433594 453.269531 132.324219 452.089844 C 133.070312 451.0625 134.257812 450.625 135.742188 450.625 Z M 135.742188 463.398438 C 136.042969 463.398438 136.335938 463.25 136.636719 463.101562 C 136.933594 462.957031 137.082031 462.515625 137.230469 461.925781 C 137.378906 461.195312 137.527344 460.019531 137.527344 458.109375 C 137.527344 456.496094 137.378906 455.316406 137.230469 454.4375 C 137.082031 453.851562 136.933594 453.414062 136.636719 453.261719 C 136.335938 452.972656 136.042969 452.820312 135.742188 452.820312 C 135.445312 452.820312 135.148438 452.972656 134.851562 453.261719 C 134.554688 453.414062 134.402344 453.851562 134.257812 454.292969 C 133.957031 455.027344 133.957031 456.347656 133.957031 458.109375 C 133.957031 459.871094 133.957031 461.046875 134.109375 461.78125 C 134.402344 462.515625 134.554688 462.957031 134.851562 463.101562 C 135.148438 463.25 135.296875 463.398438 135.742188 463.398438 Z M 135.742188 463.398438 " fill-opacity="1" fill-rule="nonzero"/><path fill="#000000" d="M 128.015625 410.539062 L 128.015625 407.894531 L 125.34375 407.894531 L 125.34375 410.539062 Z M 129.207031 413.179688 L 124.003906 413.179688 C 123.410156 413.179688 122.816406 412.597656 122.816406 411.859375 L 122.816406 406.574219 C 122.816406 405.988281 123.410156 405.398438 124.003906 405.398438 L 129.207031 405.398438 C 129.949219 405.398438 130.542969 405.988281 130.542969 406.574219 L 130.542969 411.859375 C 130.539062 412.597656 129.949219 413.179688 129.207031 413.179688 Z M 129.207031 413.179688 " fill-opacity="1" fill-rule="nonzero"/><path fill="#000000" d="M 123.558594 433.445312 C 122.667969 434.324219 121.328125 435.058594 119.992188 435.5 L 119.992188 433 C 120.734375 432.710938 121.476562 432.269531 122.371094 431.683594 C 123.261719 430.945312 123.855469 430.214844 124.152344 429.332031 L 126.382812 429.332031 L 126.382812 444.160156 L 123.558594 444.160156 Z M 123.558594 433.445312 " fill-opacity="1" fill-rule="nonzero"/><path fill="#000000" d="M 119.992188 456.789062 L 119.992188 454.292969 C 120.734375 454 121.476562 453.558594 122.371094 452.824219 C 123.261719 452.238281 123.855469 451.503906 124.152344 450.625 L 126.382812 450.625 L 126.382812 465.457031 L 123.558594 465.457031 L 123.558594 454.734375 C 122.667969 455.613281 121.328125 456.496094 119.992188 456.789062 Z M 119.992188 456.789062 " fill-opacity="1" fill-rule="nonzero"/><path fill="#000000" d="M 119.992188 478.226562 L 119.992188 475.730469 C 120.734375 475.4375 121.476562 474.996094 122.371094 474.261719 C 123.261719 473.675781 123.855469 472.941406 124.152344 472.0625 L 126.382812 472.0625 L 126.382812 486.890625 L 123.558594 486.890625 L 123.558594 476.023438 C 122.667969 477.050781 121.328125 477.785156 119.992188 478.226562 Z M 119.992188 478.226562 " fill-opacity="1" fill-rule="nonzero"/><path fill="#000000" d="M 115.089844 436.671875 C 115.089844 435.058594 114.9375 433.882812 114.792969 433 C 114.644531 432.417969 114.492188 431.976562 114.199219 431.824219 C 113.898438 431.535156 113.605469 431.386719 113.304688 431.386719 C 113.007812 431.386719 112.710938 431.535156 112.414062 431.824219 C 112.117188 431.976562 111.964844 432.417969 111.816406 433 C 111.671875 433.59375 111.519531 434.914062 111.519531 436.671875 C 111.519531 438.433594 111.519531 439.609375 111.816406 440.34375 C 111.964844 441.078125 112.117188 441.519531 112.414062 441.664062 C 112.710938 441.960938 113.007812 441.960938 113.304688 441.960938 C 113.605469 441.960938 113.898438 441.960938 114.199219 441.664062 C 114.492188 441.519531 114.644531 441.078125 114.792969 440.492188 C 114.9375 439.757812 115.089844 438.585938 115.089844 436.671875 Z M 116.574219 430.65625 C 117.617188 431.828125 118.058594 434.03125 118.058594 436.675781 C 118.058594 439.464844 117.613281 441.664062 116.574219 442.839844 C 115.832031 443.871094 114.792969 444.3125 113.304688 444.3125 C 111.816406 444.3125 110.78125 443.722656 109.886719 442.695312 C 108.996094 441.519531 108.546875 439.609375 108.546875 436.675781 C 108.546875 434.03125 108.996094 431.828125 110.035156 430.65625 C 110.777344 429.625 111.816406 429.1875 113.304688 429.1875 C 114.789062 429.1875 115.832031 429.625 116.574219 430.65625 Z M 116.574219 430.65625 " fill-opacity="1" fill-rule="nonzero"/><path fill="#000000" d="M 115.089844 458.109375 C 115.089844 456.496094 114.9375 455.320312 114.792969 454.441406 C 114.644531 453.851562 114.492188 453.414062 114.199219 453.265625 C 113.898438 452.972656 113.605469 452.820312 113.304688 452.820312 C 113.007812 452.820312 112.710938 452.972656 112.414062 453.265625 C 112.117188 453.414062 111.964844 453.851562 111.816406 454.292969 C 111.671875 455.027344 111.519531 456.347656 111.519531 458.109375 C 111.519531 459.871094 111.519531 461.046875 111.816406 461.78125 C 111.964844 462.515625 112.117188 462.957031 112.414062 463.101562 C 112.710938 463.25 113.007812 463.398438 113.304688 463.398438 C 113.605469 463.398438 113.898438 463.25 114.199219 463.101562 C 114.492188 462.957031 114.644531 462.515625 114.792969 461.925781 C 114.9375 461.046875 115.089844 459.871094 115.089844 458.109375 Z M 116.574219 452.089844 C 117.617188 453.265625 118.058594 455.46875 118.058594 458.109375 C 118.058594 460.902344 117.613281 463.101562 116.574219 464.277344 C 115.832031 465.304688 114.792969 465.746094 113.304688 465.746094 C 111.816406 465.746094 110.78125 465.160156 109.886719 464.132812 C 108.996094 462.957031 108.546875 460.902344 108.546875 458.113281 C 108.546875 455.320312 108.996094 453.265625 110.035156 452.089844 C 110.777344 451.0625 111.816406 450.625 113.304688 450.625 C 114.789062 450.625 115.832031 451.0625 116.574219 452.089844 Z M 116.574219 452.089844 " fill-opacity="1" fill-rule="nonzero"/><path fill="#000000" d="M 115.089844 479.402344 C 115.089844 477.785156 114.9375 476.613281 114.792969 475.730469 C 114.644531 475.140625 114.492188 474.699219 114.199219 474.558594 C 113.898438 474.261719 113.605469 474.113281 113.304688 474.113281 C 113.007812 474.113281 112.710938 474.261719 112.414062 474.558594 C 112.117188 474.699219 111.964844 475.140625 111.816406 475.582031 C 111.671875 476.316406 111.519531 477.636719 111.519531 479.402344 C 111.519531 481.164062 111.519531 482.339844 111.816406 483.074219 C 111.964844 483.804688 112.117188 484.101562 112.414062 484.394531 C 112.710938 484.542969 113.007812 484.6875 113.304688 484.6875 C 113.605469 484.6875 113.898438 484.542969 114.199219 484.394531 C 114.492188 484.101562 114.644531 483.804688 114.792969 483.21875 C 114.9375 482.484375 115.089844 481.164062 115.089844 479.402344 Z M 116.574219 473.378906 C 117.617188 474.558594 118.058594 476.613281 118.058594 479.402344 C 118.058594 482.1875 117.613281 484.246094 116.574219 485.570312 C 115.832031 486.453125 114.792969 487.035156 113.304688 487.035156 C 111.816406 487.035156 110.78125 486.449219 109.886719 485.421875 C 108.996094 484.246094 108.546875 482.339844 108.546875 479.402344 C 108.546875 476.613281 108.996094 474.558594 110.035156 473.378906 C 110.777344 472.355469 111.816406 471.914062 113.304688 471.914062 C 114.789062 471.914062 115.832031 472.355469 116.574219 473.378906 Z M 116.574219 473.378906 " fill-opacity="1" fill-rule="nonzero"/><path fill="#000000" d="M 104.238281 429.1875 L 104.238281 444.015625 L 101.417969 444.015625 L 101.417969 433.296875 C 100.375 434.179688 99.1875 434.914062 97.703125 435.355469 L 97.703125 432.859375 C 98.445312 432.5625 99.1875 432.121094 100.082031 431.535156 C 100.972656 430.800781 101.566406 430.066406 101.863281 429.1875 Z M 104.238281 429.1875 " fill-opacity="1" fill-rule="nonzero"/><path fill="#000000" d="M 104.238281 450.625 L 104.238281 465.453125 L 101.417969 465.453125 L 101.417969 454.734375 C 100.375 455.613281 99.1875 456.347656 97.703125 456.789062 L 97.703125 454.292969 C 98.445312 454 99.1875 453.558594 100.082031 452.824219 C 100.972656 452.238281 101.566406 451.503906 101.863281 450.625 Z M 104.238281 450.625 " fill-opacity="1" fill-rule="nonzero"/><path fill="#000000" d="M 104.238281 471.914062 L 104.238281 486.742188 L 101.417969 486.742188 L 101.417969 475.875 C 100.375 476.90625 99.1875 477.636719 97.703125 478.078125 L 97.703125 475.582031 C 98.445312 475.292969 99.1875 474.851562 100.082031 474.117188 C 100.972656 473.527344 101.566406 472.796875 101.863281 471.914062 Z M 104.238281 471.914062 " fill-opacity="1" fill-rule="nonzero"/><path fill="#000000" d="M 92.652344 436.671875 C 92.652344 435.058594 92.652344 433.882812 92.351562 433 C 92.207031 432.417969 92.054688 431.976562 91.757812 431.824219 C 91.460938 431.535156 91.164062 431.386719 90.867188 431.386719 C 90.566406 431.386719 90.273438 431.535156 89.972656 431.824219 C 89.679688 431.976562 89.527344 432.417969 89.382812 433 C 89.234375 433.59375 89.082031 434.914062 89.082031 436.671875 C 89.082031 438.433594 89.234375 439.609375 89.382812 440.34375 C 89.527344 441.078125 89.679688 441.519531 89.972656 441.664062 C 90.273438 441.960938 90.566406 441.960938 90.867188 441.960938 C 91.164062 441.960938 91.460938 441.960938 91.757812 441.664062 C 92.054688 441.519531 92.207031 441.078125 92.351562 440.492188 C 92.652344 439.757812 92.652344 438.585938 92.652344 436.671875 Z M 87.304688 442.695312 C 86.410156 441.519531 85.964844 439.609375 85.964844 436.671875 C 85.964844 434.03125 86.410156 431.828125 87.449219 430.65625 C 88.191406 429.625 89.382812 429.183594 90.71875 429.183594 C 92.203125 429.183594 93.246094 429.625 94.136719 430.65625 C 95.027344 431.828125 95.472656 434.03125 95.472656 436.671875 C 95.472656 439.464844 95.027344 441.664062 94.136719 442.839844 C 93.246094 443.871094 92.207031 444.308594 90.71875 444.308594 C 89.382812 444.457031 88.191406 443.871094 87.304688 442.695312 Z M 87.304688 442.695312 " fill-opacity="1" fill-rule="nonzero"/><path fill="#000000" d="M 92.652344 458.109375 C 92.652344 456.496094 92.652344 455.320312 92.351562 454.441406 C 92.207031 453.851562 92.054688 453.414062 91.757812 453.265625 C 91.460938 452.972656 91.164062 452.820312 90.867188 452.820312 C 90.566406 452.820312 90.273438 452.972656 89.972656 453.265625 C 89.679688 453.414062 89.527344 453.851562 89.382812 454.292969 C 89.234375 455.027344 89.082031 456.347656 89.082031 458.109375 C 89.082031 459.871094 89.234375 461.046875 89.382812 461.78125 C 89.527344 462.515625 89.679688 462.957031 89.972656 463.101562 C 90.273438 463.25 90.566406 463.398438 90.867188 463.398438 C 91.164062 463.398438 91.460938 463.25 91.757812 463.101562 C 92.054688 462.957031 92.207031 462.515625 92.351562 461.925781 C 92.652344 461.046875 92.652344 459.871094 92.652344 458.109375 Z M 87.304688 464.132812 C 86.410156 462.957031 85.964844 460.902344 85.964844 458.109375 C 85.964844 455.320312 86.410156 453.265625 87.449219 452.089844 C 88.191406 451.0625 89.382812 450.621094 90.71875 450.621094 C 92.203125 450.621094 93.246094 451.0625 94.136719 452.089844 C 95.027344 453.265625 95.472656 455.46875 95.472656 458.109375 C 95.472656 460.902344 95.027344 463.101562 94.136719 464.277344 C 93.246094 465.304688 92.207031 465.746094 90.71875 465.746094 C 89.382812 465.746094 88.191406 465.160156 87.304688 464.132812 Z M 87.304688 464.132812 " fill-opacity="1" fill-rule="nonzero"/><path fill="#000000" d="M 92.351562 483.21875 C 92.652344 482.484375 92.652344 481.308594 92.652344 479.402344 C 92.652344 477.785156 92.652344 476.609375 92.351562 475.730469 C 92.207031 475.140625 92.054688 474.699219 91.757812 474.554688 C 91.460938 474.261719 91.164062 474.113281 90.867188 474.113281 C 90.566406 474.113281 90.273438 474.261719 89.972656 474.554688 C 89.679688 474.699219 89.527344 475.140625 89.382812 475.582031 C 89.234375 476.316406 89.082031 477.636719 89.082031 479.402344 C 89.082031 481.164062 89.234375 482.335938 89.382812 483.074219 C 89.527344 483.804688 89.679688 484.101562 89.972656 484.394531 C 90.273438 484.539062 90.566406 484.6875 90.867188 484.6875 C 91.164062 484.6875 91.460938 484.539062 91.757812 484.394531 C 92.054688 484.101562 92.207031 483.804688 92.351562 483.21875 Z M 87.304688 485.421875 C 86.410156 484.246094 85.964844 482.339844 85.964844 479.402344 C 85.964844 476.613281 86.410156 474.558594 87.449219 473.378906 C 88.191406 472.355469 89.382812 471.914062 90.722656 471.914062 C 92.207031 471.914062 93.246094 472.355469 94.140625 473.378906 C 95.027344 474.558594 95.472656 476.613281 95.472656 479.402344 C 95.472656 482.1875 95.027344 484.246094 94.140625 485.570312 C 93.246094 486.453125 92.207031 487.035156 90.722656 487.035156 C 89.382812 487.035156 88.191406 486.449219 87.304688 485.421875 Z M 87.304688 485.421875 " fill-opacity="1" fill-rule="nonzero"/><path fill="#000000" d="M 78.832031 476.023438 C 77.789062 477.050781 76.605469 477.785156 75.117188 478.226562 L 75.117188 475.730469 C 75.859375 475.4375 76.75 474.996094 77.492188 474.261719 C 78.382812 473.675781 78.980469 472.941406 79.277344 472.0625 L 81.652344 472.0625 L 81.652344 486.890625 L 78.832031 486.890625 Z M 78.832031 476.023438 " fill-opacity="1" fill-rule="nonzero"/><path fill="#000000" d="M 78.832031 454.734375 C 77.789062 455.613281 76.605469 456.347656 75.117188 456.789062 L 75.117188 454.292969 C 75.859375 454 76.75 453.558594 77.492188 452.824219 C 78.382812 452.238281 78.980469 451.503906 79.277344 450.625 L 81.652344 450.625 L 81.652344 465.453125 L 78.832031 465.453125 Z M 78.832031 454.734375 " fill-opacity="1" fill-rule="nonzero"/><path fill="#000000" d="M 78.832031 433.445312 C 77.789062 434.324219 76.605469 435.058594 75.117188 435.5 L 75.117188 433 C 75.859375 432.710938 76.75 432.269531 77.492188 431.683594 C 78.382812 430.945312 78.980469 430.214844 79.277344 429.332031 L 81.652344 429.332031 L 81.652344 444.160156 L 78.832031 444.160156 Z M 78.832031 433.445312 " fill-opacity="1" fill-rule="nonzero"/><path fill="#000000" d="M 64.265625 420.378906 C 63.820312 420.378906 63.375 420.523438 62.933594 420.964844 C 62.632812 421.257812 62.335938 421.699219 62.335938 422.285156 L 62.335938 492.617188 C 62.335938 493.203125 62.632812 493.644531 62.933594 493.9375 C 63.375 494.378906 63.820312 494.523438 64.265625 494.523438 L 149.5625 494.523438 C 150.007812 494.523438 150.453125 494.378906 150.902344 493.9375 C 151.199219 493.644531 151.492188 493.203125 151.492188 492.617188 L 151.492188 422.28125 C 151.492188 421.699219 151.199219 421.257812 150.902344 420.964844 C 150.453125 420.519531 150.007812 420.375 149.5625 420.375 L 64.265625 420.375 Z M 149.5625 497.167969 L 64.265625 497.167969 C 63.078125 497.167969 62.042969 496.730469 61.148438 495.847656 C 60.40625 495.113281 59.808594 493.9375 59.808594 492.761719 L 59.808594 422.433594 C 59.808594 421.257812 60.40625 420.082031 61.148438 419.347656 C 62.042969 418.464844 63.078125 418.027344 64.265625 418.027344 L 149.5625 418.027344 C 150.753906 418.027344 151.792969 418.464844 152.683594 419.347656 C 153.425781 420.082031 154.023438 421.257812 154.023438 422.433594 L 154.023438 492.761719 C 154.023438 493.9375 153.425781 495.113281 152.683594 495.847656 C 151.792969 496.730469 150.753906 497.167969 149.5625 497.167969 Z M 149.5625 497.167969 " fill-opacity="1" fill-rule="nonzero"/><g clip-path="url(#321fa5d921)"><path fill="#000000" d="M 56.246094 397.617188 L 157.589844 397.617188 C 158.328125 397.617188 158.773438 398.207031 158.773438 398.792969 L 158.925781 500.25 C 158.925781 500.988281 158.328125 501.570312 157.589844 501.570312 L 56.097656 501.570312 C 55.351562 501.570312 54.761719 500.988281 54.761719 500.25 L 54.761719 398.941406 C 54.761719 398.207031 55.351562 397.617188 56.097656 397.617188 Z M 156.25 400.261719 L 57.285156 400.261719 L 57.285156 499.226562 L 156.398438 499.226562 Z M 156.25 400.261719 " fill-opacity="1" fill-rule="nonzero"/></g></svg>