<svg xmlns="http://www.w3.org/2000/svg" xmlns:xlink="http://www.w3.org/1999/xlink" width="1080" zoomAndPan="magnify" viewBox="0 0 810 809.999993" height="1080" preserveAspectRatio="xMidYMid meet" version="1.0"><defs><clipPath id="fee941bd50"><path d="M 0 0 L 802 0 L 802 801.609375 L 0 801.609375 Z M 0 0 " clip-rule="nonzero"/></clipPath><clipPath id="b2feb75d5e"><path d="M 38.25 0 L 764.140625 0 C 774.285156 0 784.015625 4.03125 791.1875 11.203125 C 798.363281 18.375 802.390625 28.105469 802.390625 38.25 L 802.390625 763.359375 C 802.390625 773.503906 798.363281 783.230469 791.1875 790.40625 C 784.015625 797.578125 774.285156 801.609375 764.140625 801.609375 L 38.25 801.609375 C 28.105469 801.609375 18.375 797.578125 11.203125 790.40625 C 4.03125 783.230469 0 773.503906 0 763.359375 L 0 38.25 C 0 28.105469 4.03125 18.375 11.203125 11.203125 C 18.375 4.03125 28.105469 0 38.25 0 Z M 38.25 0 " clip-rule="nonzero"/></clipPath><clipPath id="b289f53012"><path d="M 339.40625 90.433594 L 521.949219 90.433594 L 521.949219 272.90625 L 339.40625 272.90625 Z M 339.40625 90.433594 " clip-rule="nonzero"/></clipPath><clipPath id="7fbb266b05"><path d="M 430.679688 90.433594 L 439.53125 97.917969 L 449.757812 92.425781 L 456.855469 101.578125 L 468.003906 98.324219 L 473.03125 108.738281 L 484.621094 107.859375 L 487.359375 119.085938 L 498.878906 120.621094 L 499.207031 132.171875 L 510.15625 136.050781 L 508.058594 147.414062 L 517.960938 153.476562 L 513.53125 164.160156 L 521.949219 172.128906 L 515.382812 181.667969 L 521.949219 191.203125 L 513.53125 199.175781 L 517.960938 209.859375 L 508.058594 215.917969 L 510.15625 227.285156 L 499.207031 231.164062 L 498.878906 242.714844 L 487.359375 244.246094 L 484.621094 255.476562 L 473.03125 254.59375 L 468.003906 265.015625 L 456.855469 261.757812 L 449.757812 270.90625 L 439.53125 265.414062 L 430.679688 272.90625 L 421.820312 265.414062 L 411.597656 270.90625 L 404.5 261.757812 L 393.347656 265.015625 L 388.324219 254.59375 L 376.734375 255.476562 L 373.996094 244.246094 L 362.476562 242.714844 L 362.148438 231.164062 L 351.199219 227.285156 L 353.292969 215.917969 L 343.394531 209.859375 L 347.820312 199.175781 L 339.40625 191.203125 L 345.96875 181.667969 L 339.40625 172.128906 L 347.820312 164.160156 L 343.394531 153.476562 L 353.292969 147.414062 L 351.199219 136.050781 L 362.148438 132.171875 L 362.476562 120.621094 L 373.996094 119.085938 L 376.734375 107.859375 L 388.324219 108.738281 L 393.347656 98.324219 L 404.5 101.578125 L 411.597656 92.425781 L 421.820312 97.917969 Z M 430.679688 90.433594 " clip-rule="nonzero"/></clipPath><clipPath id="a5d08c36f9"><path d="M 272.25 528.386719 L 454.792969 528.386719 L 454.792969 710.851562 L 272.25 710.851562 Z M 272.25 528.386719 " clip-rule="nonzero"/></clipPath><clipPath id="29cf3f99ea"><path d="M 363.523438 528.386719 L 372.375 535.871094 L 382.601562 530.378906 L 389.695312 539.53125 L 400.851562 536.273438 L 405.875 546.691406 L 417.464844 545.808594 L 420.203125 557.039062 L 431.722656 558.570312 L 432.050781 570.121094 L 443.003906 574 L 440.90625 585.367188 L 450.804688 591.425781 L 446.378906 602.113281 L 454.792969 610.082031 L 448.230469 619.621094 L 454.792969 629.15625 L 446.378906 637.128906 L 450.804688 647.8125 L 440.90625 653.871094 L 443.003906 665.238281 L 432.050781 669.117188 L 431.722656 680.667969 L 420.203125 682.199219 L 417.464844 693.429688 L 405.875 692.546875 L 400.851562 702.96875 L 389.695312 699.707031 L 382.601562 708.859375 L 372.375 703.367188 L 363.523438 710.851562 L 354.667969 703.367188 L 344.441406 708.859375 L 337.347656 699.707031 L 326.195312 702.96875 L 321.171875 692.546875 L 309.578125 693.429688 L 306.84375 682.199219 L 295.320312 680.667969 L 294.992188 669.117188 L 284.042969 665.238281 L 286.136719 653.871094 L 276.242188 647.8125 L 280.667969 637.128906 L 272.25 629.15625 L 278.816406 619.621094 L 272.25 610.082031 L 280.667969 602.113281 L 276.242188 591.425781 L 286.136719 585.367188 L 284.042969 574 L 294.992188 570.121094 L 295.320312 558.570312 L 306.84375 557.039062 L 309.578125 545.808594 L 321.171875 546.691406 L 326.195312 536.273438 L 337.347656 539.53125 L 344.441406 530.378906 L 354.667969 535.871094 Z M 363.523438 528.386719 " clip-rule="nonzero"/></clipPath><clipPath id="94f47bf390"><path d="M 611.613281 272.90625 L 794.15625 272.90625 L 794.15625 455.371094 L 611.613281 455.371094 Z M 611.613281 272.90625 " clip-rule="nonzero"/></clipPath><clipPath id="992ef77b48"><path d="M 702.886719 272.90625 L 711.738281 280.390625 L 721.964844 274.898438 L 729.058594 284.050781 L 740.210938 280.789062 L 745.238281 291.210938 L 756.828125 290.328125 L 759.5625 301.558594 L 771.085938 303.089844 L 771.414062 314.640625 L 782.363281 318.519531 L 780.269531 329.886719 L 790.167969 335.945312 L 785.742188 346.628906 L 794.15625 354.601562 L 787.589844 364.136719 L 794.15625 373.675781 L 785.742188 381.644531 L 790.167969 392.332031 L 780.269531 398.390625 L 782.363281 409.753906 L 771.414062 413.636719 L 771.085938 425.1875 L 759.5625 426.71875 L 756.828125 437.949219 L 745.238281 437.066406 L 740.210938 447.488281 L 729.058594 444.226562 L 721.964844 453.378906 L 711.738281 447.886719 L 702.886719 455.371094 L 694.03125 447.886719 L 683.804688 453.378906 L 676.710938 444.226562 L 665.558594 447.488281 L 660.53125 437.066406 L 648.941406 437.949219 L 646.207031 426.71875 L 634.683594 425.1875 L 634.355469 413.636719 L 623.410156 409.753906 L 625.5 398.390625 L 615.605469 392.332031 L 620.027344 381.644531 L 611.613281 373.675781 L 618.179688 364.136719 L 611.613281 354.601562 L 620.027344 346.628906 L 615.605469 335.945312 L 625.5 329.886719 L 623.410156 318.519531 L 634.355469 314.640625 L 634.683594 303.089844 L 646.207031 301.558594 L 648.941406 290.328125 L 660.53125 291.210938 L 665.558594 280.789062 L 676.710938 284.050781 L 683.804688 274.898438 L 694.03125 280.390625 Z M 702.886719 272.90625 " clip-rule="nonzero"/></clipPath><clipPath id="a355fbfac0"><path d="M 15.914062 345.914062 L 198.457031 345.914062 L 198.457031 528.386719 L 15.914062 528.386719 Z M 15.914062 345.914062 " clip-rule="nonzero"/></clipPath><clipPath id="5ff48902de"><path d="M 107.1875 345.914062 L 116.039062 353.402344 L 126.265625 347.90625 L 133.359375 357.0625 L 144.511719 353.804688 L 149.535156 364.222656 L 161.128906 363.339844 L 163.863281 374.570312 L 175.386719 376.105469 L 175.714844 387.65625 L 186.664062 391.53125 L 184.570312 402.898438 L 194.46875 408.957031 L 190.039062 419.640625 L 198.457031 427.613281 L 191.890625 437.152344 L 198.457031 446.6875 L 190.039062 454.660156 L 194.46875 465.34375 L 184.570312 471.402344 L 186.664062 482.765625 L 175.714844 486.648438 L 175.386719 498.199219 L 163.863281 499.730469 L 161.128906 510.960938 L 149.535156 510.074219 L 144.511719 520.496094 L 133.359375 517.238281 L 126.265625 526.390625 L 116.039062 520.898438 L 107.1875 528.386719 L 98.332031 520.898438 L 88.105469 526.390625 L 81.011719 517.238281 L 69.855469 520.496094 L 64.832031 510.074219 L 53.242188 510.960938 L 50.507812 499.730469 L 38.984375 498.199219 L 38.65625 486.648438 L 27.707031 482.765625 L 29.800781 471.402344 L 19.90625 465.34375 L 24.328125 454.660156 L 15.914062 446.6875 L 22.480469 437.152344 L 15.914062 427.613281 L 24.328125 419.640625 L 19.90625 408.957031 L 29.800781 402.898438 L 27.707031 391.53125 L 38.65625 387.65625 L 38.984375 376.105469 L 50.507812 374.570312 L 53.242188 363.339844 L 64.832031 364.222656 L 69.855469 353.804688 L 81.011719 357.0625 L 88.105469 347.90625 L 98.332031 353.402344 Z M 107.1875 345.914062 " clip-rule="nonzero"/></clipPath><clipPath id="b5a33ce9e0"><path d="M 420 427 L 652 427 L 652 565.898438 L 420 565.898438 Z M 420 427 " clip-rule="nonzero"/></clipPath><clipPath id="dec9ef320a"><path d="M 416.011719 550.316406 L 644.230469 423.34375 L 658.316406 448.644531 L 430.097656 575.613281 Z M 416.011719 550.316406 " clip-rule="nonzero"/></clipPath><clipPath id="3d8e9505be"><path d="M 421.65625 547.253906 C 644.066406 427.089844 646.691406 429.203125 648.765625 431.625 C 650.558594 434.199219 651.757812 438.304688 651.664062 440.738281 C 651.296875 443.324219 647.953125 445.777344 645.789062 445.792969 C 643.648438 445.195312 640.238281 442.328125 638.972656 440.050781 C 637.449219 437.324219 636.253906 433.222656 636.875 431.089844 C 637.246094 428.5 641.117188 426.347656 643.511719 427.398438 C 645.402344 427.539062 648.789062 431.019531 649.777344 433.445312 C 651.273438 436.785156 651.664062 440.738281 650.441406 444.394531 C 646.59375 453.089844 629.0625 458.671875 611.066406 469.28125 C 573.425781 491.414062 456.828125 568.792969 431.785156 565.449219 C 426.671875 564.71875 422.460938 561.699219 420.6875 558.515625 C 419.441406 555.632812 421.65625 547.253906 421.65625 547.253906 " clip-rule="nonzero"/></clipPath><clipPath id="bf3ad69c13"><path d="M 194 355 L 619 355 L 619 443 L 194 443 Z M 194 355 " clip-rule="nonzero"/></clipPath><clipPath id="82c093c8c3"><path d="M 192.691406 422.425781 L 616.726562 352.027344 L 621.46875 380.589844 L 197.441406 450.988281 Z M 192.691406 422.425781 " clip-rule="nonzero"/></clipPath><clipPath id="a359fb21ce"><path d="M 203.050781 420.777344 C 614.027344 355.710938 616.597656 358.453125 618.136719 361.363281 C 619.160156 364.359375 618.300781 368.722656 616.589844 371.117188 C 614.359375 373.597656 607.769531 375.21875 604.515625 374.703125 C 601.691406 373.589844 598.4375 369.910156 598.011719 367.339844 C 597.5 364.261719 598.359375 359.898438 600.671875 357.929688 C 602.898438 355.449219 610.09375 354.253906 613 355.882812 C 615.738281 356.484375 618.5625 360.761719 618.476562 363.417969 C 618.558594 367.097656 616.589844 371.117188 612.394531 374.453125 C 601 382.148438 571.121094 383.414062 537.300781 389.558594 C 466.578125 402.355469 241.8125 450.753906 206.460938 441.320312 C 199.269531 439.34375 194.90625 435.320312 194.308594 431.726562 C 194.308594 428.5625 203.050781 420.777344 203.050781 420.777344 " clip-rule="nonzero"/></clipPath><clipPath id="f8114cf4db"><path d="M 143.289062 219 L 369 219 L 369 369 L 143.289062 369 Z M 143.289062 219 " clip-rule="nonzero"/></clipPath><clipPath id="6b67cf534d"><path d="M 139.242188 354.441406 L 360.421875 215.585938 L 375.824219 240.101562 L 154.648438 378.960938 Z M 139.242188 354.441406 " clip-rule="nonzero"/></clipPath><clipPath id="e1589d111d"><path d="M 144.71875 351.085938 C 360.457031 219.332031 363.191406 221.304688 365.386719 223.613281 C 367.316406 226.089844 368.730469 230.121094 368.769531 232.558594 C 368.53125 235.160156 365.328125 237.789062 363.167969 237.917969 C 360.996094 237.4375 357.441406 234.75 356.058594 232.546875 C 354.394531 229.902344 352.980469 225.871094 353.492188 223.707031 C 353.722656 221.101562 357.472656 218.746094 359.921875 219.667969 C 361.816406 219.707031 365.378906 223.003906 366.496094 225.378906 C 368.167969 228.632812 368.769531 232.558594 367.742188 236.277344 C 364.359375 245.160156 347.144531 251.664062 329.738281 263.207031 C 293.316406 287.300781 180.976562 370.738281 155.796875 368.71875 C 150.652344 368.261719 146.285156 365.46875 144.34375 362.386719 C 142.953125 359.574219 144.71875 351.085938 144.71875 351.085938 " clip-rule="nonzero"/></clipPath><clipPath id="7c6981196f"><path d="M 286.46875 541.613281 L 440.578125 541.613281 L 440.578125 698 L 286.46875 698 Z M 286.46875 541.613281 " clip-rule="nonzero"/></clipPath><clipPath id="5e313dab84"><path d="M 363.523438 541.613281 C 320.964844 541.613281 286.46875 576.539062 286.46875 619.621094 C 286.46875 662.699219 320.964844 697.628906 363.523438 697.628906 C 406.082031 697.628906 440.578125 662.699219 440.578125 619.621094 C 440.578125 576.539062 406.082031 541.613281 363.523438 541.613281 Z M 363.523438 541.613281 " clip-rule="nonzero"/></clipPath><clipPath id="7b420c367a"><path d="M 30.128906 359.144531 L 184.238281 359.144531 L 184.238281 515 L 30.128906 515 Z M 30.128906 359.144531 " clip-rule="nonzero"/></clipPath><clipPath id="c1b3a84f5d"><path d="M 107.1875 359.144531 C 64.628906 359.144531 30.128906 394.066406 30.128906 437.152344 C 30.128906 480.234375 64.628906 515.15625 107.1875 515.15625 C 149.742188 515.15625 184.238281 480.234375 184.238281 437.152344 C 184.238281 394.066406 149.742188 359.144531 107.1875 359.144531 Z M 107.1875 359.144531 " clip-rule="nonzero"/></clipPath><clipPath id="82ed00c38d"><path d="M 353.621094 103.660156 L 507.734375 103.660156 L 507.734375 259.851562 L 353.621094 259.851562 Z M 353.621094 103.660156 " clip-rule="nonzero"/></clipPath><clipPath id="8bbf2edba3"><path d="M 430.679688 103.660156 C 388.121094 103.660156 353.621094 138.585938 353.621094 181.667969 C 353.621094 224.75 388.121094 259.675781 430.679688 259.675781 C 473.234375 259.675781 507.734375 224.75 507.734375 181.667969 C 507.734375 138.585938 473.234375 103.660156 430.679688 103.660156 Z M 430.679688 103.660156 " clip-rule="nonzero"/></clipPath><clipPath id="9cac5b54b6"><path d="M 625.828125 286.128906 L 779.941406 286.128906 L 779.941406 442 L 625.828125 442 Z M 625.828125 286.128906 " clip-rule="nonzero"/></clipPath><clipPath id="203b181ffa"><path d="M 702.886719 286.128906 C 660.328125 286.128906 625.828125 321.058594 625.828125 364.136719 C 625.828125 407.21875 660.328125 442.144531 702.886719 442.144531 C 745.445312 442.144531 779.941406 407.21875 779.941406 364.136719 C 779.941406 321.058594 745.445312 286.128906 702.886719 286.128906 Z M 702.886719 286.128906 " clip-rule="nonzero"/></clipPath><clipPath id="72b61ad842"><path d="M 334.640625 562 L 407 562 L 407 686.546875 L 334.640625 686.546875 Z M 334.640625 562 " clip-rule="nonzero"/></clipPath><clipPath id="616ed387c3"><path d="M 373.074219 140.523438 L 487.640625 140.523438 L 487.640625 223.8125 L 373.074219 223.8125 Z M 373.074219 140.523438 " clip-rule="nonzero"/></clipPath><clipPath id="d330c1e35c"><path d="M 709.519531 300.808594 L 713.871094 300.808594 L 713.871094 305 L 709.519531 305 Z M 709.519531 300.808594 " clip-rule="nonzero"/></clipPath><clipPath id="8f08b13017"><path d="M 688.644531 422 L 692.996094 422 L 692.996094 425.742188 L 688.644531 425.742188 Z M 688.644531 422 " clip-rule="nonzero"/></clipPath><clipPath id="221b7ba321"><path d="M 54.707031 384.183594 L 158.859375 384.183594 L 158.859375 488.222656 L 54.707031 488.222656 Z M 54.707031 384.183594 " clip-rule="nonzero"/></clipPath></defs><g clip-path="url(#fee941bd50)"><g clip-path="url(#b2feb75d5e)"><path fill="#082449" d="M 0 0 L 801.609375 0 L 801.609375 801.609375 L 0 801.609375 Z M 0 0 " fill-opacity="1" fill-rule="nonzero"/></g></g><g clip-path="url(#b289f53012)"><g clip-path="url(#7fbb266b05)"><path fill="#004aad" d="M 339.40625 90.433594 L 521.949219 90.433594 L 521.949219 272.90625 L 339.40625 272.90625 Z M 339.40625 90.433594 " fill-opacity="1" fill-rule="nonzero"/></g></g><g clip-path="url(#a5d08c36f9)"><g clip-path="url(#29cf3f99ea)"><path fill="#004aad" d="M 272.25 528.386719 L 454.792969 528.386719 L 454.792969 710.851562 L 272.25 710.851562 Z M 272.25 528.386719 " fill-opacity="1" fill-rule="nonzero"/></g></g><g clip-path="url(#94f47bf390)"><g clip-path="url(#992ef77b48)"><path fill="#004aad" d="M 611.613281 272.90625 L 794.15625 272.90625 L 794.15625 455.371094 L 611.613281 455.371094 Z M 611.613281 272.90625 " fill-opacity="1" fill-rule="nonzero"/></g></g><g clip-path="url(#a355fbfac0)"><g clip-path="url(#5ff48902de)"><path fill="#004aad" d="M 15.914062 345.914062 L 198.457031 345.914062 L 198.457031 528.386719 L 15.914062 528.386719 Z M 15.914062 345.914062 " fill-opacity="1" fill-rule="nonzero"/></g></g><g clip-path="url(#b5a33ce9e0)"><g clip-path="url(#dec9ef320a)"><g clip-path="url(#3d8e9505be)"><path fill="#5ce1e6" d="M 394.9375 538.289062 L 645.105469 399.105469 L 677.015625 456.417969 L 426.851562 595.601562 Z M 394.9375 538.289062 " fill-opacity="1" fill-rule="nonzero"/></g></g></g><g clip-path="url(#bf3ad69c13)"><g clip-path="url(#82c093c8c3)"><g clip-path="url(#a359fb21ce)"><path fill="#5ce1e6" d="M 168.8125 405.355469 L 633.804688 328.15625 L 644.554688 392.859375 L 179.5625 470.058594 Z M 168.8125 405.355469 " fill-opacity="1" fill-rule="nonzero"/></g></g></g><g clip-path="url(#f8114cf4db)"><g clip-path="url(#6b67cf534d)"><g clip-path="url(#e1589d111d)"><path fill="#5ce1e6" d="M 117.566406 343.546875 L 360.015625 191.332031 L 394.914062 246.878906 L 152.460938 399.089844 Z M 117.566406 343.546875 " fill-opacity="1" fill-rule="nonzero"/></g></g></g><g clip-path="url(#7c6981196f)"><g clip-path="url(#5e313dab84)"><path fill="#5ce1e6" d="M 286.46875 541.613281 L 440.578125 541.613281 L 440.578125 697.46875 L 286.46875 697.46875 Z M 286.46875 541.613281 " fill-opacity="1" fill-rule="nonzero"/></g></g><g clip-path="url(#7b420c367a)"><g clip-path="url(#c1b3a84f5d)"><path fill="#5ce1e6" d="M 30.128906 359.144531 L 184.238281 359.144531 L 184.238281 515 L 30.128906 515 Z M 30.128906 359.144531 " fill-opacity="1" fill-rule="nonzero"/></g></g><g clip-path="url(#82ed00c38d)"><g clip-path="url(#8bbf2edba3)"><path fill="#5ce1e6" d="M 353.621094 103.660156 L 507.734375 103.660156 L 507.734375 259.519531 L 353.621094 259.519531 Z M 353.621094 103.660156 " fill-opacity="1" fill-rule="nonzero"/></g></g><g clip-path="url(#9cac5b54b6)"><g clip-path="url(#203b181ffa)"><path fill="#5ce1e6" d="M 625.828125 286.128906 L 779.941406 286.128906 L 779.941406 441.988281 L 625.828125 441.988281 Z M 625.828125 286.128906 " fill-opacity="1" fill-rule="nonzero"/></g></g><g clip-path="url(#72b61ad842)"><path fill="#000000" d="M 342.226562 686.492188 C 341.1875 686.488281 340.257812 686.167969 339.4375 685.539062 C 339 685.214844 338.632812 684.828125 338.339844 684.371094 C 338.039062 683.917969 337.835938 683.425781 337.71875 682.894531 C 337.609375 682.367188 337.589844 681.835938 337.667969 681.300781 C 337.75 680.761719 337.925781 680.257812 338.191406 679.789062 L 338.214844 679.75 L 365.550781 631.804688 L 339.488281 631.804688 C 339.039062 631.800781 338.597656 631.738281 338.167969 631.609375 C 337.738281 631.480469 337.335938 631.292969 336.960938 631.046875 C 336.589844 630.800781 336.257812 630.507812 335.972656 630.164062 C 335.683594 629.820312 335.453125 629.445312 335.28125 629.039062 C 335.109375 628.625 334.996094 628.203125 334.949219 627.757812 C 334.898438 627.316406 334.917969 626.878906 335 626.4375 C 335.082031 626 335.226562 625.585938 335.433594 625.191406 C 335.640625 624.796875 335.898438 624.4375 336.210938 624.121094 L 391.742188 563.503906 L 391.820312 563.417969 C 392.199219 563.042969 392.625 562.746094 393.109375 562.519531 C 393.589844 562.296875 394.097656 562.160156 394.625 562.113281 C 395.160156 562.066406 395.683594 562.105469 396.195312 562.238281 C 396.714844 562.371094 397.191406 562.585938 397.628906 562.882812 C 398.070312 563.183594 398.445312 563.546875 398.757812 563.976562 C 399.070312 564.402344 399.296875 564.867188 399.449219 565.378906 C 399.59375 565.882812 399.648438 566.398438 399.613281 566.925781 C 399.578125 567.453125 399.453125 567.957031 399.238281 568.441406 L 399.207031 568.511719 L 377.613281 613.242188 L 400.550781 613.242188 C 401.179688 613.242188 401.800781 613.332031 402.402344 613.511719 C 403.007812 613.691406 403.574219 613.957031 404.097656 614.304688 C 404.625 614.652344 405.089844 615.0625 405.496094 615.542969 C 405.898438 616.027344 406.226562 616.554688 406.472656 617.128906 C 406.71875 617.707031 406.875 618.308594 406.941406 618.929688 C 407.015625 619.550781 406.992188 620.167969 406.875 620.785156 C 406.757812 621.402344 406.554688 621.988281 406.265625 622.542969 C 405.976562 623.101562 405.609375 623.601562 405.171875 624.050781 L 345.433594 685.136719 L 345.363281 685.203125 C 344.496094 686.050781 343.449219 686.480469 342.226562 686.492188 Z M 342.101562 681.851562 Z M 339.800781 627.136719 L 365.789062 627.136719 C 365.984375 627.136719 366.179688 627.144531 366.375 627.171875 C 366.570312 627.195312 366.761719 627.234375 366.953125 627.285156 C 367.144531 627.335938 367.332031 627.398438 367.515625 627.472656 C 367.695312 627.542969 367.875 627.628906 368.042969 627.726562 C 368.214844 627.820312 368.378906 627.929688 368.535156 628.046875 C 368.691406 628.164062 368.84375 628.289062 368.984375 628.425781 C 369.125 628.566406 369.257812 628.707031 369.378906 628.859375 C 369.5 629.015625 369.609375 629.175781 369.710938 629.34375 C 369.8125 629.511719 369.902344 629.6875 369.980469 629.863281 C 370.058594 630.042969 370.125 630.226562 370.179688 630.414062 C 370.234375 630.601562 370.277344 630.792969 370.308594 630.984375 C 370.332031 631.175781 370.351562 631.371094 370.359375 631.566406 C 370.359375 631.761719 370.351562 631.957031 370.332031 632.152344 C 370.308594 632.34375 370.277344 632.535156 370.230469 632.726562 C 370.183594 632.914062 370.125 633.101562 370.054688 633.28125 C 369.984375 633.464844 369.902344 633.640625 369.808594 633.816406 L 369.785156 633.851562 L 342.867188 681.070312 L 401.785156 620.808594 C 402.027344 620.5625 402.179688 620.269531 402.246094 619.933594 C 402.304688 619.59375 402.269531 619.265625 402.136719 618.949219 C 402 618.632812 401.789062 618.378906 401.496094 618.191406 C 401.207031 618 400.886719 617.90625 400.542969 617.90625 L 377.394531 617.90625 C 377.203125 617.90625 377.015625 617.894531 376.828125 617.871094 C 376.640625 617.851562 376.457031 617.8125 376.273438 617.769531 C 376.089844 617.722656 375.910156 617.664062 375.734375 617.59375 C 375.554688 617.527344 375.382812 617.449219 375.214844 617.359375 C 375.050781 617.273438 374.890625 617.171875 374.738281 617.0625 C 374.585938 616.953125 374.433594 616.835938 374.296875 616.707031 C 374.15625 616.582031 374.027344 616.445312 373.90625 616.304688 C 373.78125 616.160156 373.671875 616.011719 373.566406 615.851562 C 373.464844 615.695312 373.367188 615.535156 373.285156 615.367188 C 373.203125 615.199219 373.128906 615.023438 373.070312 614.847656 C 373.007812 614.671875 372.957031 614.492188 372.917969 614.308594 C 372.878906 614.125 372.851562 613.9375 372.839844 613.75 C 372.820312 613.5625 372.816406 613.378906 372.824219 613.191406 C 372.832031 613.003906 372.851562 612.816406 372.882812 612.632812 C 372.914062 612.445312 372.957031 612.261719 373.011719 612.082031 C 373.066406 611.90625 373.128906 611.730469 373.203125 611.554688 L 373.238281 611.488281 L 394.519531 567.410156 Z M 397.082031 567.503906 Z M 397.082031 567.503906 " fill-opacity="1" fill-rule="nonzero"/></g><g clip-path="url(#616ed387c3)"><path fill="#000000" d="M 481.0625 140.523438 C 480.335938 140.523438 479.609375 140.523438 478.878906 140.523438 L 380.285156 140.523438 C 377.101562 140.523438 374.101562 142.371094 373.375 145.703125 C 373.191406 147.09375 373.101562 148.480469 373.191406 149.871094 L 373.191406 214.558594 C 373.101562 216.132812 373.191406 217.707031 373.554688 219.1875 C 374.558594 222.238281 377.378906 223.8125 380.378906 223.8125 L 481.0625 223.8125 C 481.246094 223.8125 481.425781 223.71875 481.609375 223.628906 C 485.246094 223.257812 487.613281 220.203125 487.613281 216.40625 L 487.613281 147.742188 C 487.613281 143.851562 484.972656 140.617188 481.0625 140.523438 Z M 375.46875 147.183594 C 375.554688 144.320312 377.742188 142.742188 380.378906 142.742188 L 471.601562 142.742188 C 474.695312 142.742188 477.878906 142.652344 480.96875 142.742188 C 483.703125 142.835938 485.429688 144.964844 485.429688 147.648438 L 485.429688 155.699219 L 388.109375 155.699219 C 383.832031 155.699219 379.648438 155.515625 375.46875 155.699219 C 375.375 152.925781 375.375 150.054688 375.46875 147.183594 Z M 485.335938 216.964844 C 485.335938 219.371094 483.425781 221.316406 480.96875 221.40625 C 480.882812 221.40625 480.789062 221.40625 480.789062 221.40625 L 380.832031 221.40625 C 378.921875 221.40625 377.011719 221.128906 376.011719 219.1875 C 375.285156 217.796875 375.46875 216.222656 375.46875 214.652344 L 375.46875 159.03125 C 375.46875 158.753906 375.46875 158.382812 375.46875 158.105469 L 472.695312 158.105469 C 476.972656 158.105469 481.152344 158.289062 485.335938 158.105469 L 485.335938 216.039062 C 485.335938 216.316406 485.335938 216.6875 485.335938 216.964844 Z M 485.335938 216.964844 " fill-opacity="1" fill-rule="nonzero"/></g><path fill="#000000" d="M 383.105469 150.332031 C 383.105469 150.242188 383.015625 150.242188 383.105469 150.332031 Z M 383.105469 150.332031 " fill-opacity="1" fill-rule="nonzero"/><path fill="#000000" d="M 387.5625 152.460938 C 388.199219 151.722656 388.472656 150.886719 388.472656 149.871094 C 388.472656 149.683594 388.472656 149.59375 388.472656 149.40625 C 388.289062 147.925781 387.292969 146.722656 385.925781 146.167969 C 384.472656 145.613281 382.742188 146.074219 381.742188 147.28125 C 380.378906 148.945312 380.5625 151.351562 382.105469 152.832031 C 383.746094 154.21875 386.109375 154.035156 387.5625 152.460938 Z M 386.199219 149.59375 C 386.199219 149.59375 386.199219 149.683594 386.199219 149.59375 C 386.199219 149.683594 386.199219 149.683594 386.199219 149.683594 C 386.199219 149.683594 386.199219 149.683594 386.199219 149.59375 Z M 383.015625 149.59375 C 383.015625 149.5 383.015625 149.5 383.015625 149.40625 C 383.015625 149.316406 383.105469 149.222656 383.105469 149.035156 L 383.195312 148.851562 L 383.289062 148.664062 C 383.378906 148.574219 383.46875 148.480469 383.5625 148.390625 L 383.652344 148.390625 C 383.5625 148.480469 383.652344 148.390625 383.746094 148.390625 C 383.832031 148.296875 384.015625 148.296875 384.109375 148.203125 C 384.109375 148.203125 383.832031 148.296875 384.015625 148.203125 L 384.195312 148.113281 L 384.378906 148.113281 C 384.378906 148.113281 384.378906 148.113281 384.472656 148.113281 C 384.472656 148.113281 384.5625 148.113281 384.5625 148.113281 L 384.835938 148.113281 L 385.289062 148.203125 C 385.46875 148.296875 385.46875 148.296875 385.46875 148.296875 L 385.652344 148.480469 C 385.5625 148.390625 385.46875 148.390625 385.5625 148.480469 L 385.832031 148.761719 C 385.832031 148.851562 385.925781 148.851562 385.925781 148.945312 L 386.015625 149.132812 C 386.015625 149.222656 386.015625 149.316406 386.109375 149.316406 C 386.109375 149.40625 386.015625 149.5 386.015625 149.59375 C 386.015625 149.683594 386.015625 149.683594 386.015625 149.777344 C 386.015625 149.871094 385.925781 150.054688 385.925781 150.148438 C 385.925781 150.148438 385.925781 150.242188 385.925781 150.242188 C 385.925781 150.242188 385.925781 150.242188 385.925781 150.332031 C 385.832031 150.425781 385.746094 150.613281 385.746094 150.703125 C 385.746094 150.703125 385.652344 150.796875 385.652344 150.796875 C 385.652344 150.796875 385.5625 150.886719 385.5625 150.886719 L 385.46875 150.886719 C 385.378906 150.980469 385.378906 150.980469 385.46875 150.886719 C 385.378906 150.980469 385.289062 150.980469 385.289062 151.074219 L 385.199219 151.164062 L 384.742188 151.351562 C 384.652344 151.351562 384.652344 151.351562 384.5625 151.351562 L 384.195312 151.351562 C 384.109375 151.351562 384.015625 151.351562 384.015625 151.257812 L 383.832031 151.164062 C 383.652344 151.074219 383.925781 151.164062 383.925781 151.164062 C 383.925781 151.164062 383.652344 150.980469 383.652344 150.980469 L 383.46875 150.886719 C 383.46875 150.886719 383.195312 150.613281 383.195312 150.613281 L 383.105469 150.515625 L 383.105469 150.332031 C 383.105469 150.332031 383.105469 150.425781 383.105469 150.425781 C 383.105469 150.425781 383.015625 150.148438 383.015625 150.054688 Z M 383.015625 149.59375 " fill-opacity="1" fill-rule="nonzero"/><path fill="#000000" d="M 396.660156 152.277344 C 397.207031 151.628906 397.476562 150.796875 397.570312 149.964844 C 397.570312 149.871094 397.570312 149.871094 397.570312 149.777344 C 397.570312 149.777344 397.570312 149.683594 397.570312 149.683594 C 397.570312 148.019531 396.566406 146.539062 395.019531 145.984375 C 393.566406 145.429688 391.835938 145.890625 390.839844 147.09375 C 389.472656 148.761719 389.65625 151.164062 391.203125 152.644531 C 392.839844 154.128906 395.203125 153.945312 396.660156 152.277344 Z M 392.199219 149.59375 C 392.199219 149.5 392.199219 149.5 392.199219 149.40625 C 392.199219 149.316406 392.292969 149.222656 392.292969 149.035156 L 392.382812 148.851562 L 392.472656 148.664062 C 392.566406 148.574219 392.65625 148.480469 392.746094 148.390625 L 392.839844 148.390625 C 392.839844 148.390625 392.839844 148.390625 392.929688 148.390625 C 393.019531 148.296875 393.203125 148.296875 393.292969 148.203125 C 393.292969 148.203125 393.019531 148.296875 393.203125 148.203125 L 393.382812 148.113281 L 393.566406 148.113281 C 393.566406 148.113281 393.566406 148.113281 393.65625 148.113281 C 393.65625 148.113281 393.746094 148.113281 393.746094 148.113281 L 393.929688 148.113281 L 394.386719 148.203125 C 394.566406 148.296875 394.566406 148.296875 394.566406 148.296875 C 394.566406 148.296875 394.65625 148.296875 394.65625 148.390625 C 394.65625 148.390625 394.65625 148.390625 394.75 148.480469 L 395.019531 148.761719 C 395.019531 148.851562 395.113281 148.851562 395.113281 148.945312 L 395.203125 149.132812 C 395.292969 149.316406 395.292969 149.40625 395.292969 149.5 C 395.292969 149.5 395.292969 149.5 395.292969 149.59375 C 395.292969 149.59375 395.292969 149.59375 395.292969 149.683594 C 395.292969 149.777344 395.292969 149.777344 395.292969 149.871094 C 395.292969 149.964844 395.203125 150.148438 395.203125 150.242188 C 395.203125 150.242188 395.203125 150.332031 395.203125 150.332031 C 395.203125 150.332031 395.203125 150.332031 395.203125 150.425781 L 395.019531 150.796875 C 395.019531 150.796875 394.929688 150.886719 394.929688 150.886719 L 394.839844 150.980469 C 394.75 151.074219 394.75 151.074219 394.839844 150.980469 C 394.75 151.074219 394.65625 151.074219 394.65625 151.164062 L 394.566406 151.257812 L 394.023438 151.351562 C 393.929688 151.351562 393.929688 151.351562 393.839844 151.351562 L 393.203125 151.351562 L 393.019531 151.257812 C 392.839844 151.164062 393.113281 151.257812 393.113281 151.257812 C 393.113281 151.257812 392.839844 151.074219 392.839844 151.074219 C 392.839844 151.074219 392.746094 150.980469 392.65625 150.980469 C 392.65625 150.980469 392.382812 150.703125 392.382812 150.703125 L 392.292969 150.613281 L 392.382812 150.515625 L 392.382812 150.425781 C 392.382812 150.332031 392.292969 150.332031 392.382812 150.425781 C 392.382812 150.332031 392.292969 150.242188 392.292969 150.148438 C 392.292969 150.148438 392.292969 150.054688 392.292969 149.964844 C 392.199219 149.871094 392.199219 149.683594 392.199219 149.59375 Z M 392.199219 149.59375 " fill-opacity="1" fill-rule="nonzero"/><path fill="#000000" d="M 392.199219 149.59375 C 392.292969 149.316406 392.199219 149.5 392.199219 149.59375 Z M 392.199219 149.59375 " fill-opacity="1" fill-rule="nonzero"/><path fill="#000000" d="M 406.027344 152.460938 C 406.664062 151.722656 406.9375 150.886719 406.9375 149.871094 C 406.9375 149.683594 406.9375 149.59375 406.9375 149.40625 C 406.664062 147.925781 405.753906 146.722656 404.386719 146.167969 C 402.933594 145.613281 401.203125 146.074219 400.207031 147.28125 C 398.839844 148.945312 399.023438 151.351562 400.570312 152.832031 C 402.113281 154.3125 404.570312 154.035156 406.027344 152.460938 Z M 404.664062 149.59375 C 404.664062 149.59375 404.664062 149.683594 404.664062 149.59375 C 404.664062 149.683594 404.664062 149.683594 404.664062 149.683594 C 404.664062 149.683594 404.664062 149.683594 404.664062 149.59375 Z M 401.480469 149.59375 C 401.480469 149.59375 401.480469 149.5 401.480469 149.40625 C 401.480469 149.316406 401.566406 149.132812 401.566406 149.035156 L 401.660156 148.851562 L 401.75 148.664062 C 401.84375 148.574219 401.933594 148.480469 402.023438 148.390625 L 402.113281 148.390625 C 402.023438 148.480469 402.113281 148.390625 402.207031 148.390625 C 402.296875 148.296875 402.480469 148.296875 402.570312 148.203125 C 402.570312 148.203125 402.296875 148.296875 402.480469 148.203125 L 402.664062 148.113281 L 402.84375 148.113281 C 402.84375 148.113281 402.84375 148.113281 402.933594 148.113281 C 402.933594 148.113281 403.027344 148.113281 403.027344 148.113281 L 403.390625 148.113281 L 403.84375 148.203125 C 404.023438 148.296875 404.023438 148.296875 404.023438 148.296875 L 404.117188 148.390625 C 404.117188 148.390625 404.117188 148.390625 404.207031 148.480469 L 404.480469 148.761719 C 404.480469 148.851562 404.570312 148.851562 404.570312 148.945312 C 404.570312 149.035156 404.664062 149.035156 404.664062 149.132812 C 404.664062 149.222656 404.75 149.316406 404.75 149.40625 C 404.75 149.5 404.664062 149.59375 404.664062 149.683594 C 404.664062 149.777344 404.664062 149.777344 404.664062 149.871094 C 404.664062 149.964844 404.570312 150.148438 404.570312 150.242188 C 404.570312 150.242188 404.570312 150.242188 404.570312 150.332031 C 404.480469 150.425781 404.386719 150.613281 404.386719 150.703125 C 404.386719 150.703125 404.300781 150.796875 404.300781 150.796875 C 404.300781 150.796875 404.207031 150.886719 404.207031 150.886719 C 404.117188 150.980469 404.117188 150.980469 404.207031 150.886719 C 404.117188 150.980469 404.023438 150.980469 404.023438 151.074219 L 403.933594 151.164062 L 403.207031 151.351562 C 403.117188 151.351562 403.117188 151.351562 403.027344 151.351562 L 402.664062 151.351562 L 402.296875 151.164062 C 402.113281 151.164062 402.386719 151.164062 402.386719 151.164062 C 402.386719 151.164062 402.113281 150.980469 402.113281 150.980469 L 401.933594 150.886719 C 401.933594 150.886719 401.75 150.703125 401.660156 150.613281 L 401.566406 150.425781 L 401.660156 150.332031 C 401.660156 150.242188 401.566406 150.054688 401.566406 149.964844 L 401.566406 149.777344 C 401.480469 149.777344 401.480469 149.683594 401.480469 149.59375 Z M 401.480469 149.59375 " fill-opacity="1" fill-rule="nonzero"/><path fill="#000000" d="M 403.207031 151.351562 C 403.207031 151.257812 403.027344 151.351562 403.207031 151.351562 Z M 403.207031 151.351562 " fill-opacity="1" fill-rule="nonzero"/><path fill="#000000" d="M 401.480469 149.59375 C 401.566406 149.316406 401.480469 149.5 401.480469 149.59375 Z M 401.480469 149.59375 " fill-opacity="1" fill-rule="nonzero"/><path fill="#000000" d="M 443.773438 177.820312 C 442.863281 176.707031 441.226562 178.371094 442.136719 179.484375 L 450.957031 189.757812 L 442.136719 200.027344 C 441.132812 201.136719 442.769531 202.804688 443.773438 201.695312 L 453.320312 190.589844 C 453.777344 190.128906 453.777344 189.386719 453.320312 188.925781 Z M 443.773438 177.820312 " fill-opacity="1" fill-rule="nonzero"/><path fill="#000000" d="M 417.03125 177.820312 L 407.570312 188.925781 C 407.117188 189.386719 407.117188 190.128906 407.570312 190.589844 L 417.03125 201.695312 C 418.03125 202.804688 419.578125 201.136719 418.667969 200.027344 L 409.847656 189.757812 L 418.667969 179.484375 C 419.671875 178.371094 418.03125 176.707031 417.03125 177.820312 Z M 417.03125 177.820312 " fill-opacity="1" fill-rule="nonzero"/><path fill="#000000" d="M 434.859375 178.003906 L 425.398438 197.4375 L 424.035156 200.214844 C 423.398438 201.507812 425.308594 202.714844 426.039062 201.417969 L 435.585938 181.984375 L 436.949219 179.203125 C 437.40625 177.910156 435.496094 176.707031 434.859375 178.003906 Z M 434.859375 178.003906 " fill-opacity="1" fill-rule="nonzero"/><path fill="#333333" d="M 674.46875 348.953125 L 738.324219 348.953125 L 738.324219 380.371094 L 674.46875 380.371094 Z M 674.46875 348.953125 " fill-opacity="1" fill-rule="nonzero"/><path fill="#000000" d="M 730.597656 383.535156 L 726.734375 383.535156 L 726.734375 377.167969 L 730.597656 377.167969 Z M 722.871094 383.535156 L 719.003906 383.535156 L 719.003906 377.167969 L 722.871094 377.167969 Z M 715.140625 383.535156 L 711.277344 383.535156 L 711.277344 377.167969 L 715.140625 377.167969 Z M 707.414062 383.535156 L 703.546875 383.535156 L 703.546875 377.167969 L 707.414062 377.167969 Z M 699.71875 383.535156 L 695.851562 383.535156 L 695.851562 377.167969 L 699.71875 377.167969 Z M 691.988281 383.535156 L 688.125 383.535156 L 688.125 377.167969 L 691.988281 377.167969 Z M 684.261719 383.535156 L 680.394531 383.535156 L 680.394531 377.167969 L 684.261719 377.167969 Z M 677.664062 374.792969 L 671.238281 374.792969 L 671.238281 370.964844 L 677.664062 370.964844 Z M 741.523438 370.765625 L 735.09375 370.765625 L 735.09375 366.9375 L 741.523438 366.9375 Z M 677.664062 367.132812 L 671.238281 367.132812 L 671.238281 363.304688 L 677.664062 363.304688 Z M 741.523438 363.109375 L 735.09375 363.109375 L 735.09375 359.28125 L 741.523438 359.28125 Z M 677.664062 359.480469 L 671.238281 359.480469 L 671.238281 355.652344 L 677.664062 355.652344 Z M 729.464844 352.121094 L 725.601562 352.121094 L 725.601562 345.75 L 729.464844 345.75 Z M 721.734375 352.121094 L 717.871094 352.121094 L 717.871094 345.75 L 721.734375 345.75 Z M 714.007812 352.121094 L 710.144531 352.121094 L 710.144531 345.75 L 714.007812 345.75 Z M 706.28125 352.121094 L 702.417969 352.121094 L 702.417969 345.75 L 706.28125 345.75 Z M 698.582031 352.121094 L 694.71875 352.121094 L 694.71875 345.75 L 698.582031 345.75 Z M 690.859375 352.121094 L 686.996094 352.121094 L 686.996094 345.75 L 690.859375 345.75 Z M 683.128906 352.121094 L 679.265625 352.121094 L 679.265625 345.75 L 683.128906 345.75 Z M 683.128906 352.121094 " fill-opacity="1" fill-rule="nonzero"/><path fill="#000000" d="M 728.132812 326.710938 L 729.132812 326.710938 L 729.132812 345.851562 L 728.132812 345.851562 Z M 728.132812 326.710938 " fill-opacity="1" fill-rule="nonzero"/><path fill="#000000" d="M 728.132812 326.710938 L 748.449219 326.710938 L 748.449219 328.03125 L 728.132812 328.03125 Z M 728.132812 326.710938 " fill-opacity="1" fill-rule="nonzero"/><path fill="#000000" d="M 748.652344 329.453125 C 750.984375 329.453125 750.984375 325.886719 748.652344 325.886719 C 746.320312 325.886719 746.320312 329.453125 748.652344 329.453125 Z M 748.652344 329.453125 " fill-opacity="1" fill-rule="nonzero"/><path fill="#000000" d="M 719.472656 313.84375 L 720.804688 313.84375 L 720.804688 345.851562 L 719.472656 345.851562 Z M 719.472656 313.84375 " fill-opacity="1" fill-rule="nonzero"/><path fill="#000000" d="M 719.472656 313.84375 L 735.128906 313.84375 L 735.128906 314.832031 L 719.472656 314.832031 Z M 719.472656 313.84375 " fill-opacity="1" fill-rule="nonzero"/><path fill="#000000" d="M 734.128906 304.273438 L 735.128906 304.273438 L 735.128906 314.832031 L 734.128906 314.832031 Z M 734.128906 304.273438 " fill-opacity="1" fill-rule="nonzero"/><path fill="#000000" d="M 734.492188 306.121094 C 736.828125 306.121094 736.828125 302.558594 734.492188 302.558594 C 732.164062 302.558594 732.164062 306.121094 734.492188 306.121094 Z M 734.492188 306.121094 " fill-opacity="1" fill-rule="nonzero"/><path fill="#000000" d="M 711.144531 302.953125 L 712.476562 302.953125 L 712.476562 345.851562 L 711.144531 345.851562 Z M 711.144531 302.953125 " fill-opacity="1" fill-rule="nonzero"/><path fill="#000000" d="M 704.148438 322.09375 L 705.148438 322.09375 L 705.148438 345.851562 L 704.148438 345.851562 Z M 704.148438 322.09375 " fill-opacity="1" fill-rule="nonzero"/><path fill="#000000" d="M 695.820312 331.664062 L 696.820312 331.664062 L 696.820312 345.851562 L 695.820312 345.851562 Z M 695.820312 331.664062 " fill-opacity="1" fill-rule="nonzero"/><path fill="#000000" d="M 686.160156 331.664062 L 695.820312 331.664062 L 695.820312 332.652344 L 686.160156 332.652344 Z M 686.160156 331.664062 " fill-opacity="1" fill-rule="nonzero"/><path fill="#000000" d="M 684.828125 314.832031 L 686.160156 314.832031 L 686.160156 332.652344 L 684.828125 332.652344 Z M 684.828125 314.832031 " fill-opacity="1" fill-rule="nonzero"/><path fill="#000000" d="M 688.492188 337.605469 L 689.824219 337.605469 L 689.824219 345.851562 L 688.492188 345.851562 Z M 688.492188 337.605469 " fill-opacity="1" fill-rule="nonzero"/><path fill="#000000" d="M 676.5 337.605469 L 688.492188 337.605469 L 688.492188 338.59375 L 676.5 338.59375 Z M 676.5 337.605469 " fill-opacity="1" fill-rule="nonzero"/><path fill="#000000" d="M 681.164062 342.222656 L 682.496094 342.222656 L 682.496094 345.851562 L 681.164062 345.851562 Z M 681.164062 342.222656 " fill-opacity="1" fill-rule="nonzero"/><path fill="#000000" d="M 659.84375 342.222656 L 681.164062 342.222656 L 681.164062 343.539062 L 659.84375 343.539062 Z M 659.84375 342.222656 " fill-opacity="1" fill-rule="nonzero"/><path fill="#000000" d="M 659.644531 345.289062 C 661.976562 345.289062 661.976562 341.726562 659.644531 341.726562 C 657.347656 341.726562 657.347656 345.289062 659.644531 345.289062 Z M 659.644531 345.289062 " fill-opacity="1" fill-rule="nonzero"/><path fill="#000000" d="M 675.832031 340.339844 C 678.164062 340.339844 678.164062 336.777344 675.832031 336.777344 C 673.503906 336.777344 673.503906 340.339844 675.832031 340.339844 Z M 675.832031 340.339844 " fill-opacity="1" fill-rule="nonzero"/><path fill="#000000" d="M 684.992188 317.207031 C 687.328125 317.207031 687.328125 313.644531 684.992188 313.644531 C 682.664062 313.644531 682.695312 317.207031 684.992188 317.207031 Z M 684.992188 317.207031 " fill-opacity="1" fill-rule="nonzero"/><path fill="#000000" d="M 703.949219 324.136719 C 706.28125 324.136719 706.28125 320.574219 703.949219 320.574219 C 701.648438 320.574219 701.648438 324.136719 703.949219 324.136719 Z M 703.949219 324.136719 " fill-opacity="1" fill-rule="nonzero"/><g clip-path="url(#d330c1e35c)"><path fill="#000000" d="M 711.339844 304.371094 C 713.675781 304.371094 713.675781 300.808594 711.339844 300.808594 C 709.011719 300.808594 709.011719 304.371094 711.339844 304.371094 Z M 711.339844 304.371094 " fill-opacity="1" fill-rule="nonzero"/></g><path fill="#000000" d="M 741.125 360.042969 L 759.113281 360.042969 L 759.113281 361.359375 L 741.125 361.359375 Z M 741.125 360.042969 " fill-opacity="1" fill-rule="nonzero"/><path fill="#000000" d="M 741.125 368.292969 L 755.445312 368.292969 L 755.445312 369.609375 L 741.125 369.609375 Z M 741.125 368.292969 " fill-opacity="1" fill-rule="nonzero"/><path fill="#000000" d="M 754.445312 369.609375 L 755.445312 369.609375 L 755.445312 386.109375 L 754.445312 386.109375 Z M 754.445312 369.609375 " fill-opacity="1" fill-rule="nonzero"/><path fill="#000000" d="M 759.042969 362.679688 C 761.378906 362.679688 761.378906 359.117188 759.042969 359.117188 C 756.714844 359.117188 756.714844 362.679688 759.042969 362.679688 Z M 759.042969 362.679688 " fill-opacity="1" fill-rule="nonzero"/><path fill="#000000" d="M 755.046875 388.1875 C 757.378906 388.1875 757.378906 384.625 755.046875 384.625 C 752.714844 384.625 752.714844 388.1875 755.046875 388.1875 Z M 755.046875 388.1875 " fill-opacity="1" fill-rule="nonzero"/><path fill="#000000" d="M 728.132812 383.800781 L 729.132812 383.800781 L 729.132812 403.929688 L 728.132812 403.929688 Z M 728.132812 383.800781 " fill-opacity="1" fill-rule="nonzero"/><path fill="#000000" d="M 728.132812 403.929688 L 748.449219 403.929688 L 748.449219 404.917969 L 728.132812 404.917969 Z M 728.132812 403.929688 " fill-opacity="1" fill-rule="nonzero"/><path fill="#000000" d="M 720.804688 383.800781 L 722.136719 383.800781 L 722.136719 412.179688 L 720.804688 412.179688 Z M 720.804688 383.800781 " fill-opacity="1" fill-rule="nonzero"/><path fill="#000000" d="M 720.804688 412.179688 L 740.121094 412.179688 L 740.121094 413.5 L 720.804688 413.5 Z M 720.804688 412.179688 " fill-opacity="1" fill-rule="nonzero"/><path fill="#000000" d="M 712.476562 383.800781 L 713.476562 383.800781 L 713.476562 412.179688 L 712.476562 412.179688 Z M 712.476562 383.800781 " fill-opacity="1" fill-rule="nonzero"/><path fill="#000000" d="M 705.214844 424.058594 L 690.824219 424.058594 L 690.824219 422.738281 L 704.714844 422.738281 L 705.148438 422.507812 L 705.148438 382.480469 L 706.480469 382.480469 L 706.480469 423.003906 Z M 705.214844 424.058594 " fill-opacity="1" fill-rule="nonzero"/><path fill="#000000" d="M 696.820312 382.480469 L 698.152344 382.480469 L 698.152344 414.488281 L 696.820312 414.488281 Z M 696.820312 382.480469 " fill-opacity="1" fill-rule="nonzero"/><path fill="#000000" d="M 688.425781 420.429688 L 676.5 420.429688 L 676.5 419.441406 L 687.925781 419.441406 L 688.492188 418.976562 L 688.492188 381.488281 L 689.824219 381.488281 L 689.824219 419.441406 Z M 688.425781 420.429688 " fill-opacity="1" fill-rule="nonzero"/><path fill="#000000" d="M 681.261719 400.296875 L 666.839844 400.296875 L 666.839844 399.308594 L 680.761719 399.308594 L 681.164062 398.8125 L 681.164062 381.488281 L 682.496094 381.488281 L 682.496094 399.277344 Z M 681.261719 400.296875 " fill-opacity="1" fill-rule="nonzero"/><path fill="#000000" d="M 748.253906 406.371094 C 750.585938 406.371094 750.585938 402.808594 748.253906 402.808594 C 745.917969 402.808594 745.917969 406.371094 748.253906 406.371094 Z M 748.253906 406.371094 " fill-opacity="1" fill-rule="nonzero"/><path fill="#000000" d="M 739.65625 414.851562 C 741.988281 414.851562 741.988281 411.289062 739.65625 411.289062 C 737.328125 411.289062 737.359375 414.851562 739.65625 414.851562 Z M 739.65625 414.851562 " fill-opacity="1" fill-rule="nonzero"/><path fill="#000000" d="M 712.542969 414.257812 C 714.875 414.257812 714.875 410.695312 712.542969 410.695312 C 710.210938 410.695312 710.210938 414.257812 712.542969 414.257812 Z M 712.542969 414.257812 " fill-opacity="1" fill-rule="nonzero"/><path fill="#000000" d="M 696.953125 416.832031 C 699.285156 416.832031 699.285156 413.269531 696.953125 413.269531 C 694.65625 413.269531 694.65625 416.832031 696.953125 416.832031 Z M 696.953125 416.832031 " fill-opacity="1" fill-rule="nonzero"/><g clip-path="url(#8f08b13017)"><path fill="#000000" d="M 690.589844 425.738281 C 692.921875 425.738281 692.921875 422.175781 690.589844 422.175781 C 688.257812 422.175781 688.257812 425.738281 690.589844 425.738281 Z M 690.589844 425.738281 " fill-opacity="1" fill-rule="nonzero"/></g><path fill="#000000" d="M 676 421.78125 C 678.332031 421.78125 678.332031 418.21875 676 418.21875 C 673.703125 418.21875 673.703125 421.78125 676 421.78125 Z M 676 421.78125 " fill-opacity="1" fill-rule="nonzero"/><path fill="#000000" d="M 666.238281 401.816406 C 668.574219 401.816406 668.574219 398.253906 666.238281 398.253906 C 663.90625 398.253906 663.90625 401.816406 666.238281 401.816406 Z M 666.238281 401.816406 " fill-opacity="1" fill-rule="nonzero"/><path fill="#000000" d="M 648.851562 356.410156 L 672.835938 356.410156 L 672.835938 357.730469 L 648.851562 357.730469 Z M 648.851562 356.410156 " fill-opacity="1" fill-rule="nonzero"/><path fill="#000000" d="M 639.523438 364.660156 L 674.167969 364.660156 L 674.167969 365.980469 L 639.523438 365.980469 Z M 639.523438 364.660156 " fill-opacity="1" fill-rule="nonzero"/><path fill="#000000" d="M 638.191406 344.53125 L 639.523438 344.53125 L 639.523438 365.980469 L 638.191406 365.980469 Z M 638.191406 344.53125 " fill-opacity="1" fill-rule="nonzero"/><path fill="#000000" d="M 651.515625 388.417969 L 650.183594 388.417969 L 650.183594 372.714844 L 650.816406 371.917969 L 674.167969 371.917969 L 674.167969 372.910156 L 651.316406 372.910156 L 651.515625 373.207031 Z M 651.515625 388.417969 " fill-opacity="1" fill-rule="nonzero"/><path fill="#000000" d="M 638.691406 346.675781 C 641.023438 346.675781 641.023438 343.113281 638.691406 343.113281 C 636.394531 343.113281 636.394531 346.675781 638.691406 346.675781 Z M 638.691406 346.675781 " fill-opacity="1" fill-rule="nonzero"/><path fill="#000000" d="M 649.082031 358.917969 C 651.417969 358.917969 651.417969 355.355469 649.082031 355.355469 C 646.753906 355.355469 646.753906 358.917969 649.082031 358.917969 Z M 649.082031 358.917969 " fill-opacity="1" fill-rule="nonzero"/><path fill="#000000" d="M 650.285156 390.730469 C 652.613281 390.730469 652.613281 387.164062 650.285156 387.164062 C 647.953125 387.199219 647.953125 390.730469 650.285156 390.730469 Z M 650.285156 390.730469 " fill-opacity="1" fill-rule="nonzero"/><path fill="#000000" d="M 148.226562 397.113281 L 148.226562 394.46875 L 145.402344 394.46875 L 145.402344 397.113281 Z M 150.753906 393.148438 L 150.753906 398.433594 C 150.753906 399.171875 150.15625 399.753906 149.414062 399.753906 L 144.210938 399.753906 C 143.46875 399.753906 143.023438 399.171875 143.023438 398.433594 L 143.023438 393.148438 C 143.023438 392.5625 143.46875 391.972656 144.210938 391.972656 L 149.414062 391.972656 C 150.160156 391.828125 150.753906 392.5625 150.753906 393.148438 Z M 150.753906 393.148438 " fill-opacity="1" fill-rule="nonzero"/><path fill="#000000" d="M 133.957031 391.828125 L 139.160156 391.828125 C 139.90625 391.828125 140.5 392.414062 140.5 393.003906 L 140.5 398.289062 C 140.5 399.023438 139.90625 399.609375 139.160156 399.609375 L 133.957031 399.609375 C 133.363281 399.609375 132.769531 399.023438 132.769531 398.289062 L 132.769531 393.003906 C 132.769531 392.5625 133.363281 391.828125 133.957031 391.828125 Z M 138.121094 394.46875 L 135.445312 394.46875 L 135.445312 397.113281 L 138.121094 397.113281 Z M 138.121094 394.46875 " fill-opacity="1" fill-rule="nonzero"/><path fill="#000000" d="M 135.742188 471.261719 C 136.042969 471.261719 136.335938 471.113281 136.636719 470.96875 C 136.933594 470.675781 137.082031 470.378906 137.230469 469.792969 C 137.378906 469.058594 137.527344 467.882812 137.527344 465.976562 C 137.527344 464.359375 137.378906 463.183594 137.230469 462.304688 C 137.082031 461.714844 136.933594 461.273438 136.636719 461.128906 C 136.335938 460.835938 136.042969 460.6875 135.742188 460.6875 C 135.445312 460.6875 135.148438 460.835938 134.851562 461.128906 C 134.554688 461.273438 134.402344 461.714844 134.257812 462.160156 C 133.957031 462.890625 133.957031 464.214844 133.957031 465.976562 C 133.957031 467.738281 133.957031 468.910156 134.109375 469.648438 C 134.402344 470.378906 134.554688 470.675781 134.851562 470.96875 C 135.148438 471.113281 135.296875 471.261719 135.742188 471.261719 Z M 135.742188 458.488281 C 137.082031 458.488281 138.269531 458.929688 139.015625 459.953125 C 140.054688 461.132812 140.5 463.183594 140.5 465.976562 C 140.5 468.765625 140.050781 470.820312 139.015625 472.144531 C 138.269531 473.023438 137.082031 473.609375 135.742188 473.609375 C 134.257812 473.609375 133.070312 473.023438 132.324219 471.992188 C 131.433594 470.820312 130.988281 468.910156 130.988281 465.976562 C 130.988281 463.039062 131.433594 461.132812 132.324219 459.953125 C 133.070312 458.929688 134.257812 458.488281 135.742188 458.488281 Z M 135.742188 458.488281 " fill-opacity="1" fill-rule="nonzero"/><path fill="#000000" d="M 135.742188 428.535156 C 136.042969 428.535156 136.335938 428.535156 136.636719 428.238281 C 136.933594 428.09375 137.082031 427.652344 137.230469 427.066406 C 137.378906 426.332031 137.527344 425.160156 137.527344 423.246094 C 137.527344 421.632812 137.378906 420.457031 137.230469 419.574219 C 137.082031 418.992188 136.933594 418.550781 136.636719 418.402344 C 136.335938 418.109375 136.042969 417.960938 135.742188 417.960938 C 135.445312 417.960938 135.148438 418.109375 134.851562 418.402344 C 134.554688 418.550781 134.402344 418.992188 134.257812 419.574219 C 133.957031 420.167969 133.957031 421.488281 133.957031 423.246094 C 133.957031 425.011719 133.957031 426.183594 134.109375 426.917969 C 134.402344 427.652344 134.554688 428.09375 134.851562 428.238281 C 135.148438 428.535156 135.296875 428.535156 135.742188 428.535156 Z M 135.742188 415.761719 C 137.082031 415.761719 138.269531 416.199219 139.015625 417.230469 C 140.054688 418.402344 140.5 420.605469 140.5 423.25 C 140.5 426.039062 140.050781 428.238281 139.015625 429.414062 C 138.269531 430.445312 137.082031 430.886719 135.742188 430.886719 C 134.257812 430.886719 133.070312 430.296875 132.324219 429.269531 C 131.433594 428.09375 130.988281 426.183594 130.988281 423.25 C 130.988281 420.605469 131.433594 418.402344 132.324219 417.230469 C 133.070312 416.199219 134.257812 415.761719 135.742188 415.761719 Z M 135.742188 415.761719 " fill-opacity="1" fill-rule="nonzero"/><path fill="#000000" d="M 135.742188 437.199219 C 137.082031 437.199219 138.269531 437.636719 139.015625 438.667969 C 140.054688 439.839844 140.5 442.046875 140.5 444.6875 C 140.5 447.476562 140.050781 449.675781 139.015625 450.855469 C 138.269531 451.882812 137.082031 452.324219 135.742188 452.324219 C 134.257812 452.324219 133.070312 451.734375 132.324219 450.710938 C 131.433594 449.535156 130.988281 447.476562 130.988281 444.6875 C 130.988281 441.894531 131.433594 439.84375 132.324219 438.667969 C 133.070312 437.636719 134.257812 437.199219 135.742188 437.199219 Z M 135.742188 449.972656 C 136.042969 449.972656 136.335938 449.824219 136.636719 449.675781 C 136.933594 449.53125 137.082031 449.089844 137.230469 448.5 C 137.378906 447.769531 137.527344 446.59375 137.527344 444.683594 C 137.527344 443.070312 137.378906 441.894531 137.230469 441.011719 C 137.082031 440.425781 136.933594 439.988281 136.636719 439.839844 C 136.335938 439.546875 136.042969 439.394531 135.742188 439.394531 C 135.445312 439.394531 135.148438 439.546875 134.851562 439.839844 C 134.554688 439.988281 134.402344 440.425781 134.257812 440.867188 C 133.957031 441.601562 133.957031 442.921875 133.957031 444.683594 C 133.957031 446.445312 133.957031 447.621094 134.109375 448.355469 C 134.402344 449.089844 134.554688 449.53125 134.851562 449.675781 C 135.148438 449.824219 135.296875 449.972656 135.742188 449.972656 Z M 135.742188 449.972656 " fill-opacity="1" fill-rule="nonzero"/><path fill="#000000" d="M 128.015625 397.113281 L 128.015625 394.46875 L 125.34375 394.46875 L 125.34375 397.113281 Z M 129.207031 399.753906 L 124.003906 399.753906 C 123.410156 399.753906 122.816406 399.171875 122.816406 398.433594 L 122.816406 393.148438 C 122.816406 392.5625 123.410156 391.972656 124.003906 391.972656 L 129.207031 391.972656 C 129.949219 391.972656 130.542969 392.5625 130.542969 393.148438 L 130.542969 398.433594 C 130.539062 399.171875 129.949219 399.753906 129.207031 399.753906 Z M 129.207031 399.753906 " fill-opacity="1" fill-rule="nonzero"/><path fill="#000000" d="M 123.558594 420.019531 C 122.667969 420.898438 121.328125 421.632812 119.992188 422.074219 L 119.992188 419.574219 C 120.734375 419.285156 121.476562 418.84375 122.371094 418.257812 C 123.261719 417.519531 123.855469 416.789062 124.152344 415.90625 L 126.382812 415.90625 L 126.382812 430.734375 L 123.558594 430.734375 Z M 123.558594 420.019531 " fill-opacity="1" fill-rule="nonzero"/><path fill="#000000" d="M 119.992188 443.363281 L 119.992188 440.867188 C 120.734375 440.574219 121.476562 440.132812 122.371094 439.398438 C 123.261719 438.8125 123.855469 438.078125 124.152344 437.199219 L 126.382812 437.199219 L 126.382812 452.03125 L 123.558594 452.03125 L 123.558594 441.308594 C 122.667969 442.1875 121.328125 443.070312 119.992188 443.363281 Z M 119.992188 443.363281 " fill-opacity="1" fill-rule="nonzero"/><path fill="#000000" d="M 119.992188 464.800781 L 119.992188 462.304688 C 120.734375 462.011719 121.476562 461.570312 122.371094 460.835938 C 123.261719 460.25 123.855469 459.515625 124.152344 458.636719 L 126.382812 458.636719 L 126.382812 473.464844 L 123.558594 473.464844 L 123.558594 462.601562 C 122.667969 463.625 121.328125 464.359375 119.992188 464.800781 Z M 119.992188 464.800781 " fill-opacity="1" fill-rule="nonzero"/><path fill="#000000" d="M 115.089844 423.246094 C 115.089844 421.632812 114.9375 420.457031 114.792969 419.574219 C 114.644531 418.992188 114.492188 418.550781 114.199219 418.402344 C 113.898438 418.109375 113.605469 417.960938 113.304688 417.960938 C 113.007812 417.960938 112.710938 418.109375 112.414062 418.402344 C 112.117188 418.550781 111.964844 418.992188 111.816406 419.574219 C 111.671875 420.167969 111.519531 421.488281 111.519531 423.246094 C 111.519531 425.011719 111.519531 426.183594 111.816406 426.917969 C 111.964844 427.652344 112.117188 428.09375 112.414062 428.238281 C 112.710938 428.535156 113.007812 428.535156 113.304688 428.535156 C 113.605469 428.535156 113.898438 428.535156 114.199219 428.238281 C 114.492188 428.09375 114.644531 427.652344 114.792969 427.066406 C 114.9375 426.332031 115.089844 425.160156 115.089844 423.246094 Z M 116.574219 417.230469 C 117.617188 418.402344 118.058594 420.605469 118.058594 423.25 C 118.058594 426.039062 117.613281 428.238281 116.574219 429.414062 C 115.832031 430.445312 114.792969 430.886719 113.304688 430.886719 C 111.816406 430.886719 110.78125 430.296875 109.886719 429.269531 C 108.996094 428.09375 108.546875 426.183594 108.546875 423.25 C 108.546875 420.605469 108.996094 418.402344 110.035156 417.230469 C 110.777344 416.199219 111.816406 415.761719 113.304688 415.761719 C 114.789062 415.761719 115.832031 416.199219 116.574219 417.230469 Z M 116.574219 417.230469 " fill-opacity="1" fill-rule="nonzero"/><path fill="#000000" d="M 115.089844 444.683594 C 115.089844 443.070312 114.9375 441.894531 114.792969 441.015625 C 114.644531 440.425781 114.492188 439.988281 114.199219 439.839844 C 113.898438 439.546875 113.605469 439.394531 113.304688 439.394531 C 113.007812 439.394531 112.710938 439.546875 112.414062 439.839844 C 112.117188 439.988281 111.964844 440.425781 111.816406 440.867188 C 111.671875 441.601562 111.519531 442.921875 111.519531 444.683594 C 111.519531 446.445312 111.519531 447.621094 111.816406 448.355469 C 111.964844 449.089844 112.117188 449.53125 112.414062 449.675781 C 112.710938 449.828125 113.007812 449.972656 113.304688 449.972656 C 113.605469 449.972656 113.898438 449.828125 114.199219 449.675781 C 114.492188 449.53125 114.644531 449.089844 114.792969 448.5 C 114.9375 447.621094 115.089844 446.445312 115.089844 444.683594 Z M 116.574219 438.664062 C 117.617188 439.839844 118.058594 442.042969 118.058594 444.683594 C 118.058594 447.476562 117.613281 449.675781 116.574219 450.851562 C 115.832031 451.882812 114.792969 452.324219 113.304688 452.324219 C 111.816406 452.324219 110.78125 451.734375 109.886719 450.707031 C 108.996094 449.53125 108.546875 447.476562 108.546875 444.6875 C 108.546875 441.894531 108.996094 439.839844 110.035156 438.667969 C 110.777344 437.636719 111.816406 437.199219 113.304688 437.199219 C 114.789062 437.199219 115.832031 437.636719 116.574219 438.664062 Z M 116.574219 438.664062 " fill-opacity="1" fill-rule="nonzero"/><path fill="#000000" d="M 115.089844 465.976562 C 115.089844 464.359375 114.9375 463.1875 114.792969 462.304688 C 114.644531 461.714844 114.492188 461.273438 114.199219 461.132812 C 113.898438 460.835938 113.605469 460.6875 113.304688 460.6875 C 113.007812 460.6875 112.710938 460.835938 112.414062 461.132812 C 112.117188 461.273438 111.964844 461.714844 111.816406 462.160156 C 111.671875 462.890625 111.519531 464.214844 111.519531 465.976562 C 111.519531 467.738281 111.519531 468.914062 111.816406 469.648438 C 111.964844 470.378906 112.117188 470.675781 112.414062 470.96875 C 112.710938 471.117188 113.007812 471.261719 113.304688 471.261719 C 113.605469 471.261719 113.898438 471.117188 114.199219 470.96875 C 114.492188 470.675781 114.644531 470.378906 114.792969 469.792969 C 114.9375 469.058594 115.089844 467.738281 115.089844 465.976562 Z M 116.574219 459.953125 C 117.617188 461.132812 118.058594 463.1875 118.058594 465.976562 C 118.058594 468.765625 117.613281 470.820312 116.574219 472.144531 C 115.832031 473.027344 114.792969 473.609375 113.304688 473.609375 C 111.816406 473.609375 110.78125 473.023438 109.886719 471.996094 C 108.996094 470.820312 108.546875 468.914062 108.546875 465.976562 C 108.546875 463.1875 108.996094 461.132812 110.035156 459.953125 C 110.777344 458.929688 111.816406 458.488281 113.304688 458.488281 C 114.789062 458.488281 115.832031 458.929688 116.574219 459.953125 Z M 116.574219 459.953125 " fill-opacity="1" fill-rule="nonzero"/><path fill="#000000" d="M 104.238281 415.761719 L 104.238281 430.589844 L 101.417969 430.589844 L 101.417969 419.871094 C 100.375 420.753906 99.1875 421.488281 97.703125 421.929688 L 97.703125 419.433594 C 98.445312 419.136719 99.1875 418.695312 100.082031 418.109375 C 100.972656 417.375 101.566406 416.640625 101.863281 415.761719 Z M 104.238281 415.761719 " fill-opacity="1" fill-rule="nonzero"/><path fill="#000000" d="M 104.238281 437.199219 L 104.238281 452.027344 L 101.417969 452.027344 L 101.417969 441.308594 C 100.375 442.1875 99.1875 442.921875 97.703125 443.363281 L 97.703125 440.867188 C 98.445312 440.574219 99.1875 440.132812 100.082031 439.398438 C 100.972656 438.8125 101.566406 438.078125 101.863281 437.199219 Z M 104.238281 437.199219 " fill-opacity="1" fill-rule="nonzero"/><path fill="#000000" d="M 104.238281 458.488281 L 104.238281 473.316406 L 101.417969 473.316406 L 101.417969 462.449219 C 100.375 463.480469 99.1875 464.214844 97.703125 464.65625 L 97.703125 462.160156 C 98.445312 461.867188 99.1875 461.425781 100.082031 460.691406 C 100.972656 460.101562 101.566406 459.371094 101.863281 458.488281 Z M 104.238281 458.488281 " fill-opacity="1" fill-rule="nonzero"/><path fill="#000000" d="M 92.652344 423.246094 C 92.652344 421.632812 92.652344 420.457031 92.351562 419.574219 C 92.207031 418.992188 92.054688 418.550781 91.757812 418.402344 C 91.460938 418.109375 91.164062 417.960938 90.867188 417.960938 C 90.566406 417.960938 90.273438 418.109375 89.972656 418.402344 C 89.679688 418.550781 89.527344 418.992188 89.382812 419.574219 C 89.234375 420.167969 89.082031 421.488281 89.082031 423.246094 C 89.082031 425.011719 89.234375 426.183594 89.382812 426.917969 C 89.527344 427.652344 89.679688 428.09375 89.972656 428.238281 C 90.273438 428.535156 90.566406 428.535156 90.867188 428.535156 C 91.164062 428.535156 91.460938 428.535156 91.757812 428.238281 C 92.054688 428.09375 92.207031 427.652344 92.351562 427.066406 C 92.652344 426.332031 92.652344 425.160156 92.652344 423.246094 Z M 87.304688 429.269531 C 86.410156 428.09375 85.964844 426.183594 85.964844 423.246094 C 85.964844 420.605469 86.410156 418.402344 87.449219 417.230469 C 88.191406 416.199219 89.382812 415.757812 90.71875 415.757812 C 92.203125 415.757812 93.246094 416.199219 94.136719 417.230469 C 95.027344 418.402344 95.472656 420.605469 95.472656 423.246094 C 95.472656 426.039062 95.027344 428.238281 94.136719 429.414062 C 93.246094 430.445312 92.207031 430.882812 90.71875 430.882812 C 89.382812 431.03125 88.191406 430.445312 87.304688 429.269531 Z M 87.304688 429.269531 " fill-opacity="1" fill-rule="nonzero"/><path fill="#000000" d="M 92.652344 444.683594 C 92.652344 443.070312 92.652344 441.894531 92.351562 441.015625 C 92.207031 440.425781 92.054688 439.988281 91.757812 439.839844 C 91.460938 439.546875 91.164062 439.394531 90.867188 439.394531 C 90.566406 439.394531 90.273438 439.546875 89.972656 439.839844 C 89.679688 439.988281 89.527344 440.425781 89.382812 440.867188 C 89.234375 441.601562 89.082031 442.921875 89.082031 444.683594 C 89.082031 446.445312 89.234375 447.621094 89.382812 448.355469 C 89.527344 449.089844 89.679688 449.53125 89.972656 449.675781 C 90.273438 449.828125 90.566406 449.972656 90.867188 449.972656 C 91.164062 449.972656 91.460938 449.828125 91.757812 449.675781 C 92.054688 449.53125 92.207031 449.089844 92.351562 448.5 C 92.652344 447.621094 92.652344 446.445312 92.652344 444.683594 Z M 87.304688 450.707031 C 86.410156 449.53125 85.964844 447.476562 85.964844 444.683594 C 85.964844 441.894531 86.410156 439.839844 87.449219 438.664062 C 88.191406 437.636719 89.382812 437.195312 90.71875 437.195312 C 92.203125 437.195312 93.246094 437.636719 94.136719 438.664062 C 95.027344 439.839844 95.472656 442.042969 95.472656 444.683594 C 95.472656 447.476562 95.027344 449.675781 94.136719 450.851562 C 93.246094 451.882812 92.207031 452.324219 90.71875 452.324219 C 89.382812 452.320312 88.191406 451.734375 87.304688 450.707031 Z M 87.304688 450.707031 " fill-opacity="1" fill-rule="nonzero"/><path fill="#000000" d="M 92.351562 469.792969 C 92.652344 469.058594 92.652344 467.882812 92.652344 465.976562 C 92.652344 464.359375 92.652344 463.183594 92.351562 462.304688 C 92.207031 461.714844 92.054688 461.273438 91.757812 461.128906 C 91.460938 460.835938 91.164062 460.6875 90.867188 460.6875 C 90.566406 460.6875 90.273438 460.835938 89.972656 461.128906 C 89.679688 461.273438 89.527344 461.714844 89.382812 462.160156 C 89.234375 462.890625 89.082031 464.214844 89.082031 465.976562 C 89.082031 467.738281 89.234375 468.910156 89.382812 469.648438 C 89.527344 470.378906 89.679688 470.675781 89.972656 470.96875 C 90.273438 471.113281 90.566406 471.261719 90.867188 471.261719 C 91.164062 471.261719 91.460938 471.113281 91.757812 470.96875 C 92.054688 470.675781 92.207031 470.378906 92.351562 469.792969 Z M 87.304688 471.996094 C 86.410156 470.820312 85.964844 468.914062 85.964844 465.976562 C 85.964844 463.1875 86.410156 461.132812 87.449219 459.953125 C 88.191406 458.929688 89.382812 458.488281 90.722656 458.488281 C 92.207031 458.488281 93.246094 458.929688 94.140625 459.953125 C 95.027344 461.132812 95.472656 463.1875 95.472656 465.976562 C 95.472656 468.765625 95.027344 470.820312 94.140625 472.144531 C 93.246094 473.027344 92.207031 473.609375 90.722656 473.609375 C 89.382812 473.609375 88.191406 473.023438 87.304688 471.996094 Z M 87.304688 471.996094 " fill-opacity="1" fill-rule="nonzero"/><path fill="#000000" d="M 78.832031 462.601562 C 77.789062 463.625 76.605469 464.359375 75.117188 464.800781 L 75.117188 462.304688 C 75.859375 462.011719 76.75 461.570312 77.492188 460.835938 C 78.382812 460.25 78.980469 459.515625 79.277344 458.636719 L 81.652344 458.636719 L 81.652344 473.464844 L 78.832031 473.464844 Z M 78.832031 462.601562 " fill-opacity="1" fill-rule="nonzero"/><path fill="#000000" d="M 78.832031 441.308594 C 77.789062 442.1875 76.605469 442.921875 75.117188 443.363281 L 75.117188 440.867188 C 75.859375 440.574219 76.75 440.132812 77.492188 439.398438 C 78.382812 438.8125 78.980469 438.078125 79.277344 437.199219 L 81.652344 437.199219 L 81.652344 452.027344 L 78.832031 452.027344 Z M 78.832031 441.308594 " fill-opacity="1" fill-rule="nonzero"/><path fill="#000000" d="M 78.832031 420.019531 C 77.789062 420.898438 76.605469 421.632812 75.117188 422.074219 L 75.117188 419.574219 C 75.859375 419.285156 76.75 418.84375 77.492188 418.257812 C 78.382812 417.519531 78.980469 416.789062 79.277344 415.90625 L 81.652344 415.90625 L 81.652344 430.734375 L 78.832031 430.734375 Z M 78.832031 420.019531 " fill-opacity="1" fill-rule="nonzero"/><path fill="#000000" d="M 64.265625 406.953125 C 63.820312 406.953125 63.375 407.097656 62.933594 407.539062 C 62.632812 407.832031 62.335938 408.273438 62.335938 408.859375 L 62.335938 479.191406 C 62.335938 479.777344 62.632812 480.21875 62.933594 480.511719 C 63.375 480.953125 63.820312 481.097656 64.265625 481.097656 L 149.5625 481.097656 C 150.007812 481.097656 150.453125 480.953125 150.902344 480.511719 C 151.199219 480.21875 151.492188 479.777344 151.492188 479.191406 L 151.492188 408.855469 C 151.492188 408.273438 151.199219 407.832031 150.902344 407.539062 C 150.453125 407.09375 150.007812 406.949219 149.5625 406.949219 L 64.265625 406.949219 Z M 149.5625 483.742188 L 64.265625 483.742188 C 63.078125 483.742188 62.042969 483.304688 61.148438 482.421875 C 60.40625 481.6875 59.808594 480.511719 59.808594 479.335938 L 59.808594 409.007812 C 59.808594 407.832031 60.40625 406.65625 61.148438 405.921875 C 62.042969 405.039062 63.078125 404.601562 64.265625 404.601562 L 149.5625 404.601562 C 150.753906 404.601562 151.792969 405.039062 152.683594 405.921875 C 153.425781 406.65625 154.023438 407.832031 154.023438 409.007812 L 154.023438 479.335938 C 154.023438 480.511719 153.425781 481.6875 152.683594 482.421875 C 151.792969 483.304688 150.753906 483.742188 149.5625 483.742188 Z M 149.5625 483.742188 " fill-opacity="1" fill-rule="nonzero"/><g clip-path="url(#221b7ba321)"><path fill="#000000" d="M 56.246094 384.195312 L 157.589844 384.195312 C 158.328125 384.195312 158.773438 384.78125 158.773438 385.367188 L 158.925781 486.824219 C 158.925781 487.5625 158.328125 488.144531 157.589844 488.144531 L 56.097656 488.144531 C 55.351562 488.144531 54.761719 487.5625 54.761719 486.824219 L 54.761719 385.515625 C 54.761719 384.78125 55.351562 384.195312 56.097656 384.195312 Z M 156.25 386.835938 L 57.285156 386.835938 L 57.285156 485.800781 L 156.398438 485.800781 Z M 156.25 386.835938 " fill-opacity="1" fill-rule="nonzero"/></g></svg>