<svg xmlns="http://www.w3.org/2000/svg" xmlns:xlink="http://www.w3.org/1999/xlink" width="1080" zoomAndPan="magnify" viewBox="0 0 810 809.999993" height="1080" preserveAspectRatio="xMidYMid meet" version="1.0"><defs><clipPath id="4054655f23"><path d="M 126.871094 179.191406 L 683.882812 179.191406 L 683.882812 643.675781 L 126.871094 643.675781 Z M 126.871094 179.191406 " clip-rule="nonzero"/></clipPath><clipPath id="565e4b614b"><path d="M 165.121094 179.191406 L 644.878906 179.191406 C 655.023438 179.191406 664.753906 183.222656 671.925781 190.394531 C 679.101562 197.570312 683.128906 207.296875 683.128906 217.441406 L 683.128906 605.425781 C 683.128906 615.570312 679.101562 625.296875 671.925781 632.472656 C 664.753906 639.644531 655.023438 643.675781 644.878906 643.675781 L 165.121094 643.675781 C 154.976562 643.675781 145.246094 639.644531 138.074219 632.472656 C 130.898438 625.296875 126.871094 615.570312 126.871094 605.425781 L 126.871094 217.441406 C 126.871094 207.296875 130.898438 197.570312 138.074219 190.394531 C 145.246094 183.222656 154.976562 179.191406 165.121094 179.191406 Z M 165.121094 179.191406 " clip-rule="nonzero"/></clipPath><clipPath id="f9ff97513e"><path d="M 360.585938 207.453125 L 483.777344 207.453125 L 483.777344 330.65625 L 360.585938 330.65625 Z M 360.585938 207.453125 " clip-rule="nonzero"/></clipPath><clipPath id="882e49329d"><path d="M 422.183594 207.453125 L 428.15625 212.507812 L 435.058594 208.800781 L 439.847656 214.980469 L 447.371094 212.78125 L 450.761719 219.8125 L 458.582031 219.21875 L 460.433594 226.800781 L 468.207031 227.835938 L 468.425781 235.632812 L 475.816406 238.253906 L 474.402344 245.925781 L 481.082031 250.019531 L 478.097656 257.230469 L 483.777344 262.613281 L 479.347656 269.054688 L 483.777344 275.492188 L 478.097656 280.875 L 481.082031 288.089844 L 474.402344 292.179688 L 475.816406 299.855469 L 468.425781 302.472656 L 468.207031 310.273438 L 460.433594 311.304688 L 458.582031 318.890625 L 450.761719 318.292969 L 447.371094 325.328125 L 439.847656 323.128906 L 435.058594 329.308594 L 428.15625 325.597656 L 422.183594 330.65625 L 416.203125 325.597656 L 409.304688 329.308594 L 404.515625 323.128906 L 396.992188 325.328125 L 393.597656 318.292969 L 385.777344 318.890625 L 383.929688 311.304688 L 376.15625 310.273438 L 375.933594 302.472656 L 368.546875 299.855469 L 369.960938 292.179688 L 363.277344 288.089844 L 366.265625 280.875 L 360.585938 275.492188 L 365.015625 269.054688 L 360.585938 262.613281 L 366.265625 257.230469 L 363.277344 250.019531 L 369.960938 245.925781 L 368.546875 238.253906 L 375.933594 235.632812 L 376.15625 227.835938 L 383.929688 226.800781 L 385.777344 219.21875 L 393.597656 219.8125 L 396.992188 212.78125 L 404.515625 214.980469 L 409.304688 208.800781 L 416.203125 212.507812 Z M 422.183594 207.453125 " clip-rule="nonzero"/></clipPath><clipPath id="f21b799502"><path d="M 315.269531 503.152344 L 438.453125 503.152344 L 438.453125 626.351562 L 315.269531 626.351562 Z M 315.269531 503.152344 " clip-rule="nonzero"/></clipPath><clipPath id="3acbec51a0"><path d="M 376.863281 503.152344 L 382.835938 508.207031 L 389.738281 504.5 L 394.527344 510.679688 L 402.054688 508.476562 L 405.445312 515.511719 L 413.265625 514.917969 L 415.113281 522.5 L 422.886719 523.535156 L 423.109375 531.332031 L 430.5 533.953125 L 429.082031 541.625 L 435.761719 545.71875 L 432.777344 552.929688 L 438.453125 558.3125 L 434.027344 564.753906 L 438.453125 571.191406 L 432.777344 576.574219 L 435.761719 583.789062 L 429.082031 587.878906 L 430.5 595.554688 L 423.109375 598.171875 L 422.886719 605.972656 L 415.113281 607.003906 L 413.265625 614.589844 L 405.445312 613.992188 L 402.054688 621.027344 L 394.527344 618.828125 L 389.738281 625.007812 L 382.835938 621.296875 L 376.863281 626.351562 L 370.886719 621.296875 L 363.984375 625.007812 L 359.195312 618.828125 L 351.671875 621.027344 L 348.28125 613.992188 L 340.457031 614.589844 L 338.613281 607.003906 L 330.835938 605.972656 L 330.613281 598.171875 L 323.226562 595.554688 L 324.640625 587.878906 L 317.960938 583.789062 L 320.949219 576.574219 L 315.269531 571.191406 L 319.699219 564.753906 L 315.269531 558.3125 L 320.949219 552.929688 L 317.960938 545.71875 L 324.640625 541.625 L 323.226562 533.953125 L 330.613281 531.332031 L 330.835938 523.535156 L 338.613281 522.5 L 340.457031 514.917969 L 348.28125 515.511719 L 351.671875 508.476562 L 359.195312 510.679688 L 363.984375 504.5 L 370.886719 508.207031 Z M 376.863281 503.152344 " clip-rule="nonzero"/></clipPath><clipPath id="37c55739f8"><path d="M 544.285156 330.65625 L 667.472656 330.65625 L 667.472656 453.855469 L 544.285156 453.855469 Z M 544.285156 330.65625 " clip-rule="nonzero"/></clipPath><clipPath id="2df93c9055"><path d="M 605.878906 330.65625 L 611.855469 335.710938 L 618.757812 332 L 623.542969 338.179688 L 631.070312 335.980469 L 634.464844 343.015625 L 642.285156 342.417969 L 644.128906 350.003906 L 651.90625 351.035156 L 652.128906 358.835938 L 659.515625 361.453125 L 658.101562 369.128906 L 664.78125 373.21875 L 661.796875 380.433594 L 667.472656 385.816406 L 663.042969 392.253906 L 667.472656 398.695312 L 661.796875 404.078125 L 664.78125 411.289062 L 658.101562 415.382812 L 659.515625 423.054688 L 652.128906 425.675781 L 651.90625 433.472656 L 644.128906 434.507812 L 642.285156 442.089844 L 634.464844 441.496094 L 631.070312 448.53125 L 623.542969 446.328125 L 618.757812 452.507812 L 611.855469 448.800781 L 605.878906 453.855469 L 599.90625 448.800781 L 593.003906 452.507812 L 588.214844 446.328125 L 580.691406 448.53125 L 577.296875 441.496094 L 569.476562 442.089844 L 567.628906 434.507812 L 559.855469 433.472656 L 559.632812 425.675781 L 552.246094 423.054688 L 553.65625 415.382812 L 546.976562 411.289062 L 549.964844 404.078125 L 544.285156 398.695312 L 548.714844 392.253906 L 544.285156 385.816406 L 549.964844 380.433594 L 546.976562 373.21875 L 553.65625 369.128906 L 552.246094 361.453125 L 559.632812 358.835938 L 559.855469 351.035156 L 567.628906 350.003906 L 569.476562 342.417969 L 577.296875 343.015625 L 580.691406 335.980469 L 588.214844 338.179688 L 593.003906 332 L 599.90625 335.710938 Z M 605.878906 330.65625 " clip-rule="nonzero"/></clipPath><clipPath id="90f9156883"><path d="M 142.28125 379.949219 L 265.46875 379.949219 L 265.46875 503.152344 L 142.28125 503.152344 Z M 142.28125 379.949219 " clip-rule="nonzero"/></clipPath><clipPath id="151e74c341"><path d="M 203.875 379.949219 L 209.847656 385.007812 L 216.75 381.296875 L 221.539062 387.476562 L 229.0625 385.277344 L 232.453125 392.3125 L 240.277344 391.714844 L 242.125 399.300781 L 249.898438 400.335938 L 250.121094 408.132812 L 257.507812 410.75 L 256.097656 418.425781 L 262.773438 422.515625 L 259.789062 429.730469 L 265.46875 435.113281 L 261.035156 441.554688 L 265.46875 447.992188 L 259.789062 453.375 L 262.773438 460.589844 L 256.097656 464.679688 L 257.507812 472.351562 L 250.121094 474.972656 L 249.898438 482.773438 L 242.125 483.804688 L 240.277344 491.386719 L 232.453125 490.789062 L 229.0625 497.824219 L 221.539062 495.625 L 216.75 501.808594 L 209.847656 498.097656 L 203.875 503.152344 L 197.898438 498.097656 L 190.996094 501.808594 L 186.210938 495.625 L 178.683594 497.824219 L 175.289062 490.789062 L 167.46875 491.386719 L 165.625 483.804688 L 157.847656 482.773438 L 157.625 474.972656 L 150.238281 472.351562 L 151.652344 464.679688 L 144.972656 460.589844 L 147.957031 453.375 L 142.28125 447.992188 L 146.710938 441.554688 L 142.28125 435.113281 L 147.957031 429.730469 L 144.972656 422.515625 L 151.652344 418.425781 L 150.238281 410.75 L 157.625 408.132812 L 157.847656 400.335938 L 165.625 399.300781 L 167.46875 391.714844 L 175.289062 392.3125 L 178.683594 385.277344 L 186.210938 387.476562 L 190.996094 381.296875 L 197.898438 385.007812 Z M 203.875 379.949219 " clip-rule="nonzero"/></clipPath><clipPath id="9722b69a44"><path d="M 415 434.554688 L 571.617188 434.554688 L 571.617188 528.480469 L 415 528.480469 Z M 415 434.554688 " clip-rule="nonzero"/></clipPath><clipPath id="3f2267e327"><path d="M 412.285156 517.960938 L 566.296875 432.230469 L 575.800781 449.3125 L 421.789062 535.039062 Z M 412.285156 517.960938 " clip-rule="nonzero"/></clipPath><clipPath id="89be15acda"><path d="M 416.09375 515.894531 C 566.1875 434.761719 567.957031 436.1875 569.355469 437.820312 C 570.566406 439.558594 571.375 442.332031 571.3125 443.972656 C 571.066406 445.722656 568.808594 447.378906 567.347656 447.386719 C 565.902344 446.984375 563.601562 445.046875 562.75 443.511719 C 561.722656 441.667969 560.914062 438.898438 561.335938 437.460938 C 561.585938 435.710938 564.195312 434.257812 565.8125 434.96875 C 567.085938 435.0625 569.371094 437.410156 570.039062 439.050781 C 571.050781 441.304688 571.3125 443.972656 570.488281 446.445312 C 567.890625 452.3125 556.0625 456.085938 543.917969 463.246094 C 518.515625 478.191406 439.828125 530.4375 422.929688 528.175781 C 419.480469 527.683594 416.636719 525.644531 415.4375 523.496094 C 414.601562 521.550781 416.09375 515.894531 416.09375 515.894531 " clip-rule="nonzero"/></clipPath><clipPath id="edc1b28975"><path d="M 262.28125 386 L 549 386 L 549 445.707031 L 262.28125 445.707031 Z M 262.28125 386 " clip-rule="nonzero"/></clipPath><clipPath id="999c07d9eb"><path d="M 261.578125 431.609375 L 547.734375 384.078125 L 550.9375 403.363281 L 264.78125 450.894531 Z M 261.578125 431.609375 " clip-rule="nonzero"/></clipPath><clipPath id="4579d2e494"><path d="M 268.566406 430.496094 C 545.914062 386.566406 547.648438 388.417969 548.6875 390.382812 C 549.378906 392.40625 548.800781 395.351562 547.644531 396.96875 C 546.140625 398.640625 541.691406 399.738281 539.496094 399.390625 C 537.589844 398.636719 535.394531 396.152344 535.105469 394.417969 C 534.761719 392.339844 535.339844 389.390625 536.902344 388.0625 C 538.40625 386.390625 543.257812 385.582031 545.222656 386.679688 C 547.070312 387.085938 548.976562 389.976562 548.914062 391.769531 C 548.972656 394.253906 547.644531 396.96875 544.8125 399.21875 C 537.125 404.414062 516.960938 405.269531 494.132812 409.417969 C 446.410156 418.058594 294.726562 450.738281 270.867188 444.367188 C 266.015625 443.035156 263.070312 440.316406 262.667969 437.890625 C 262.667969 435.753906 268.566406 430.496094 268.566406 430.496094 " clip-rule="nonzero"/></clipPath><clipPath id="08aee76f67"><path d="M 228.238281 294.253906 L 380.851562 294.253906 L 380.851562 395.808594 L 228.238281 395.808594 Z M 228.238281 294.253906 " clip-rule="nonzero"/></clipPath><clipPath id="5f7cac0041"><path d="M 225.507812 385.707031 L 374.769531 291.953125 L 385.164062 308.507812 L 235.902344 402.261719 Z M 225.507812 385.707031 " clip-rule="nonzero"/></clipPath><clipPath id="ad4858f57f"><path d="M 229.203125 383.441406 C 374.792969 294.484375 376.640625 295.816406 378.121094 297.375 C 379.421875 299.046875 380.375 301.769531 380.402344 303.414062 C 380.242188 305.171875 378.082031 306.945312 376.621094 307.03125 C 375.15625 306.707031 372.757812 304.894531 371.824219 303.40625 C 370.703125 301.621094 369.75 298.898438 370.09375 297.4375 C 370.25 295.679688 372.78125 294.089844 374.429688 294.710938 C 375.710938 294.738281 378.117188 296.960938 378.871094 298.566406 C 379.996094 300.761719 380.402344 303.414062 379.710938 305.925781 C 377.425781 311.921875 365.808594 316.3125 354.0625 324.109375 C 329.484375 340.375 253.671875 396.710938 236.679688 395.347656 C 233.207031 395.039062 230.261719 393.15625 228.949219 391.070312 C 228.011719 389.171875 229.203125 383.441406 229.203125 383.441406 " clip-rule="nonzero"/></clipPath><clipPath id="3d048f5857"><path d="M 324.863281 512.085938 L 428.863281 512.085938 L 428.863281 617.710938 L 324.863281 617.710938 Z M 324.863281 512.085938 " clip-rule="nonzero"/></clipPath><clipPath id="9b20a73bb4"><path d="M 376.863281 512.085938 C 348.144531 512.085938 324.863281 535.664062 324.863281 564.753906 C 324.863281 593.839844 348.144531 617.421875 376.863281 617.421875 C 405.582031 617.421875 428.863281 593.839844 428.863281 564.753906 C 428.863281 535.664062 405.582031 512.085938 376.863281 512.085938 Z M 376.863281 512.085938 " clip-rule="nonzero"/></clipPath><clipPath id="de98098199"><path d="M 151.871094 388.882812 L 255.875 388.882812 L 255.875 494.433594 L 151.871094 494.433594 Z M 151.871094 388.882812 " clip-rule="nonzero"/></clipPath><clipPath id="b3a50395ca"><path d="M 203.875 388.882812 C 175.152344 388.882812 151.871094 412.460938 151.871094 441.554688 C 151.871094 470.640625 175.152344 494.222656 203.875 494.222656 C 232.589844 494.222656 255.875 470.640625 255.875 441.554688 C 255.875 412.460938 232.589844 388.882812 203.875 388.882812 Z M 203.875 388.882812 " clip-rule="nonzero"/></clipPath><clipPath id="eab01b3f52"><path d="M 370.179688 216.386719 L 474.183594 216.386719 L 474.183594 321.84375 L 370.179688 321.84375 Z M 370.179688 216.386719 " clip-rule="nonzero"/></clipPath><clipPath id="1034c2d8ad"><path d="M 422.183594 216.386719 C 393.460938 216.386719 370.179688 239.964844 370.179688 269.054688 C 370.179688 298.140625 393.460938 321.722656 422.183594 321.722656 C 450.898438 321.722656 474.183594 298.140625 474.183594 269.054688 C 474.183594 239.964844 450.898438 216.386719 422.183594 216.386719 Z M 422.183594 216.386719 " clip-rule="nonzero"/></clipPath><clipPath id="8b7b4890d7"><path d="M 553.878906 339.585938 L 657.882812 339.585938 L 657.882812 445 L 553.878906 445 Z M 553.878906 339.585938 " clip-rule="nonzero"/></clipPath><clipPath id="6a6b7b98d8"><path d="M 605.878906 339.585938 C 577.160156 339.585938 553.878906 363.167969 553.878906 392.253906 C 553.878906 421.34375 577.160156 444.921875 605.878906 444.921875 C 634.601562 444.921875 657.882812 421.34375 657.882812 392.253906 C 657.882812 363.167969 634.601562 339.585938 605.878906 339.585938 Z M 605.878906 339.585938 " clip-rule="nonzero"/></clipPath><clipPath id="f8f6c94698"><path d="M 357.371094 525.585938 L 406.53125 525.585938 L 406.53125 609.941406 L 357.371094 609.941406 Z M 357.371094 525.585938 " clip-rule="nonzero"/></clipPath><clipPath id="fa066ddce6"><path d="M 383.304688 241.273438 L 460.621094 241.273438 L 460.621094 297.507812 L 383.304688 297.507812 Z M 383.304688 241.273438 " clip-rule="nonzero"/></clipPath><clipPath id="ad37475e21"><path d="M 610.359375 349.496094 L 613 349.496094 L 613 352 L 610.359375 352 Z M 610.359375 349.496094 " clip-rule="nonzero"/></clipPath><clipPath id="2b057d5c14"><path d="M 596.269531 431.03125 L 599 431.03125 L 599 433.851562 L 596.269531 433.851562 Z M 596.269531 431.03125 " clip-rule="nonzero"/></clipPath><clipPath id="ae9d85cc1e"><path d="M 168.457031 405.789062 L 238.746094 405.789062 L 238.746094 476 L 168.457031 476 Z M 168.457031 405.789062 " clip-rule="nonzero"/></clipPath></defs><g clip-path="url(#4054655f23)"><g clip-path="url(#565e4b614b)"><path fill="#082449" d="M 126.871094 179.191406 L 683.882812 179.191406 L 683.882812 643.675781 L 126.871094 643.675781 Z M 126.871094 179.191406 " fill-opacity="1" fill-rule="nonzero"/></g></g><g clip-path="url(#f9ff97513e)"><g clip-path="url(#882e49329d)"><path fill="#004aad" d="M 360.585938 207.453125 L 483.777344 207.453125 L 483.777344 330.65625 L 360.585938 330.65625 Z M 360.585938 207.453125 " fill-opacity="1" fill-rule="nonzero"/></g></g><g clip-path="url(#f21b799502)"><g clip-path="url(#3acbec51a0)"><path fill="#004aad" d="M 315.269531 503.152344 L 438.453125 503.152344 L 438.453125 626.351562 L 315.269531 626.351562 Z M 315.269531 503.152344 " fill-opacity="1" fill-rule="nonzero"/></g></g><g clip-path="url(#37c55739f8)"><g clip-path="url(#2df93c9055)"><path fill="#004aad" d="M 544.285156 330.65625 L 667.472656 330.65625 L 667.472656 453.855469 L 544.285156 453.855469 Z M 544.285156 330.65625 " fill-opacity="1" fill-rule="nonzero"/></g></g><g clip-path="url(#90f9156883)"><g clip-path="url(#151e74c341)"><path fill="#004aad" d="M 142.28125 379.949219 L 265.46875 379.949219 L 265.46875 503.152344 L 142.28125 503.152344 Z M 142.28125 379.949219 " fill-opacity="1" fill-rule="nonzero"/></g></g><g clip-path="url(#9722b69a44)"><g clip-path="url(#3f2267e327)"><g clip-path="url(#89be15acda)"><path fill="#5ce1e6" d="M 398.0625 509.839844 L 566.886719 415.867188 L 588.421875 454.5625 L 419.597656 548.535156 Z M 398.0625 509.839844 " fill-opacity="1" fill-rule="nonzero"/></g></g></g><g clip-path="url(#edc1b28975)"><g clip-path="url(#999c07d9eb)"><g clip-path="url(#4579d2e494)"><path fill="#5ce1e6" d="M 245.460938 420.085938 L 559.261719 367.960938 L 566.515625 411.648438 L 252.714844 463.769531 Z M 245.460938 420.085938 " fill-opacity="1" fill-rule="nonzero"/></g></g></g><g clip-path="url(#08aee76f67)"><g clip-path="url(#5f7cac0041)"><g clip-path="url(#ad4858f57f)"><path fill="#5ce1e6" d="M 210.878906 378.351562 L 374.496094 275.578125 L 398.046875 313.082031 L 234.429688 415.855469 Z M 210.878906 378.351562 " fill-opacity="1" fill-rule="nonzero"/></g></g></g><g clip-path="url(#3d048f5857)"><g clip-path="url(#9b20a73bb4)"><path fill="#5ce1e6" d="M 324.863281 512.085938 L 428.863281 512.085938 L 428.863281 617.316406 L 324.863281 617.316406 Z M 324.863281 512.085938 " fill-opacity="1" fill-rule="nonzero"/></g></g><g clip-path="url(#de98098199)"><g clip-path="url(#b3a50395ca)"><path fill="#5ce1e6" d="M 151.871094 388.882812 L 255.875 388.882812 L 255.875 494.117188 L 151.871094 494.117188 Z M 151.871094 388.882812 " fill-opacity="1" fill-rule="nonzero"/></g></g><g clip-path="url(#eab01b3f52)"><g clip-path="url(#1034c2d8ad)"><path fill="#5ce1e6" d="M 370.179688 216.386719 L 474.183594 216.386719 L 474.183594 321.617188 L 370.179688 321.617188 Z M 370.179688 216.386719 " fill-opacity="1" fill-rule="nonzero"/></g></g><g clip-path="url(#8b7b4890d7)"><g clip-path="url(#6a6b7b98d8)"><path fill="#5ce1e6" d="M 553.878906 339.585938 L 657.882812 339.585938 L 657.882812 444.816406 L 553.878906 444.816406 Z M 553.878906 339.585938 " fill-opacity="1" fill-rule="nonzero"/></g></g><g clip-path="url(#f8f6c94698)"><path fill="#000000" d="M 362.488281 609.902344 C 361.789062 609.902344 361.160156 609.6875 360.609375 609.257812 C 360.3125 609.042969 360.066406 608.78125 359.867188 608.472656 C 359.664062 608.164062 359.527344 607.832031 359.449219 607.476562 C 359.375 607.117188 359.363281 606.761719 359.414062 606.398438 C 359.46875 606.035156 359.589844 605.695312 359.769531 605.378906 L 359.78125 605.351562 L 378.230469 572.980469 L 360.640625 572.980469 C 360.339844 572.976562 360.039062 572.933594 359.75 572.847656 C 359.460938 572.761719 359.191406 572.632812 358.9375 572.46875 C 358.6875 572.300781 358.464844 572.105469 358.269531 571.871094 C 358.074219 571.640625 357.921875 571.386719 357.804688 571.113281 C 357.6875 570.832031 357.609375 570.546875 357.578125 570.246094 C 357.546875 569.949219 357.558594 569.652344 357.613281 569.355469 C 357.671875 569.0625 357.765625 568.78125 357.90625 568.515625 C 358.046875 568.246094 358.21875 568.007812 358.429688 567.789062 L 395.90625 526.863281 L 395.957031 526.804688 C 396.214844 526.554688 396.503906 526.351562 396.828125 526.199219 C 397.152344 526.050781 397.496094 525.957031 397.851562 525.925781 C 398.210938 525.894531 398.566406 525.921875 398.910156 526.011719 C 399.261719 526.101562 399.582031 526.246094 399.878906 526.445312 C 400.175781 526.648438 400.429688 526.894531 400.640625 527.183594 C 400.851562 527.472656 401.003906 527.785156 401.105469 528.128906 C 401.203125 528.472656 401.242188 528.820312 401.21875 529.175781 C 401.191406 529.53125 401.109375 529.871094 400.964844 530.199219 L 400.941406 530.246094 L 386.371094 560.445312 L 401.847656 560.445312 C 402.277344 560.445312 402.691406 560.507812 403.101562 560.628906 C 403.507812 560.75 403.890625 560.929688 404.246094 561.164062 C 404.601562 561.398438 404.914062 561.675781 405.1875 562 C 405.460938 562.328125 405.679688 562.683594 405.84375 563.070312 C 406.011719 563.460938 406.117188 563.867188 406.164062 564.289062 C 406.210938 564.707031 406.195312 565.125 406.117188 565.539062 C 406.039062 565.957031 405.902344 566.351562 405.707031 566.726562 C 405.511719 567.101562 405.265625 567.441406 404.96875 567.746094 L 364.652344 608.988281 L 364.609375 609.035156 C 364.019531 609.605469 363.316406 609.898438 362.488281 609.902344 Z M 362.40625 606.773438 Z M 360.851562 569.828125 L 378.390625 569.828125 C 378.523438 569.828125 378.65625 569.835938 378.789062 569.851562 C 378.917969 569.867188 379.046875 569.894531 379.175781 569.929688 C 379.304688 569.960938 379.433594 570.003906 379.554688 570.054688 C 379.675781 570.101562 379.796875 570.160156 379.914062 570.226562 C 380.027344 570.289062 380.140625 570.363281 380.246094 570.441406 C 380.351562 570.523438 380.453125 570.605469 380.546875 570.699219 C 380.640625 570.792969 380.730469 570.890625 380.8125 570.992188 C 380.894531 571.097656 380.96875 571.207031 381.039062 571.316406 C 381.109375 571.433594 381.167969 571.550781 381.21875 571.667969 C 381.273438 571.789062 381.320312 571.914062 381.355469 572.039062 C 381.390625 572.167969 381.417969 572.296875 381.441406 572.425781 C 381.457031 572.554688 381.46875 572.6875 381.472656 572.820312 C 381.476562 572.949219 381.46875 573.082031 381.457031 573.214844 C 381.441406 573.34375 381.417969 573.472656 381.386719 573.601562 C 381.359375 573.730469 381.320312 573.855469 381.269531 573.976562 C 381.222656 574.101562 381.167969 574.222656 381.101562 574.335938 L 381.089844 574.363281 L 362.921875 606.246094 L 402.683594 565.554688 C 402.847656 565.390625 402.949219 565.191406 402.992188 564.964844 C 403.035156 564.738281 403.011719 564.515625 402.917969 564.300781 C 402.828125 564.085938 402.6875 563.914062 402.488281 563.789062 C 402.292969 563.660156 402.078125 563.597656 401.84375 563.597656 L 386.222656 563.597656 C 386.09375 563.597656 385.96875 563.585938 385.839844 563.570312 C 385.714844 563.558594 385.589844 563.53125 385.464844 563.503906 C 385.34375 563.472656 385.222656 563.433594 385.101562 563.386719 C 384.984375 563.339844 384.867188 563.289062 384.753906 563.226562 C 384.640625 563.167969 384.535156 563.097656 384.429688 563.027344 C 384.328125 562.953125 384.226562 562.875 384.132812 562.789062 C 384.039062 562.703125 383.949219 562.609375 383.867188 562.515625 C 383.785156 562.417969 383.710938 562.316406 383.640625 562.210938 C 383.570312 562.105469 383.507812 561.992188 383.449219 561.882812 C 383.394531 561.765625 383.34375 561.648438 383.304688 561.53125 C 383.261719 561.410156 383.230469 561.289062 383.203125 561.167969 C 383.175781 561.042969 383.15625 560.917969 383.148438 560.789062 C 383.136719 560.664062 383.132812 560.539062 383.140625 560.410156 C 383.144531 560.285156 383.15625 560.160156 383.179688 560.035156 C 383.199219 559.910156 383.230469 559.785156 383.265625 559.664062 C 383.300781 559.546875 383.34375 559.425781 383.394531 559.308594 L 383.417969 559.261719 L 397.78125 529.503906 Z M 399.511719 529.566406 Z M 399.511719 529.566406 " fill-opacity="1" fill-rule="nonzero"/></g><g clip-path="url(#fa066ddce6)"><path fill="#000000" d="M 456.183594 241.273438 C 455.691406 241.273438 455.203125 241.273438 454.710938 241.273438 L 388.175781 241.273438 C 386.027344 241.273438 384 242.523438 383.511719 244.773438 C 383.386719 245.710938 383.328125 246.648438 383.386719 247.585938 L 383.386719 291.261719 C 383.328125 292.324219 383.386719 293.386719 383.632812 294.386719 C 384.308594 296.445312 386.210938 297.507812 388.234375 297.507812 L 456.183594 297.507812 C 456.308594 297.507812 456.429688 297.445312 456.550781 297.386719 C 459.007812 297.136719 460.605469 295.074219 460.605469 292.507812 L 460.605469 246.148438 C 460.605469 243.523438 458.820312 241.335938 456.183594 241.273438 Z M 384.921875 245.769531 C 384.984375 243.835938 386.457031 242.773438 388.234375 242.773438 L 449.800781 242.773438 C 451.886719 242.773438 454.035156 242.710938 456.121094 242.773438 C 457.964844 242.835938 459.128906 244.273438 459.128906 246.085938 L 459.128906 251.519531 L 393.453125 251.519531 C 390.566406 251.519531 387.746094 251.394531 384.921875 251.519531 C 384.859375 249.648438 384.859375 247.710938 384.921875 245.769531 Z M 459.066406 292.886719 C 459.066406 294.507812 457.777344 295.824219 456.121094 295.886719 C 456.0625 295.886719 456 295.886719 456 295.886719 L 388.542969 295.886719 C 387.253906 295.886719 385.964844 295.695312 385.289062 294.386719 C 384.800781 293.449219 384.921875 292.386719 384.921875 291.324219 L 384.921875 253.769531 C 384.921875 253.582031 384.921875 253.332031 384.921875 253.144531 L 450.535156 253.144531 C 453.421875 253.144531 456.246094 253.269531 459.066406 253.144531 L 459.066406 292.257812 C 459.066406 292.449219 459.066406 292.699219 459.066406 292.886719 Z M 459.066406 292.886719 " fill-opacity="1" fill-rule="nonzero"/></g><path fill="#000000" d="M 390.078125 247.898438 C 390.078125 247.835938 390.015625 247.835938 390.078125 247.898438 Z M 390.078125 247.898438 " fill-opacity="1" fill-rule="nonzero"/><path fill="#000000" d="M 393.085938 249.335938 C 393.515625 248.835938 393.699219 248.269531 393.699219 247.585938 C 393.699219 247.460938 393.699219 247.398438 393.699219 247.269531 C 393.578125 246.269531 392.902344 245.460938 391.980469 245.085938 C 391 244.710938 389.832031 245.023438 389.15625 245.835938 C 388.234375 246.960938 388.359375 248.585938 389.402344 249.585938 C 390.507812 250.519531 392.105469 250.398438 393.085938 249.335938 Z M 392.164062 247.398438 C 392.164062 247.398438 392.164062 247.460938 392.164062 247.398438 C 392.164062 247.460938 392.164062 247.460938 392.164062 247.460938 C 392.164062 247.460938 392.164062 247.460938 392.164062 247.398438 Z M 390.015625 247.398438 C 390.015625 247.335938 390.015625 247.335938 390.015625 247.269531 C 390.015625 247.210938 390.078125 247.148438 390.078125 247.019531 L 390.140625 246.898438 L 390.203125 246.769531 C 390.261719 246.710938 390.324219 246.648438 390.382812 246.585938 L 390.445312 246.585938 C 390.382812 246.648438 390.445312 246.585938 390.507812 246.585938 C 390.566406 246.519531 390.691406 246.519531 390.753906 246.460938 C 390.753906 246.460938 390.566406 246.519531 390.691406 246.460938 L 390.8125 246.398438 L 390.9375 246.398438 C 390.9375 246.398438 390.9375 246.398438 391 246.398438 C 391 246.398438 391.0625 246.398438 391.0625 246.398438 L 391.246094 246.398438 L 391.550781 246.460938 C 391.671875 246.519531 391.671875 246.519531 391.671875 246.519531 L 391.734375 246.585938 L 391.796875 246.648438 C 391.734375 246.585938 391.671875 246.585938 391.734375 246.648438 L 391.917969 246.835938 C 391.917969 246.898438 391.980469 246.898438 391.980469 246.960938 L 392.042969 247.085938 C 392.042969 247.148438 392.042969 247.210938 392.105469 247.210938 C 392.105469 247.269531 392.042969 247.335938 392.042969 247.398438 C 392.042969 247.460938 392.042969 247.460938 392.042969 247.519531 C 392.042969 247.585938 391.980469 247.710938 391.980469 247.769531 C 391.980469 247.769531 391.980469 247.835938 391.980469 247.835938 C 391.980469 247.835938 391.980469 247.835938 391.980469 247.898438 C 391.917969 247.960938 391.859375 248.085938 391.859375 248.148438 C 391.859375 248.148438 391.796875 248.207031 391.796875 248.207031 C 391.796875 248.207031 391.734375 248.269531 391.734375 248.269531 L 391.671875 248.269531 C 391.613281 248.335938 391.613281 248.335938 391.671875 248.269531 C 391.613281 248.335938 391.550781 248.335938 391.550781 248.398438 L 391.488281 248.457031 L 391.183594 248.585938 C 391.121094 248.585938 391.121094 248.585938 391.0625 248.585938 L 390.8125 248.585938 C 390.753906 248.585938 390.691406 248.585938 390.691406 248.519531 L 390.566406 248.457031 C 390.445312 248.398438 390.628906 248.457031 390.628906 248.457031 C 390.628906 248.457031 390.445312 248.335938 390.445312 248.335938 L 390.324219 248.269531 C 390.324219 248.269531 390.140625 248.085938 390.140625 248.085938 L 390.078125 248.019531 L 390.078125 247.898438 C 390.078125 247.898438 390.078125 247.960938 390.078125 247.960938 C 390.078125 247.960938 390.015625 247.769531 390.015625 247.710938 Z M 390.015625 247.398438 " fill-opacity="1" fill-rule="nonzero"/><path fill="#000000" d="M 399.222656 249.207031 C 399.59375 248.769531 399.777344 248.207031 399.839844 247.648438 C 399.839844 247.585938 399.839844 247.585938 399.839844 247.519531 C 399.839844 247.519531 399.839844 247.460938 399.839844 247.460938 C 399.839844 246.335938 399.160156 245.335938 398.117188 244.960938 C 397.136719 244.585938 395.96875 244.898438 395.296875 245.710938 C 394.375 246.835938 394.5 248.457031 395.542969 249.457031 C 396.648438 250.457031 398.242188 250.335938 399.222656 249.207031 Z M 396.214844 247.398438 C 396.214844 247.335938 396.214844 247.335938 396.214844 247.269531 C 396.214844 247.210938 396.277344 247.148438 396.277344 247.019531 L 396.339844 246.898438 L 396.398438 246.769531 C 396.460938 246.710938 396.523438 246.648438 396.585938 246.585938 L 396.648438 246.585938 C 396.648438 246.585938 396.648438 246.585938 396.707031 246.585938 C 396.769531 246.519531 396.890625 246.519531 396.953125 246.460938 C 396.953125 246.460938 396.769531 246.519531 396.890625 246.460938 L 397.011719 246.398438 L 397.136719 246.398438 C 397.136719 246.398438 397.136719 246.398438 397.195312 246.398438 C 397.195312 246.398438 397.257812 246.398438 397.257812 246.398438 L 397.382812 246.398438 L 397.691406 246.460938 C 397.8125 246.519531 397.8125 246.519531 397.8125 246.519531 C 397.8125 246.519531 397.875 246.519531 397.875 246.585938 C 397.875 246.585938 397.875 246.585938 397.933594 246.648438 L 398.117188 246.835938 C 398.117188 246.898438 398.179688 246.898438 398.179688 246.960938 L 398.242188 247.085938 C 398.300781 247.210938 398.300781 247.269531 398.300781 247.335938 C 398.300781 247.335938 398.300781 247.335938 398.300781 247.398438 C 398.300781 247.398438 398.300781 247.398438 398.300781 247.460938 C 398.300781 247.519531 398.300781 247.519531 398.300781 247.585938 C 398.300781 247.648438 398.242188 247.769531 398.242188 247.835938 C 398.242188 247.835938 398.242188 247.898438 398.242188 247.898438 C 398.242188 247.898438 398.242188 247.898438 398.242188 247.960938 L 398.117188 248.207031 C 398.117188 248.207031 398.054688 248.269531 398.054688 248.269531 L 397.996094 248.335938 C 397.933594 248.398438 397.933594 248.398438 397.996094 248.335938 C 397.933594 248.398438 397.875 248.398438 397.875 248.457031 L 397.8125 248.519531 L 397.445312 248.585938 C 397.382812 248.585938 397.382812 248.585938 397.320312 248.585938 L 396.890625 248.585938 L 396.769531 248.519531 C 396.648438 248.457031 396.828125 248.519531 396.828125 248.519531 C 396.828125 248.519531 396.648438 248.398438 396.648438 248.398438 C 396.648438 248.398438 396.585938 248.335938 396.523438 248.335938 C 396.523438 248.335938 396.339844 248.148438 396.339844 248.148438 L 396.277344 248.085938 L 396.339844 248.019531 L 396.339844 247.960938 C 396.339844 247.898438 396.277344 247.898438 396.339844 247.960938 C 396.339844 247.898438 396.277344 247.835938 396.277344 247.769531 C 396.277344 247.769531 396.277344 247.710938 396.277344 247.648438 C 396.214844 247.585938 396.214844 247.460938 396.214844 247.398438 Z M 396.214844 247.398438 " fill-opacity="1" fill-rule="nonzero"/><path fill="#000000" d="M 396.214844 247.398438 C 396.277344 247.210938 396.214844 247.335938 396.214844 247.398438 Z M 396.214844 247.398438 " fill-opacity="1" fill-rule="nonzero"/><path fill="#000000" d="M 405.546875 249.335938 C 405.976562 248.835938 406.160156 248.269531 406.160156 247.585938 C 406.160156 247.460938 406.160156 247.398438 406.160156 247.269531 C 405.976562 246.269531 405.363281 245.460938 404.441406 245.085938 C 403.457031 244.710938 402.292969 245.023438 401.617188 245.835938 C 400.695312 246.960938 400.820312 248.585938 401.863281 249.585938 C 402.90625 250.585938 404.5625 250.398438 405.546875 249.335938 Z M 404.625 247.398438 C 404.625 247.398438 404.625 247.460938 404.625 247.398438 C 404.625 247.460938 404.625 247.460938 404.625 247.460938 C 404.625 247.460938 404.625 247.460938 404.625 247.398438 Z M 402.476562 247.398438 C 402.476562 247.398438 402.476562 247.335938 402.476562 247.269531 C 402.476562 247.210938 402.535156 247.085938 402.535156 247.019531 L 402.597656 246.898438 L 402.660156 246.769531 C 402.722656 246.710938 402.785156 246.648438 402.84375 246.585938 L 402.90625 246.585938 C 402.84375 246.648438 402.90625 246.585938 402.96875 246.585938 C 403.03125 246.519531 403.152344 246.519531 403.214844 246.460938 C 403.214844 246.460938 403.03125 246.519531 403.152344 246.460938 L 403.273438 246.398438 L 403.398438 246.398438 C 403.398438 246.398438 403.398438 246.398438 403.457031 246.398438 C 403.457031 246.398438 403.519531 246.398438 403.519531 246.398438 L 403.765625 246.398438 L 404.074219 246.460938 C 404.195312 246.519531 404.195312 246.519531 404.195312 246.519531 L 404.257812 246.585938 C 404.257812 246.585938 404.257812 246.585938 404.320312 246.648438 L 404.5 246.835938 C 404.5 246.898438 404.5625 246.898438 404.5625 246.960938 C 404.5625 247.019531 404.625 247.019531 404.625 247.085938 C 404.625 247.148438 404.683594 247.210938 404.683594 247.269531 C 404.683594 247.335938 404.625 247.398438 404.625 247.460938 C 404.625 247.519531 404.625 247.519531 404.625 247.585938 C 404.625 247.648438 404.5625 247.769531 404.5625 247.835938 C 404.5625 247.835938 404.5625 247.835938 404.5625 247.898438 C 404.5 247.960938 404.441406 248.085938 404.441406 248.148438 C 404.441406 248.148438 404.378906 248.207031 404.378906 248.207031 C 404.378906 248.207031 404.320312 248.269531 404.320312 248.269531 C 404.257812 248.335938 404.257812 248.335938 404.320312 248.269531 C 404.257812 248.335938 404.195312 248.335938 404.195312 248.398438 L 404.132812 248.457031 L 403.640625 248.585938 C 403.582031 248.585938 403.582031 248.585938 403.519531 248.585938 L 403.273438 248.585938 L 403.152344 248.519531 L 403.03125 248.457031 C 402.90625 248.457031 403.089844 248.457031 403.089844 248.457031 C 403.089844 248.457031 402.90625 248.335938 402.90625 248.335938 L 402.785156 248.269531 C 402.785156 248.269531 402.660156 248.148438 402.597656 248.085938 L 402.535156 247.960938 L 402.597656 247.898438 C 402.597656 247.835938 402.535156 247.710938 402.535156 247.648438 L 402.535156 247.519531 C 402.476562 247.519531 402.476562 247.460938 402.476562 247.398438 Z M 402.476562 247.398438 " fill-opacity="1" fill-rule="nonzero"/><path fill="#000000" d="M 403.640625 248.585938 C 403.640625 248.519531 403.519531 248.585938 403.640625 248.585938 Z M 403.640625 248.585938 " fill-opacity="1" fill-rule="nonzero"/><path fill="#000000" d="M 402.476562 247.398438 C 402.535156 247.210938 402.476562 247.335938 402.476562 247.398438 Z M 402.476562 247.398438 " fill-opacity="1" fill-rule="nonzero"/><path fill="#000000" d="M 431.019531 266.457031 C 430.40625 265.707031 429.300781 266.828125 429.914062 267.578125 L 435.867188 274.515625 L 429.914062 281.449219 C 429.238281 282.199219 430.34375 283.324219 431.019531 282.574219 L 437.460938 275.078125 C 437.769531 274.765625 437.769531 274.265625 437.460938 273.953125 Z M 431.019531 266.457031 " fill-opacity="1" fill-rule="nonzero"/><path fill="#000000" d="M 412.972656 266.457031 L 406.589844 273.953125 C 406.28125 274.265625 406.28125 274.765625 406.589844 275.078125 L 412.972656 282.574219 C 413.648438 283.324219 414.691406 282.199219 414.078125 281.449219 L 408.125 274.515625 L 414.078125 267.578125 C 414.753906 266.828125 413.648438 265.707031 412.972656 266.457031 Z M 412.972656 266.457031 " fill-opacity="1" fill-rule="nonzero"/><path fill="#000000" d="M 425.003906 266.578125 L 418.617188 279.699219 L 417.699219 281.574219 C 417.269531 282.449219 418.558594 283.265625 419.050781 282.386719 L 425.492188 269.265625 L 426.414062 267.390625 C 426.722656 266.515625 425.433594 265.707031 425.003906 266.578125 Z M 425.003906 266.578125 " fill-opacity="1" fill-rule="nonzero"/><path fill="#333333" d="M 586.703125 382.003906 L 629.796875 382.003906 L 629.796875 403.214844 L 586.703125 403.214844 Z M 586.703125 382.003906 " fill-opacity="1" fill-rule="nonzero"/><path fill="#000000" d="M 624.582031 405.351562 L 621.972656 405.351562 L 621.972656 401.050781 L 624.582031 401.050781 Z M 619.367188 405.351562 L 616.757812 405.351562 L 616.757812 401.050781 L 619.367188 401.050781 Z M 614.152344 405.351562 L 611.542969 405.351562 L 611.542969 401.050781 L 614.152344 401.050781 Z M 608.9375 405.351562 L 606.328125 405.351562 L 606.328125 401.050781 L 608.9375 401.050781 Z M 603.742188 405.351562 L 601.132812 405.351562 L 601.132812 401.050781 L 603.742188 401.050781 Z M 598.527344 405.351562 L 595.917969 405.351562 L 595.917969 401.050781 L 598.527344 401.050781 Z M 593.3125 405.351562 L 590.703125 405.351562 L 590.703125 401.050781 L 593.3125 401.050781 Z M 588.859375 399.449219 L 584.523438 399.449219 L 584.523438 396.863281 L 588.859375 396.863281 Z M 631.953125 396.730469 L 627.617188 396.730469 L 627.617188 394.144531 L 631.953125 394.144531 Z M 588.859375 394.277344 L 584.523438 394.277344 L 584.523438 391.695312 L 588.859375 391.695312 Z M 631.953125 391.5625 L 627.617188 391.5625 L 627.617188 388.976562 L 631.953125 388.976562 Z M 588.859375 389.109375 L 584.523438 389.109375 L 584.523438 386.523438 L 588.859375 386.523438 Z M 623.816406 384.140625 L 621.210938 384.140625 L 621.210938 379.839844 L 623.816406 379.839844 Z M 618.601562 384.140625 L 615.992188 384.140625 L 615.992188 379.839844 L 618.601562 379.839844 Z M 613.386719 384.140625 L 610.78125 384.140625 L 610.78125 379.839844 L 613.386719 379.839844 Z M 608.171875 384.140625 L 605.5625 384.140625 L 605.5625 379.839844 L 608.171875 379.839844 Z M 602.976562 384.140625 L 600.371094 384.140625 L 600.371094 379.839844 L 602.976562 379.839844 Z M 597.761719 384.140625 L 595.15625 384.140625 L 595.15625 379.839844 L 597.761719 379.839844 Z M 592.546875 384.140625 L 589.941406 384.140625 L 589.941406 379.839844 L 592.546875 379.839844 Z M 592.546875 384.140625 " fill-opacity="1" fill-rule="nonzero"/><path fill="#000000" d="M 622.917969 366.984375 L 623.59375 366.984375 L 623.59375 379.910156 L 622.917969 379.910156 Z M 622.917969 366.984375 " fill-opacity="1" fill-rule="nonzero"/><path fill="#000000" d="M 622.917969 366.984375 L 636.628906 366.984375 L 636.628906 367.878906 L 622.917969 367.878906 Z M 622.917969 366.984375 " fill-opacity="1" fill-rule="nonzero"/><path fill="#000000" d="M 636.765625 368.835938 C 638.339844 368.835938 638.339844 366.429688 636.765625 366.429688 C 635.191406 366.429688 635.191406 368.835938 636.765625 368.835938 Z M 636.765625 368.835938 " fill-opacity="1" fill-rule="nonzero"/><path fill="#000000" d="M 617.074219 358.296875 L 617.972656 358.296875 L 617.972656 379.910156 L 617.074219 379.910156 Z M 617.074219 358.296875 " fill-opacity="1" fill-rule="nonzero"/><path fill="#000000" d="M 617.074219 358.296875 L 627.640625 358.296875 L 627.640625 358.964844 L 617.074219 358.964844 Z M 617.074219 358.296875 " fill-opacity="1" fill-rule="nonzero"/><path fill="#000000" d="M 626.964844 351.835938 L 627.640625 351.835938 L 627.640625 358.964844 L 626.964844 358.964844 Z M 626.964844 351.835938 " fill-opacity="1" fill-rule="nonzero"/><path fill="#000000" d="M 627.210938 353.082031 C 628.785156 353.082031 628.785156 350.675781 627.210938 350.675781 C 625.636719 350.675781 625.636719 353.082031 627.210938 353.082031 Z M 627.210938 353.082031 " fill-opacity="1" fill-rule="nonzero"/><path fill="#000000" d="M 611.453125 350.945312 L 612.351562 350.945312 L 612.351562 379.910156 L 611.453125 379.910156 Z M 611.453125 350.945312 " fill-opacity="1" fill-rule="nonzero"/><path fill="#000000" d="M 606.734375 363.867188 L 607.40625 363.867188 L 607.40625 379.910156 L 606.734375 379.910156 Z M 606.734375 363.867188 " fill-opacity="1" fill-rule="nonzero"/><path fill="#000000" d="M 601.113281 370.328125 L 601.789062 370.328125 L 601.789062 379.910156 L 601.113281 379.910156 Z M 601.113281 370.328125 " fill-opacity="1" fill-rule="nonzero"/><path fill="#000000" d="M 594.59375 370.328125 L 601.113281 370.328125 L 601.113281 370.996094 L 594.59375 370.996094 Z M 594.59375 370.328125 " fill-opacity="1" fill-rule="nonzero"/><path fill="#000000" d="M 593.695312 358.964844 L 594.59375 358.964844 L 594.59375 370.996094 L 593.695312 370.996094 Z M 593.695312 358.964844 " fill-opacity="1" fill-rule="nonzero"/><path fill="#000000" d="M 596.167969 374.339844 L 597.066406 374.339844 L 597.066406 379.910156 L 596.167969 379.910156 Z M 596.167969 374.339844 " fill-opacity="1" fill-rule="nonzero"/><path fill="#000000" d="M 588.074219 374.339844 L 596.167969 374.339844 L 596.167969 375.007812 L 588.074219 375.007812 Z M 588.074219 374.339844 " fill-opacity="1" fill-rule="nonzero"/><path fill="#000000" d="M 591.222656 377.457031 L 592.121094 377.457031 L 592.121094 379.910156 L 591.222656 379.910156 Z M 591.222656 377.457031 " fill-opacity="1" fill-rule="nonzero"/><path fill="#000000" d="M 576.832031 377.457031 L 591.222656 377.457031 L 591.222656 378.347656 L 576.832031 378.347656 Z M 576.832031 377.457031 " fill-opacity="1" fill-rule="nonzero"/><path fill="#000000" d="M 576.699219 379.527344 C 578.273438 379.527344 578.273438 377.125 576.699219 377.125 C 575.148438 377.125 575.148438 379.527344 576.699219 379.527344 Z M 576.699219 379.527344 " fill-opacity="1" fill-rule="nonzero"/><path fill="#000000" d="M 587.625 376.1875 C 589.195312 376.1875 589.195312 373.78125 587.625 373.78125 C 586.050781 373.78125 586.050781 376.1875 587.625 376.1875 Z M 587.625 376.1875 " fill-opacity="1" fill-rule="nonzero"/><path fill="#000000" d="M 593.804688 360.570312 C 595.382812 360.570312 595.382812 358.164062 593.804688 358.164062 C 592.234375 358.164062 592.253906 360.570312 593.804688 360.570312 Z M 593.804688 360.570312 " fill-opacity="1" fill-rule="nonzero"/><path fill="#000000" d="M 606.597656 365.246094 C 608.171875 365.246094 608.171875 362.839844 606.597656 362.839844 C 605.046875 362.839844 605.046875 365.246094 606.597656 365.246094 Z M 606.597656 365.246094 " fill-opacity="1" fill-rule="nonzero"/><g clip-path="url(#ad37475e21)"><path fill="#000000" d="M 611.585938 351.902344 C 613.164062 351.902344 613.164062 349.496094 611.585938 349.496094 C 610.015625 349.496094 610.015625 351.902344 611.585938 351.902344 Z M 611.585938 351.902344 " fill-opacity="1" fill-rule="nonzero"/></g><path fill="#000000" d="M 631.6875 389.488281 L 643.824219 389.488281 L 643.824219 390.378906 L 631.6875 390.378906 Z M 631.6875 389.488281 " fill-opacity="1" fill-rule="nonzero"/><path fill="#000000" d="M 631.6875 395.058594 L 641.351562 395.058594 L 641.351562 395.949219 L 631.6875 395.949219 Z M 631.6875 395.058594 " fill-opacity="1" fill-rule="nonzero"/><path fill="#000000" d="M 640.675781 395.949219 L 641.351562 395.949219 L 641.351562 407.089844 L 640.675781 407.089844 Z M 640.675781 395.949219 " fill-opacity="1" fill-rule="nonzero"/><path fill="#000000" d="M 643.777344 391.273438 C 645.355469 391.273438 645.355469 388.863281 643.777344 388.863281 C 642.207031 388.863281 642.207031 391.273438 643.777344 391.273438 Z M 643.777344 391.273438 " fill-opacity="1" fill-rule="nonzero"/><path fill="#000000" d="M 641.082031 408.492188 C 642.65625 408.492188 642.65625 406.085938 641.082031 406.085938 C 639.507812 406.085938 639.507812 408.492188 641.082031 408.492188 Z M 641.082031 408.492188 " fill-opacity="1" fill-rule="nonzero"/><path fill="#000000" d="M 622.917969 405.53125 L 623.59375 405.53125 L 623.59375 419.121094 L 622.917969 419.121094 Z M 622.917969 405.53125 " fill-opacity="1" fill-rule="nonzero"/><path fill="#000000" d="M 622.917969 419.121094 L 636.628906 419.121094 L 636.628906 419.789062 L 622.917969 419.789062 Z M 622.917969 419.121094 " fill-opacity="1" fill-rule="nonzero"/><path fill="#000000" d="M 617.972656 405.53125 L 618.871094 405.53125 L 618.871094 424.691406 L 617.972656 424.691406 Z M 617.972656 405.53125 " fill-opacity="1" fill-rule="nonzero"/><path fill="#000000" d="M 617.972656 424.691406 L 631.011719 424.691406 L 631.011719 425.582031 L 617.972656 425.582031 Z M 617.972656 424.691406 " fill-opacity="1" fill-rule="nonzero"/><path fill="#000000" d="M 612.351562 405.53125 L 613.027344 405.53125 L 613.027344 424.691406 L 612.351562 424.691406 Z M 612.351562 405.53125 " fill-opacity="1" fill-rule="nonzero"/><path fill="#000000" d="M 607.453125 432.710938 L 597.742188 432.710938 L 597.742188 431.820312 L 607.113281 431.820312 L 607.40625 431.664062 L 607.40625 404.640625 L 608.304688 404.640625 L 608.304688 432 Z M 607.453125 432.710938 " fill-opacity="1" fill-rule="nonzero"/><path fill="#000000" d="M 601.789062 404.640625 L 602.6875 404.640625 L 602.6875 426.25 L 601.789062 426.25 Z M 601.789062 404.640625 " fill-opacity="1" fill-rule="nonzero"/><path fill="#000000" d="M 596.121094 430.261719 L 588.074219 430.261719 L 588.074219 429.59375 L 595.785156 429.59375 L 596.167969 429.28125 L 596.167969 403.972656 L 597.066406 403.972656 L 597.066406 429.59375 Z M 596.121094 430.261719 " fill-opacity="1" fill-rule="nonzero"/><path fill="#000000" d="M 591.289062 416.671875 L 581.554688 416.671875 L 581.554688 416.003906 L 590.949219 416.003906 L 591.222656 415.667969 L 591.222656 403.972656 L 592.121094 403.972656 L 592.121094 415.980469 Z M 591.289062 416.671875 " fill-opacity="1" fill-rule="nonzero"/><path fill="#000000" d="M 636.496094 420.769531 C 638.070312 420.769531 638.070312 418.363281 636.496094 418.363281 C 634.921875 418.363281 634.921875 420.769531 636.496094 420.769531 Z M 636.496094 420.769531 " fill-opacity="1" fill-rule="nonzero"/><path fill="#000000" d="M 630.695312 426.496094 C 632.269531 426.496094 632.269531 424.089844 630.695312 424.089844 C 629.121094 424.089844 629.144531 426.496094 630.695312 426.496094 Z M 630.695312 426.496094 " fill-opacity="1" fill-rule="nonzero"/><path fill="#000000" d="M 612.394531 426.09375 C 613.972656 426.09375 613.972656 423.691406 612.394531 423.691406 C 610.824219 423.691406 610.824219 426.09375 612.394531 426.09375 Z M 612.394531 426.09375 " fill-opacity="1" fill-rule="nonzero"/><path fill="#000000" d="M 601.875 427.832031 C 603.449219 427.832031 603.449219 425.425781 601.875 425.425781 C 600.328125 425.425781 600.328125 427.832031 601.875 427.832031 Z M 601.875 427.832031 " fill-opacity="1" fill-rule="nonzero"/><g clip-path="url(#2b057d5c14)"><path fill="#000000" d="M 597.582031 433.847656 C 599.15625 433.847656 599.15625 431.441406 597.582031 431.441406 C 596.007812 431.441406 596.007812 433.847656 597.582031 433.847656 Z M 597.582031 433.847656 " fill-opacity="1" fill-rule="nonzero"/></g><path fill="#000000" d="M 587.738281 431.175781 C 589.308594 431.175781 589.308594 428.769531 587.738281 428.769531 C 586.1875 428.769531 586.1875 431.175781 587.738281 431.175781 Z M 587.738281 431.175781 " fill-opacity="1" fill-rule="nonzero"/><path fill="#000000" d="M 581.148438 417.695312 C 582.722656 417.695312 582.722656 415.289062 581.148438 415.289062 C 579.578125 415.289062 579.578125 417.695312 581.148438 417.695312 Z M 581.148438 417.695312 " fill-opacity="1" fill-rule="nonzero"/><path fill="#000000" d="M 569.417969 387.039062 L 585.601562 387.039062 L 585.601562 387.929688 L 569.417969 387.929688 Z M 569.417969 387.039062 " fill-opacity="1" fill-rule="nonzero"/><path fill="#000000" d="M 563.121094 392.609375 L 586.5 392.609375 L 586.5 393.5 L 563.121094 393.5 Z M 563.121094 392.609375 " fill-opacity="1" fill-rule="nonzero"/><path fill="#000000" d="M 562.222656 379.015625 L 563.121094 379.015625 L 563.121094 393.5 L 562.222656 393.5 Z M 562.222656 379.015625 " fill-opacity="1" fill-rule="nonzero"/><path fill="#000000" d="M 571.214844 408.648438 L 570.316406 408.648438 L 570.316406 398.046875 L 570.742188 397.507812 L 586.5 397.507812 L 586.5 398.179688 L 571.078125 398.179688 L 571.214844 398.378906 Z M 571.214844 408.648438 " fill-opacity="1" fill-rule="nonzero"/><path fill="#000000" d="M 562.558594 380.464844 C 564.132812 380.464844 564.132812 378.058594 562.558594 378.058594 C 561.007812 378.058594 561.007812 380.464844 562.558594 380.464844 Z M 562.558594 380.464844 " fill-opacity="1" fill-rule="nonzero"/><path fill="#000000" d="M 569.574219 388.730469 C 571.148438 388.730469 571.148438 386.324219 569.574219 386.324219 C 568 386.324219 568 388.730469 569.574219 388.730469 Z M 569.574219 388.730469 " fill-opacity="1" fill-rule="nonzero"/><path fill="#000000" d="M 570.382812 410.210938 C 571.953125 410.210938 571.953125 407.804688 570.382812 407.804688 C 568.808594 407.824219 568.808594 410.210938 570.382812 410.210938 Z M 570.382812 410.210938 " fill-opacity="1" fill-rule="nonzero"/><path fill="#000000" d="M 231.570312 414.519531 L 231.570312 412.734375 L 229.664062 412.734375 L 229.664062 414.519531 Z M 233.273438 411.84375 L 233.273438 415.410156 C 233.273438 415.910156 232.871094 416.304688 232.371094 416.304688 L 228.859375 416.304688 C 228.359375 416.304688 228.058594 415.910156 228.058594 415.410156 L 228.058594 411.84375 C 228.058594 411.445312 228.359375 411.050781 228.859375 411.050781 L 232.371094 411.050781 C 232.875 410.953125 233.273438 411.445312 233.273438 411.84375 Z M 233.273438 411.84375 " fill-opacity="1" fill-rule="nonzero"/><path fill="#000000" d="M 221.941406 410.953125 L 225.453125 410.953125 C 225.953125 410.953125 226.355469 411.347656 226.355469 411.746094 L 226.355469 415.3125 C 226.355469 415.808594 225.953125 416.203125 225.453125 416.203125 L 221.941406 416.203125 C 221.539062 416.203125 221.140625 415.808594 221.140625 415.3125 L 221.140625 411.746094 C 221.140625 411.445312 221.539062 410.953125 221.941406 410.953125 Z M 224.75 412.734375 L 222.945312 412.734375 L 222.945312 414.519531 L 224.75 414.519531 Z M 224.75 412.734375 " fill-opacity="1" fill-rule="nonzero"/><path fill="#000000" d="M 223.144531 464.582031 C 223.347656 464.582031 223.546875 464.484375 223.75 464.386719 C 223.949219 464.1875 224.046875 463.988281 224.148438 463.59375 C 224.25 463.097656 224.347656 462.304688 224.347656 461.015625 C 224.347656 459.921875 224.25 459.128906 224.148438 458.535156 C 224.046875 458.140625 223.949219 457.839844 223.75 457.742188 C 223.546875 457.546875 223.347656 457.445312 223.144531 457.445312 C 222.945312 457.445312 222.742188 457.546875 222.542969 457.742188 C 222.34375 457.839844 222.242188 458.140625 222.144531 458.4375 C 221.941406 458.933594 221.941406 459.824219 221.941406 461.015625 C 221.941406 462.203125 221.941406 462.996094 222.042969 463.492188 C 222.242188 463.988281 222.34375 464.1875 222.542969 464.386719 C 222.742188 464.484375 222.84375 464.582031 223.144531 464.582031 Z M 223.144531 455.957031 C 224.046875 455.957031 224.851562 456.257812 225.351562 456.949219 C 226.054688 457.746094 226.355469 459.128906 226.355469 461.015625 C 226.355469 462.898438 226.050781 464.285156 225.351562 465.179688 C 224.851562 465.773438 224.046875 466.167969 223.144531 466.167969 C 222.144531 466.167969 221.339844 465.773438 220.839844 465.078125 C 220.238281 464.285156 219.9375 462.996094 219.9375 461.015625 C 219.9375 459.03125 220.238281 457.746094 220.839844 456.949219 C 221.339844 456.257812 222.144531 455.957031 223.144531 455.957031 Z M 223.144531 455.957031 " fill-opacity="1" fill-rule="nonzero"/><path fill="#000000" d="M 223.144531 435.734375 C 223.347656 435.734375 223.546875 435.734375 223.75 435.535156 C 223.949219 435.4375 224.046875 435.140625 224.148438 434.746094 C 224.25 434.246094 224.347656 433.457031 224.347656 432.164062 C 224.347656 431.074219 224.25 430.28125 224.148438 429.6875 C 224.046875 429.292969 223.949219 428.992188 223.75 428.890625 C 223.546875 428.695312 223.347656 428.597656 223.144531 428.597656 C 222.945312 428.597656 222.742188 428.695312 222.542969 428.890625 C 222.34375 428.992188 222.242188 429.292969 222.144531 429.6875 C 221.941406 430.085938 221.941406 430.976562 221.941406 432.164062 C 221.941406 433.355469 221.941406 434.148438 222.042969 434.644531 C 222.242188 435.140625 222.34375 435.4375 222.542969 435.535156 C 222.742188 435.734375 222.84375 435.734375 223.144531 435.734375 Z M 223.144531 427.109375 C 224.046875 427.109375 224.851562 427.40625 225.351562 428.101562 C 226.054688 428.894531 226.355469 430.378906 226.355469 432.167969 C 226.355469 434.050781 226.050781 435.535156 225.351562 436.328125 C 224.851562 437.023438 224.046875 437.320312 223.144531 437.320312 C 222.144531 437.320312 221.339844 436.925781 220.839844 436.230469 C 220.238281 435.4375 219.9375 434.148438 219.9375 432.167969 C 219.9375 430.378906 220.238281 428.894531 220.839844 428.101562 C 221.339844 427.40625 222.144531 427.109375 223.144531 427.109375 Z M 223.144531 427.109375 " fill-opacity="1" fill-rule="nonzero"/><path fill="#000000" d="M 223.144531 441.585938 C 224.046875 441.585938 224.851562 441.878906 225.351562 442.574219 C 226.054688 443.367188 226.355469 444.855469 226.355469 446.640625 C 226.355469 448.523438 226.050781 450.011719 225.351562 450.804688 C 224.851562 451.5 224.046875 451.796875 223.144531 451.796875 C 222.144531 451.796875 221.339844 451.398438 220.839844 450.707031 C 220.238281 449.914062 219.9375 448.523438 219.9375 446.640625 C 219.9375 444.757812 220.238281 443.371094 220.839844 442.574219 C 221.339844 441.878906 222.144531 441.585938 223.144531 441.585938 Z M 223.144531 450.210938 C 223.347656 450.210938 223.546875 450.109375 223.75 450.011719 C 223.949219 449.910156 224.046875 449.613281 224.148438 449.214844 C 224.25 448.722656 224.347656 447.925781 224.347656 446.640625 C 224.347656 445.550781 224.25 444.753906 224.148438 444.160156 C 224.046875 443.761719 223.949219 443.46875 223.75 443.367188 C 223.546875 443.167969 223.347656 443.070312 223.144531 443.070312 C 222.945312 443.070312 222.742188 443.167969 222.542969 443.367188 C 222.34375 443.46875 222.242188 443.761719 222.144531 444.0625 C 221.941406 444.558594 221.941406 445.449219 221.941406 446.640625 C 221.941406 447.828125 221.941406 448.621094 222.042969 449.117188 C 222.242188 449.613281 222.34375 449.910156 222.542969 450.011719 C 222.742188 450.109375 222.84375 450.210938 223.144531 450.210938 Z M 223.144531 450.210938 " fill-opacity="1" fill-rule="nonzero"/><path fill="#000000" d="M 217.929688 414.519531 L 217.929688 412.734375 L 216.125 412.734375 L 216.125 414.519531 Z M 218.734375 416.304688 L 215.222656 416.304688 C 214.820312 416.304688 214.421875 415.910156 214.421875 415.410156 L 214.421875 411.84375 C 214.421875 411.445312 214.820312 411.050781 215.222656 411.050781 L 218.734375 411.050781 C 219.234375 411.050781 219.636719 411.445312 219.636719 411.84375 L 219.636719 415.410156 C 219.632812 415.910156 219.234375 416.304688 218.734375 416.304688 Z M 218.734375 416.304688 " fill-opacity="1" fill-rule="nonzero"/><path fill="#000000" d="M 214.921875 429.988281 C 214.320312 430.582031 213.417969 431.074219 212.515625 431.375 L 212.515625 429.6875 C 213.015625 429.488281 213.515625 429.191406 214.121094 428.796875 C 214.722656 428.296875 215.121094 427.804688 215.324219 427.210938 L 216.828125 427.210938 L 216.828125 437.222656 L 214.921875 437.222656 Z M 214.921875 429.988281 " fill-opacity="1" fill-rule="nonzero"/><path fill="#000000" d="M 212.515625 445.746094 L 212.515625 444.0625 C 213.015625 443.863281 213.515625 443.566406 214.121094 443.070312 C 214.722656 442.675781 215.121094 442.179688 215.324219 441.585938 L 216.828125 441.585938 L 216.828125 451.597656 L 214.921875 451.597656 L 214.921875 444.359375 C 214.320312 444.953125 213.417969 445.550781 212.515625 445.746094 Z M 212.515625 445.746094 " fill-opacity="1" fill-rule="nonzero"/><path fill="#000000" d="M 212.515625 460.222656 L 212.515625 458.535156 C 213.015625 458.339844 213.515625 458.039062 214.121094 457.546875 C 214.722656 457.148438 215.121094 456.652344 215.324219 456.058594 L 216.828125 456.058594 L 216.828125 466.070312 L 214.921875 466.070312 L 214.921875 458.734375 C 214.320312 459.425781 213.417969 459.921875 212.515625 460.222656 Z M 212.515625 460.222656 " fill-opacity="1" fill-rule="nonzero"/><path fill="#000000" d="M 209.207031 432.164062 C 209.207031 431.074219 209.105469 430.28125 209.007812 429.6875 C 208.90625 429.292969 208.804688 428.992188 208.605469 428.890625 C 208.402344 428.695312 208.203125 428.597656 208.003906 428.597656 C 207.804688 428.597656 207.601562 428.695312 207.402344 428.890625 C 207.199219 428.992188 207.097656 429.292969 207 429.6875 C 206.898438 430.085938 206.800781 430.976562 206.800781 432.164062 C 206.800781 433.355469 206.800781 434.148438 207 434.644531 C 207.097656 435.140625 207.199219 435.4375 207.402344 435.535156 C 207.601562 435.734375 207.804688 435.734375 208.003906 435.734375 C 208.203125 435.734375 208.402344 435.734375 208.605469 435.535156 C 208.804688 435.4375 208.90625 435.140625 209.007812 434.746094 C 209.105469 434.246094 209.207031 433.457031 209.207031 432.164062 Z M 210.207031 428.101562 C 210.914062 428.894531 211.210938 430.378906 211.210938 432.167969 C 211.210938 434.050781 210.910156 435.535156 210.207031 436.328125 C 209.707031 437.023438 209.007812 437.320312 208.003906 437.320312 C 207 437.320312 206.300781 436.925781 205.695312 436.230469 C 205.09375 435.4375 204.792969 434.148438 204.792969 432.167969 C 204.792969 430.378906 205.09375 428.894531 205.796875 428.101562 C 206.296875 427.40625 207 427.109375 208.003906 427.109375 C 209.003906 427.109375 209.707031 427.40625 210.207031 428.101562 Z M 210.207031 428.101562 " fill-opacity="1" fill-rule="nonzero"/><path fill="#000000" d="M 209.207031 446.640625 C 209.207031 445.550781 209.105469 444.757812 209.007812 444.164062 C 208.90625 443.761719 208.804688 443.46875 208.605469 443.367188 C 208.402344 443.167969 208.203125 443.070312 208.003906 443.070312 C 207.804688 443.070312 207.601562 443.167969 207.402344 443.367188 C 207.199219 443.46875 207.097656 443.761719 207 444.0625 C 206.898438 444.558594 206.800781 445.449219 206.800781 446.640625 C 206.800781 447.828125 206.800781 448.621094 207 449.117188 C 207.097656 449.613281 207.199219 449.910156 207.402344 450.011719 C 207.601562 450.109375 207.804688 450.210938 208.003906 450.210938 C 208.203125 450.210938 208.402344 450.109375 208.605469 450.011719 C 208.804688 449.910156 208.90625 449.613281 209.007812 449.214844 C 209.105469 448.621094 209.207031 447.828125 209.207031 446.640625 Z M 210.207031 442.574219 C 210.914062 443.367188 211.210938 444.855469 211.210938 446.640625 C 211.210938 448.523438 210.910156 450.011719 210.207031 450.804688 C 209.707031 451.5 209.007812 451.796875 208.003906 451.796875 C 207 451.796875 206.300781 451.398438 205.695312 450.703125 C 205.09375 449.910156 204.792969 448.523438 204.792969 446.640625 C 204.792969 444.757812 205.09375 443.367188 205.796875 442.574219 C 206.296875 441.878906 207 441.585938 208.003906 441.585938 C 209.003906 441.585938 209.707031 441.878906 210.207031 442.574219 Z M 210.207031 442.574219 " fill-opacity="1" fill-rule="nonzero"/><path fill="#000000" d="M 209.207031 461.015625 C 209.207031 459.921875 209.105469 459.132812 209.007812 458.535156 C 208.90625 458.140625 208.804688 457.839844 208.605469 457.746094 C 208.402344 457.546875 208.203125 457.445312 208.003906 457.445312 C 207.804688 457.445312 207.601562 457.546875 207.402344 457.746094 C 207.199219 457.839844 207.097656 458.140625 207 458.4375 C 206.898438 458.933594 206.800781 459.824219 206.800781 461.015625 C 206.800781 462.203125 206.800781 462.996094 207 463.492188 C 207.097656 463.988281 207.199219 464.1875 207.402344 464.386719 C 207.601562 464.484375 207.804688 464.585938 208.003906 464.585938 C 208.203125 464.585938 208.402344 464.484375 208.605469 464.386719 C 208.804688 464.1875 208.90625 463.988281 209.007812 463.59375 C 209.105469 463.097656 209.207031 462.203125 209.207031 461.015625 Z M 210.207031 456.949219 C 210.914062 457.746094 211.210938 459.132812 211.210938 461.015625 C 211.210938 462.898438 210.910156 464.285156 210.207031 465.179688 C 209.707031 465.773438 209.007812 466.167969 208.003906 466.167969 C 207 466.167969 206.300781 465.773438 205.695312 465.082031 C 205.09375 464.285156 204.792969 462.996094 204.792969 461.015625 C 204.792969 459.132812 205.09375 457.746094 205.796875 456.949219 C 206.296875 456.257812 207 455.957031 208.003906 455.957031 C 209.003906 455.957031 209.707031 456.257812 210.207031 456.949219 Z M 210.207031 456.949219 " fill-opacity="1" fill-rule="nonzero"/><path fill="#000000" d="M 201.886719 427.109375 L 201.886719 437.121094 L 199.980469 437.121094 L 199.980469 429.886719 C 199.277344 430.480469 198.476562 430.976562 197.472656 431.273438 L 197.472656 429.589844 C 197.976562 429.390625 198.476562 429.09375 199.078125 428.695312 C 199.679688 428.199219 200.082031 427.703125 200.28125 427.109375 Z M 201.886719 427.109375 " fill-opacity="1" fill-rule="nonzero"/><path fill="#000000" d="M 201.886719 441.585938 L 201.886719 451.597656 L 199.980469 451.597656 L 199.980469 444.359375 C 199.277344 444.953125 198.476562 445.449219 197.472656 445.746094 L 197.472656 444.0625 C 197.976562 443.863281 198.476562 443.566406 199.078125 443.070312 C 199.679688 442.675781 200.082031 442.179688 200.28125 441.585938 Z M 201.886719 441.585938 " fill-opacity="1" fill-rule="nonzero"/><path fill="#000000" d="M 201.886719 455.957031 L 201.886719 465.972656 L 199.980469 465.972656 L 199.980469 458.632812 C 199.277344 459.328125 198.476562 459.824219 197.472656 460.121094 L 197.472656 458.4375 C 197.976562 458.238281 198.476562 457.941406 199.078125 457.445312 C 199.679688 457.050781 200.082031 456.554688 200.28125 455.957031 Z M 201.886719 455.957031 " fill-opacity="1" fill-rule="nonzero"/><path fill="#000000" d="M 194.066406 432.164062 C 194.066406 431.074219 194.066406 430.28125 193.863281 429.6875 C 193.765625 429.292969 193.664062 428.992188 193.460938 428.890625 C 193.261719 428.695312 193.058594 428.597656 192.859375 428.597656 C 192.660156 428.597656 192.460938 428.695312 192.257812 428.890625 C 192.058594 428.992188 191.957031 429.292969 191.859375 429.6875 C 191.757812 430.085938 191.65625 430.976562 191.65625 432.164062 C 191.65625 433.355469 191.757812 434.148438 191.859375 434.644531 C 191.957031 435.140625 192.058594 435.4375 192.257812 435.535156 C 192.460938 435.734375 192.660156 435.734375 192.859375 435.734375 C 193.058594 435.734375 193.261719 435.734375 193.460938 435.535156 C 193.664062 435.4375 193.765625 435.140625 193.863281 434.746094 C 194.066406 434.246094 194.066406 433.457031 194.066406 432.164062 Z M 190.457031 436.230469 C 189.851562 435.4375 189.550781 434.148438 189.550781 432.164062 C 189.550781 430.378906 189.851562 428.894531 190.554688 428.101562 C 191.054688 427.40625 191.859375 427.109375 192.761719 427.109375 C 193.761719 427.109375 194.464844 427.40625 195.066406 428.101562 C 195.667969 428.894531 195.96875 430.378906 195.96875 432.164062 C 195.96875 434.050781 195.667969 435.535156 195.066406 436.328125 C 194.464844 437.023438 193.765625 437.320312 192.761719 437.320312 C 191.859375 437.421875 191.054688 437.023438 190.457031 436.230469 Z M 190.457031 436.230469 " fill-opacity="1" fill-rule="nonzero"/><path fill="#000000" d="M 194.066406 446.640625 C 194.066406 445.550781 194.066406 444.757812 193.863281 444.164062 C 193.765625 443.761719 193.664062 443.46875 193.460938 443.367188 C 193.261719 443.167969 193.058594 443.070312 192.859375 443.070312 C 192.660156 443.070312 192.460938 443.167969 192.257812 443.367188 C 192.058594 443.46875 191.957031 443.761719 191.859375 444.0625 C 191.757812 444.558594 191.65625 445.449219 191.65625 446.640625 C 191.65625 447.828125 191.757812 448.621094 191.859375 449.117188 C 191.957031 449.613281 192.058594 449.910156 192.257812 450.011719 C 192.460938 450.109375 192.660156 450.210938 192.859375 450.210938 C 193.058594 450.210938 193.261719 450.109375 193.460938 450.011719 C 193.664062 449.910156 193.765625 449.613281 193.863281 449.214844 C 194.066406 448.621094 194.066406 447.828125 194.066406 446.640625 Z M 190.457031 450.703125 C 189.851562 449.910156 189.550781 448.523438 189.550781 446.640625 C 189.550781 444.757812 189.851562 443.367188 190.554688 442.574219 C 191.054688 441.878906 191.859375 441.582031 192.761719 441.582031 C 193.761719 441.582031 194.464844 441.878906 195.066406 442.574219 C 195.667969 443.367188 195.96875 444.855469 195.96875 446.640625 C 195.96875 448.523438 195.667969 450.011719 195.066406 450.804688 C 194.464844 451.5 193.765625 451.796875 192.761719 451.796875 C 191.859375 451.792969 191.054688 451.398438 190.457031 450.703125 Z M 190.457031 450.703125 " fill-opacity="1" fill-rule="nonzero"/><path fill="#000000" d="M 193.863281 463.59375 C 194.066406 463.097656 194.066406 462.304688 194.066406 461.015625 C 194.066406 459.921875 194.066406 459.128906 193.863281 458.535156 C 193.765625 458.140625 193.664062 457.839844 193.460938 457.742188 C 193.261719 457.546875 193.058594 457.445312 192.859375 457.445312 C 192.660156 457.445312 192.460938 457.546875 192.257812 457.742188 C 192.058594 457.839844 191.957031 458.140625 191.859375 458.4375 C 191.757812 458.933594 191.65625 459.824219 191.65625 461.015625 C 191.65625 462.203125 191.757812 462.996094 191.859375 463.492188 C 191.957031 463.988281 192.058594 464.1875 192.257812 464.386719 C 192.460938 464.484375 192.660156 464.582031 192.859375 464.582031 C 193.058594 464.582031 193.261719 464.484375 193.460938 464.386719 C 193.664062 464.1875 193.765625 463.988281 193.863281 463.59375 Z M 190.457031 465.082031 C 189.851562 464.285156 189.550781 462.996094 189.550781 461.015625 C 189.550781 459.132812 189.851562 457.746094 190.554688 456.949219 C 191.054688 456.257812 191.859375 455.957031 192.761719 455.957031 C 193.765625 455.957031 194.464844 456.257812 195.070312 456.949219 C 195.667969 457.746094 195.96875 459.132812 195.96875 461.015625 C 195.96875 462.898438 195.667969 464.285156 195.070312 465.179688 C 194.464844 465.773438 193.765625 466.167969 192.761719 466.167969 C 191.859375 466.167969 191.054688 465.773438 190.457031 465.082031 Z M 190.457031 465.082031 " fill-opacity="1" fill-rule="nonzero"/><path fill="#000000" d="M 184.738281 458.734375 C 184.035156 459.425781 183.234375 459.921875 182.230469 460.222656 L 182.230469 458.535156 C 182.734375 458.339844 183.332031 458.039062 183.835938 457.546875 C 184.4375 457.148438 184.839844 456.652344 185.039062 456.058594 L 186.640625 456.058594 L 186.640625 466.070312 L 184.738281 466.070312 Z M 184.738281 458.734375 " fill-opacity="1" fill-rule="nonzero"/><path fill="#000000" d="M 184.738281 444.359375 C 184.035156 444.953125 183.234375 445.449219 182.230469 445.746094 L 182.230469 444.0625 C 182.734375 443.863281 183.332031 443.566406 183.835938 443.070312 C 184.4375 442.675781 184.839844 442.179688 185.039062 441.585938 L 186.640625 441.585938 L 186.640625 451.597656 L 184.738281 451.597656 Z M 184.738281 444.359375 " fill-opacity="1" fill-rule="nonzero"/><path fill="#000000" d="M 184.738281 429.988281 C 184.035156 430.582031 183.234375 431.074219 182.230469 431.375 L 182.230469 429.6875 C 182.734375 429.488281 183.332031 429.191406 183.835938 428.796875 C 184.4375 428.296875 184.839844 427.804688 185.039062 427.210938 L 186.640625 427.210938 L 186.640625 437.222656 L 184.738281 437.222656 Z M 184.738281 429.988281 " fill-opacity="1" fill-rule="nonzero"/><path fill="#000000" d="M 174.910156 421.164062 C 174.609375 421.164062 174.308594 421.261719 174.007812 421.558594 C 173.808594 421.757812 173.609375 422.054688 173.609375 422.453125 L 173.609375 469.9375 C 173.609375 470.332031 173.808594 470.632812 174.007812 470.828125 C 174.308594 471.128906 174.609375 471.226562 174.910156 471.226562 L 232.472656 471.226562 C 232.773438 471.226562 233.074219 471.128906 233.375 470.828125 C 233.574219 470.632812 233.773438 470.332031 233.773438 469.9375 L 233.773438 422.449219 C 233.773438 422.054688 233.574219 421.757812 233.375 421.558594 C 233.074219 421.257812 232.773438 421.160156 232.472656 421.160156 L 174.910156 421.160156 Z M 232.472656 473.007812 L 174.910156 473.007812 C 174.109375 473.007812 173.40625 472.714844 172.804688 472.117188 C 172.304688 471.621094 171.902344 470.828125 171.902344 470.035156 L 171.902344 422.550781 C 171.902344 421.757812 172.304688 420.964844 172.804688 420.46875 C 173.40625 419.871094 174.109375 419.574219 174.910156 419.574219 L 232.472656 419.574219 C 233.273438 419.574219 233.976562 419.871094 234.578125 420.46875 C 235.078125 420.964844 235.480469 421.757812 235.480469 422.550781 L 235.480469 470.035156 C 235.480469 470.828125 235.078125 471.621094 234.578125 472.117188 C 233.976562 472.714844 233.273438 473.007812 232.472656 473.007812 Z M 232.472656 473.007812 " fill-opacity="1" fill-rule="nonzero"/><g clip-path="url(#ae9d85cc1e)"><path fill="#000000" d="M 169.496094 405.796875 L 237.886719 405.796875 C 238.386719 405.796875 238.6875 406.191406 238.6875 406.589844 L 238.789062 475.09375 C 238.789062 475.589844 238.386719 475.984375 237.886719 475.984375 L 169.394531 475.984375 C 168.894531 475.984375 168.496094 475.589844 168.496094 475.09375 L 168.496094 406.6875 C 168.496094 406.191406 168.894531 405.796875 169.394531 405.796875 Z M 236.984375 407.582031 L 170.199219 407.582031 L 170.199219 474.398438 L 237.082031 474.398438 Z M 236.984375 407.582031 " fill-opacity="1" fill-rule="nonzero"/></g></svg>